<svg width="0" height="0" class="hidden">
  <symbol  xmlns="http://www.w3.org/2000/svg" viewBox="0 0 32 27" id="arrow-left">
  <path d="M3.96012 13.6787L14.3654 24.0839C15.0198 24.7384 15.0198 25.7855 14.3654 26.3745C13.7109 26.9634 12.6638 27.0289 12.0748 26.3745L0.490834 14.7905C-0.163606 14.136 -0.163606 13.0889 0.490835 12.4999L12.5984 0.458225C12.9256 0.131004 13.3182 0.000115855 13.7764 0.000115895C14.2345 0.000115935 14.6271 0.131004 14.9543 0.458225C15.6088 1.11267 15.6088 2.15977 14.9543 2.74877L3.96012 13.6787Z"/>
  <path d="M29.8097 15.054L12.1398 15.054C11.2236 15.054 10.5037 14.3341 10.5037 13.4179C10.5037 12.5016 11.2236 11.7817 12.1398 11.7817L29.8097 11.7818C30.7259 11.7818 31.4458 12.5016 31.4458 13.4179C31.4458 14.3341 30.7259 15.054 29.8097 15.054Z"  />
  </symbol>
  <symbol xmlns="http://www.w3.org/2000/svg" viewBox="0 0 32 27" id="arrow-right">
   <path d="M27.4857 13.1624L17.0805 2.75715C16.426 2.10271 16.426 1.05561 17.0805 0.466612C17.7349 -0.122385 18.782 -0.187829 19.371 0.466612L30.955 12.0506C31.6094 12.705 31.6094 13.7521 30.955 14.3411L18.8475 26.3828C18.5202 26.7101 18.1276 26.841 17.6695 26.841C17.2114 26.841 16.8187 26.7101 16.4915 26.3828C15.837 25.7284 15.837 24.6813 16.4915 24.0923L27.4857 13.1624Z"  />
  <path d="M1.6361 11.7871L19.306 11.7871C20.2222 11.7871 20.9421 12.507 20.9421 13.4232C20.9421 14.3394 20.2222 15.0593 19.306 15.0593L1.6361 15.0593C0.719885 15.0593 0 14.3394 0 13.4232C0 12.507 0.719885 11.7871 1.6361 11.7871Z" />
  </symbol>
  <symbol  xmlns="http://www.w3.org/2000/svg" viewBox="0 0 24 22" id="like">
  <path d="M1.6996 1.83963C-0.567639 4.29254 -0.565429 8.23975 1.6996 10.6948L11.7332 21.5754C15.0816 17.9528 18.4302 14.33 21.7788 10.7072C24.046 8.25431 24.046 4.30483 21.7788 1.85209C19.5115 -0.600819 15.8608 -0.601046 13.5939 1.85209L11.7452 3.85219L9.88498 1.83968C7.61774 -0.613227 3.96701 -0.613227 1.70011 1.83968L1.6996 1.83963Z" />
  </symbol>
  <symbol fill="none" xmlns="http://www.w3.org/2000/svg" viewBox="0 0 23 23" id="play">
    <path d="M23 11.5C23 17.8513 17.8513 23 11.5 23C5.14873 23 0 17.8513 0 11.5C0 5.14873 5.14873 0 11.5 0C17.8513 0 23 5.14873 23 11.5ZM1.85424 11.5C1.85424 16.8272 6.17279 21.1458 11.5 21.1458C16.8272 21.1458 21.1458 16.8272 21.1458 11.5C21.1458 6.17279 16.8272 1.85424 11.5 1.85424C6.17279 1.85424 1.85424 6.17279 1.85424 11.5Z" fill="#FF5C00"></path>
    <path d="M8.62393 6.15146L8.86802 17.9045L17.944 11.8369L8.62393 6.15146Z" fill="#FF5C00"></path>
  </symbol>
  <symbol fill="none" xmlns="http://www.w3.org/2000/svg" viewBox="0 0 23 5" id="more-details">
    <path fill-rule="evenodd" clip-rule="evenodd" d="M2.24 0.00025458C1.64592 0.00025458 1.07608 0.23619 0.65608 0.656334C0.23592 1.07633 0 1.64617 0 2.24025C0 2.83433 0.235936 3.40417 0.65608 3.82417C1.07608 4.24433 1.64592 4.48025 2.24 4.48025C2.83408 4.48025 3.40392 4.24432 3.82392 3.82417C4.24408 3.40417 4.48 2.83433 4.48 2.24025C4.48 1.64617 4.24406 1.07633 3.82392 0.656334C3.40392 0.236174 2.83408 0.00025458 2.24 0.00025458ZM11.2 0.00025458C10.6059 0.00025458 10.0361 0.23619 9.61608 0.656334C9.19592 1.07633 8.96 1.64617 8.96 2.24025C8.96 2.83433 9.19593 3.40417 9.61608 3.82417C10.0361 4.24433 10.6059 4.48025 11.2 4.48025C11.7941 4.48025 12.3639 4.24432 12.7839 3.82417C13.2041 3.40417 13.44 2.83433 13.44 2.24025C13.44 1.64353 13.202 1.07149 12.7786 0.651055C12.3553 0.230575 11.7817 -0.00362542 11.185 0.00025458H11.2ZM20.16 0.00025458C19.5659 0.00025458 18.9961 0.23619 18.5761 0.656334C18.1559 1.07633 17.92 1.64617 17.92 2.24025C17.92 2.83433 18.1559 3.40417 18.5761 3.82417C18.9961 4.24433 19.5659 4.48025 20.16 4.48025C20.7541 4.48025 21.3239 4.24432 21.7439 3.82417C22.1641 3.40417 22.4 2.83433 22.4 2.24025C22.4 1.64025 22.1595 1.06541 21.732 0.644335C21.3047 0.223255 20.7262 -0.00878542 20.1264 0.00025458H20.16Z" fill="#332D2D"></path>
  </symbol>
  <symbol fill="none" xmlns="http://www.w3.org/2000/svg" viewBox="0 0 77 77" id="play-big">
    <circle cx="38.5" cy="38.5" r="38.5" fill="#414141"></circle>
    <path d="M38.5 0C17.2704 0 0 17.2713 0 38.5C0 59.7296 17.2706 77 38.5 77C59.7294 77 77 59.7294 77 38.5C77 17.2706 59.7294 0 38.5 0ZM30.7252 55.4897V21.5103L54.7143 38.4998L30.7252 55.4897Z" fill="white"></path>
  </symbol>
</svg>