<svg width="0" height="0" class="hidden">
  <symbol xmlns="http://www.w3.org/2000/svg" viewBox="0 0 11 11" id="instagram">
    <path d="M2.97056 0C1.33269 0 0 1.33469 0 2.97446V7.22267C0 8.86224 1.33347 10.1963 2.97175 10.1963H7.21609C8.85417 10.1963 10.187 8.86165 10.187 7.22188V2.97327C10.187 1.3339 8.85357 0 7.21529 0H2.97056ZM8.14964 1.63141C8.37457 1.63141 8.55712 1.81413 8.55712 2.03927C8.55712 2.2644 8.37457 2.44712 8.14964 2.44712C7.92471 2.44712 7.74215 2.2644 7.74215 2.03927C7.74215 1.81413 7.92471 1.63141 8.14964 1.63141ZM5.09352 2.44712C6.55434 2.44712 7.74215 3.63601 7.74215 5.09817C7.74215 6.56032 6.55414 7.74922 5.09352 7.74922C3.6327 7.74922 2.44489 6.56012 2.44489 5.09817C2.44489 3.63622 3.6327 2.44712 5.09352 2.44712ZM5.09352 3.26283C4.08073 3.26283 3.25985 4.08445 3.25985 5.09817C3.25985 6.11189 4.08073 6.93351 5.09352 6.93351C6.10632 6.93351 6.92719 6.11189 6.92719 5.09817C6.92719 4.08445 6.10632 3.26283 5.09352 3.26283Z"></path>
  </symbol>
  <symbol  xmlns="http://www.w3.org/2000/svg" viewBox="0 0 12 12" id="facebook">
    <path d="M5.87714 0C2.6316 0 0 2.6476 0 5.91286C0 8.87725 2.1707 11.3252 4.99851 11.7527V7.47977H3.54437V5.9256H4.99851V4.8913C4.99851 3.17907 5.82764 2.42769 7.24222 2.42769C7.91945 2.42769 8.27818 2.4784 8.44749 2.50114V3.85769H7.48273C6.88236 3.85769 6.67259 4.43078 6.67259 5.07619V5.9256H8.43234L8.19386 7.47977H6.67259V11.765C9.54109 11.3738 11.7543 8.90636 11.7543 5.91286C11.7543 2.6476 9.1229 0 5.87714 0Z" ></path>
  </symbol>
  <symbol  xmlns="http://www.w3.org/2000/svg" viewBox="0 0 15 11" id="youtube">
    <path d="M14.4732 1.7525C14.3355 1.05175 13.6797 0.541432 12.9187 0.382114C11.7798 0.159318 9.67216 0 7.39175 0C5.1127 0 2.97127 0.159318 1.83107 0.382114C1.07139 0.541432 0.414251 1.01939 0.276617 1.7525C0.137634 2.54908 0 3.66431 0 5.09817C0 6.53203 0.137634 7.64725 0.310351 8.44384C0.449334 9.14459 1.10512 9.65491 1.86481 9.81423C3.07383 10.037 5.14643 10.1963 7.42684 10.1963C9.70724 10.1963 11.7798 10.037 12.9889 9.81423C13.7486 9.65491 14.4043 9.17695 14.5433 8.44384C14.681 7.64725 14.8537 6.49967 14.8888 5.09817C14.8186 3.66431 14.6459 2.54908 14.4732 1.7525ZM5.52695 7.32862V2.86772L9.74098 5.09817L5.52695 7.32862Z" ></path>
  </symbol>
  <symbol  xmlns="http://www.w3.org/2000/svg" viewBox="0 0 15 12" id="twitter">
    <path d="M14.1051 1.39108C13.5867 1.62894 13.0292 1.78751 12.4411 1.86245C13.0391 1.49492 13.499 0.908719 13.7149 0.216118C13.1554 0.555769 12.5357 0.805136 11.8763 0.936597C11.3497 0.358577 10.5986 0 9.76643 0C8.16788 0 6.87239 1.32996 6.87239 2.96964C6.87239 3.20162 6.89857 3.42771 6.94797 3.64715C4.54322 3.52209 2.41042 2.33842 0.983534 0.541958C0.732834 0.980844 0.5918 1.49492 0.5918 2.03739C0.5918 3.06837 1.1016 3.97581 1.87889 4.5106C1.40441 4.49551 0.957846 4.35894 0.566853 4.13975C0.566853 4.1487 0.566853 4.162 0.566853 4.17453C0.566853 5.61523 1.56471 6.81475 2.88737 7.08791C2.64556 7.15645 2.39017 7.19456 2.12687 7.19456C1.9399 7.19456 1.75786 7.17256 1.58151 7.13982C1.94978 8.31709 3.01828 9.17773 4.28413 9.20305C3.29368 9.99821 2.04635 10.4744 0.689857 10.4744C0.455459 10.4744 0.226494 10.4606 0 10.4322C1.28116 11.2724 2.8029 11.765 4.43628 11.765C9.75877 11.765 12.6703 7.23906 12.6703 3.31287C12.6703 3.18422 12.6664 3.05609 12.6605 2.92949C13.2288 2.51413 13.7183 1.98982 14.1051 1.39108Z"></path>
  </symbol>
</svg>