<svg width="23" height="23" viewBox="0 0 23 23" fill="none" xmlns="http://www.w3.org/2000/svg">
<path d="M23 11.5C23 17.8513 17.8513 23 11.5 23C5.14873 23 0 17.8513 0 11.5C0 5.14873 5.14873 0 11.5 0C17.8513 0 23 5.14873 23 11.5ZM1.85424 11.5C1.85424 16.8272 6.17279 21.1458 11.5 21.1458C16.8272 21.1458 21.1458 16.8272 21.1458 11.5C21.1458 6.17279 16.8272 1.85424 11.5 1.85424C6.17279 1.85424 1.85424 6.17279 1.85424 11.5Z" fill="#FF5C00"/>
<path d="M8.62393 6.15146L8.86802 17.9045L17.944 11.8369L8.62393 6.15146Z" fill="#FF5C00"/>
</svg>
