<?xml version="1.0" standalone="no"?>
<!DOCTYPE svg PUBLIC "-//W3C//DTD SVG 1.1//EN" "http://www.w3.org/Graphics/SVG/1.1/DTD/svg11.dtd" >
<svg xmlns="http://www.w3.org/2000/svg" xmlns:xlink="http://www.w3.org/1999/xlink" version="1.1">
<metadata>
Created by FontForge 20201107 at Fri May  5 14:18:55 2017
 By 
Copyright (c) 2015, Cadson Demak (info@cadsondemak.com)
</metadata>
<defs>
<font id="Prompt-Thin" horiz-adv-x="0" >
  <font-face 
    font-family="Prompt Thin"
    font-weight="250"
    font-stretch="normal"
    units-per-em="1000"
    panose-1="0 0 2 0 0 0 0 0 0 0"
    ascent="750"
    descent="-250"
    x-height="480"
    cap-height="699"
    bbox="-556 -346 1220 1027"
    underline-thickness="50"
    underline-position="-100"
    unicode-range="U+000D-FB02"
  />
<missing-glyph horiz-adv-x="531" 
d="M60 714h411v-714h-411v714zM420 51v612h-309v-612h309z" />
    <glyph glyph-name="fi" unicode="fi" horiz-adv-x="527" 
d="M119 456h-79v24h79v129q0 67 42 101t103 34q32 0 59 -6v-25q-22 7 -50 7q-58 0 -92 -27.5t-34 -81.5v-131h288v-480h-28v456h-260v-456h-28v456zM403 612q-8 8 -8 18q0 11 8 18.5t18 7.5q11 0 18.5 -7.5t7.5 -18.5q0 -10 -7.5 -18t-18.5 -8q-10 0 -18 8z" />
    <glyph glyph-name="fl" unicode="fl" horiz-adv-x="515" 
d="M119 456h-79v24h79v129q0 67 42 101t103 34q32 0 59 -6v-25q-22 7 -50 7q-58 0 -92 -27.5t-34 -81.5v-131h260v192h28v-672h-28v456h-260v-456h-28v456z" />
    <glyph glyph-name="ru_lakkhangyaothai" unicode="&#xe24;&#xe45;" horiz-adv-x="838" 
d="M505 354q0 88 -48 130t-143 42q-74 0 -126 -22.5t-97 -74.5l47 -71v-276q0 -32 15 -45t48 -13h51v-24h-59q-40 0 -61.5 22t-21.5 62v270l-50 75q47 60 106.5 90.5t147.5 30.5q75 0 129 -27q25 12 60.5 19.5t73.5 7.5q181 0 181 -193v-553h-28v554q0 83 -35.5 125.5
t-115.5 42.5q-66 0 -113 -18q67 -50 67 -150v-554h-28v550z" />
    <glyph glyph-name="lu_lakkhangyaothai" unicode="&#xe26;&#xe45;" horiz-adv-x="872" 
d="M539 354q0 172 -191 172q-74 0 -126.5 -22t-96.5 -74l67 -71v-275q0 -40 -21.5 -62t-61.5 -22h-49v24h41q33 0 48 13t15 45v272l-70 75q47 60 106.5 90.5t147.5 30.5q75 0 129 -27q25 12 60.5 19.5t73.5 7.5q181 0 181 -193v-553h-28v554q0 83 -35.5 125.5t-115.5 42.5
q-67 0 -113 -18q67 -50 67 -150v-554h-28v550z" />
    <glyph glyph-name=".notdef" horiz-adv-x="531" 
d="M60 714h411v-714h-411v714zM420 51v612h-309v-612h309z" />
    <glyph glyph-name=".null" horiz-adv-x="500" 
 />
    <glyph glyph-name="nonmarkingreturn" unicode="&#xd;" horiz-adv-x="260" 
 />
    <glyph glyph-name="space" unicode=" " horiz-adv-x="400" 
 />
    <glyph glyph-name="exclam" unicode="!" horiz-adv-x="172" 
d="M72 699h28v-523h-28v523zM68 -7q-8 8 -8 18q0 11 8 18.5t18 7.5q11 0 18.5 -7.5t7.5 -18.5q0 -10 -7.5 -18t-18.5 -8q-10 0 -18 8z" />
    <glyph glyph-name="quotedbl" unicode="&#x22;" horiz-adv-x="306" 
d="M60 699h28v-169h-28v169zM218 699h28v-169h-28v169z" />
    <glyph glyph-name="numbersign" unicode="#" horiz-adv-x="741" 
d="M167 206h-107v24h114l67 239h-141v24h148l58 206h28l-58 -206h275l58 206h28l-58 -206h102v-24h-109l-67 -239h136v-24h-143l-58 -206h-28l58 206h-275l-58 -206h-28zM477 230l67 239h-275l-67 -239h275z" />
    <glyph glyph-name="dollar" unicode="$" horiz-adv-x="544" 
d="M269 -15q-66 0 -120 8.5t-89 23.5v25q44 -17 94 -25t115 -8v335q-102 38 -151 82t-49 121q0 74 54.5 119t145.5 48v88h28v-88q85 -3 158 -32v-25q-77 30 -158 33v-332q67 -26 105 -47.5t60 -57t22 -92.5q0 -75 -47.5 -120t-139.5 -54v-90h-28v88zM269 690
q-82 -3 -128 -42.5t-46 -100.5q0 -43 16 -73t53.5 -55t104.5 -51v322zM458 161q0 46 -16.5 76t-50.5 51.5t-94 44.5v-322q161 16 161 150z" />
    <glyph glyph-name="percent" unicode="%" horiz-adv-x="868" 
d="M151 371.5q-42 24.5 -66.5 66.5t-24.5 92t24.5 92.5t66.5 67t92 24.5t92.5 -24.5t67 -67t24.5 -92.5t-24.5 -92t-67 -66.5t-92.5 -24.5t-92 24.5zM613 699h28l-387 -699h-28zM323.5 392q36.5 21 58 57.5t21.5 80.5t-21.5 80.5t-58 58t-80.5 21.5t-80.5 -21.5t-57.5 -58
t-21 -80.5t21 -80.5t57.5 -57.5t80.5 -21t80.5 21zM532 9.5q-42 24.5 -66.5 66.5t-24.5 92t24.5 92.5t66.5 67t92 24.5t92.5 -24.5t67 -67t24.5 -92.5t-24.5 -92t-67 -66.5t-92.5 -24.5t-92 24.5zM704.5 30q36.5 21 58 57.5t21.5 80.5t-21.5 80.5t-58 58t-80.5 21.5
t-80.5 -21.5t-57.5 -58t-21 -80.5t21 -80.5t57.5 -57.5t80.5 -21t80.5 21z" />
    <glyph glyph-name="ampersand" unicode="&#x26;" horiz-adv-x="738" 
d="M172.5 4.5q-51.5 19.5 -82 59.5t-30.5 97q0 71 44.5 121.5t146.5 107.5q-64 57 -92.5 95t-28.5 83q0 42 20.5 75.5t56 52t78.5 18.5t78 -18.5t55.5 -52t20.5 -75.5q0 -37 -14 -65t-46 -55.5t-90 -62.5l262 -253q29 41 38.5 88t9.5 118h27q0 -73 -12.5 -125t-44.5 -98
l119 -115h-32l-101 97q-51 -62 -119.5 -87t-150.5 -25q-61 0 -112.5 19.5zM382.5 482q31.5 35 31.5 86q0 53 -36 87.5t-93 34.5t-93 -34.5t-36 -87.5q0 -29 13 -54t34 -46.5t68 -65.5q80 45 111.5 80zM432.5 33.5q61.5 24.5 105.5 79.5l-269 260q-68 -37 -107 -67
t-57.5 -64.5t-18.5 -80.5q0 -78 59.5 -115t139.5 -37q86 0 147.5 24.5z" />
    <glyph glyph-name="quotesingle" unicode="'" horiz-adv-x="148" 
d="M60 699h28v-169h-28v169z" />
    <glyph glyph-name="parenleft" unicode="(" horiz-adv-x="278" 
d="M60 270q0 260 150 444h28q-152 -195 -152 -444t152 -444h-28q-150 184 -150 444z" />
    <glyph glyph-name="parenright" unicode=")" horiz-adv-x="278" 
d="M192 270q0 249 -152 444h28q150 -184 150 -444t-150 -444h-28q152 195 152 444z" />
    <glyph glyph-name="asterisk" unicode="*" horiz-adv-x="422" 
d="M104 426l89 126l-133 47l9 22l130 -48v126h24v-126l130 48l9 -22l-133 -47l89 -126l-20 -12l-87 123l-87 -123z" />
    <glyph glyph-name="plus" unicode="+" horiz-adv-x="403" 
d="M189 281h-129v24h129v130h24v-130h130v-24h-130v-129h-24v129z" />
    <glyph glyph-name="comma" unicode="," horiz-adv-x="230" 
d="M139 44h31l-85 -189h-25z" />
    <glyph glyph-name="hyphen" unicode="-" horiz-adv-x="403" 
d="M60 305h283v-24h-283v24z" />
    <glyph glyph-name="period" unicode="." horiz-adv-x="172" 
d="M68 8q-8 8 -8 18q0 11 8 18.5t18 7.5q11 0 18.5 -7.5t7.5 -18.5q0 -10 -7.5 -18t-18.5 -8q-10 0 -18 8z" />
    <glyph glyph-name="slash" unicode="/" horiz-adv-x="433" 
d="M345 714h28l-285 -714h-28z" />
    <glyph glyph-name="zero" unicode="0" horiz-adv-x="642" 
d="M179.5 29.5q-58.5 44.5 -89 126.5t-30.5 193q0 170 67.5 267.5t193.5 97.5q83 0 141.5 -44.5t89 -127t30.5 -193.5t-30.5 -193t-89 -126.5t-141.5 -44.5t-141.5 44.5zM446 50q53 41 81.5 118t28.5 181t-28 181t-81 118.5t-126 41.5t-126 -41.5t-81 -118.5t-28 -181
t28.5 -181t81.5 -118t125 -41t125 41z" />
    <glyph glyph-name="one" unicode="1" horiz-adv-x="327" 
d="M219 665l-159 -116v34l159 116h28v-699h-28v665z" />
    <glyph glyph-name="two" unicode="2" horiz-adv-x="571" 
d="M60 24l191 199q76 79 113.5 122t63.5 92.5t26 100.5q0 71 -44 111.5t-134 40.5q-49 0 -90.5 -13.5t-86.5 -47.5v30q40 29 81 42t96 13q97 0 150.5 -46t53.5 -130q0 -52 -24.5 -102t-66 -100t-114.5 -126l-178 -186h414v-24h-451v24z" />
    <glyph glyph-name="three" unicode="3" horiz-adv-x="559" 
d="M152 -6.5q-52 8.5 -92 24.5v28q42 -19 93.5 -28t103.5 -9q216 0 216 170q0 84 -59.5 125t-171.5 41h-67v24h67q91 0 149.5 43t58.5 120q0 75 -45 116.5t-133 41.5q-54 0 -96.5 -12t-92.5 -43v26q82 53 189 53q98 0 151 -48.5t53 -133.5q0 -65 -39.5 -110.5t-117.5 -63.5
q83 -7 131.5 -54t48.5 -125q0 -90 -58.5 -142t-184.5 -52q-52 0 -104 8.5z" />
    <glyph glyph-name="four" unicode="4" horiz-adv-x="578" 
d="M400 192h-360v23l348 484h40v-484h110v-23h-110v-192h-28v192zM400 215v454l-327 -454h327z" />
    <glyph glyph-name="five" unicode="5" horiz-adv-x="550" 
d="M60 22v29q37 -21 82.5 -31.5t90.5 -10.5q109 0 170 54t61 153q0 86 -55 134.5t-157 48.5q-39 0 -78.5 -7t-71.5 -20l-23 14l25 313h333v-24h-309l-22 -276q72 24 149 24q113 0 174 -55t61 -152q0 -110 -65.5 -170.5t-193.5 -60.5q-91 0 -171 37z" />
    <glyph glyph-name="six" unicode="6" horiz-adv-x="581" 
d="M177 15.5q-53 30.5 -85 93t-32 154.5q0 225 73.5 338t233.5 113q39 0 69 -5v-25q-25 6 -67 6q-143 0 -209 -98.5t-75 -296.5q25 65 81 103t129 38q66 0 117.5 -28.5t80 -80t28.5 -117.5t-28.5 -117t-79.5 -79.5t-118 -28.5q-65 0 -118 30.5zM441.5 64q55.5 55 55.5 146
q0 60 -25 106t-71 71t-106 25q-55 0 -101 -26t-73 -72.5t-27 -103.5q0 -52 25 -98.5t71 -74.5t105 -28q91 0 146.5 55z" />
    <glyph glyph-name="seven" unicode="7" horiz-adv-x="548" 
d="M472 675h-422v24h448v-29l-298 -670h-28z" />
    <glyph glyph-name="eight" unicode="8" horiz-adv-x="570" 
d="M119.5 36q-59.5 51 -59.5 146q0 76 43 125t113 61q-59 14 -94.5 58.5t-35.5 108.5q0 81 54.5 130t144.5 49t144.5 -49t54.5 -130q0 -64 -35.5 -108.5t-94.5 -58.5q70 -12 113 -61t43 -125q0 -95 -59.5 -146t-165.5 -51t-165.5 51zM413 421q48 42 48 114t-48 114t-128 42
t-128 -42t-48 -114t48 -114t128 -42t128 42zM434 52.5q53 44.5 53 129.5q0 82 -55 128t-147 46t-147 -46t-55 -128q0 -85 53 -129.5t149 -44.5t149 44.5z" />
    <glyph glyph-name="nine" unicode="9" horiz-adv-x="581" 
d="M145 -10v25q25 -6 67 -6q143 0 209 98.5t75 296.5q-25 -65 -81 -103t-129 -38q-66 0 -117.5 28.5t-80 80t-28.5 117.5t28.5 117t79.5 79.5t118 28.5q65 0 118 -30.5t85 -93t32 -154.5q0 -225 -73.5 -338t-233.5 -113q-39 0 -69 5zM387 313q46 26 73 72.5t27 103.5
q0 52 -25 98.5t-71 74.5t-105 28q-91 0 -146.5 -55t-55.5 -146q0 -60 25 -106t71 -71t106 -25q55 0 101 26z" />
    <glyph glyph-name="colon" unicode=":" horiz-adv-x="172" 
d="M68 422q-8 8 -8 18q0 11 8 18.5t18 7.5q11 0 18.5 -7.5t7.5 -18.5q0 -10 -7.5 -18t-18.5 -8q-10 0 -18 8zM68 38q-8 8 -8 18q0 11 8 18.5t18 7.5q11 0 18.5 -7.5t7.5 -18.5q0 -10 -7.5 -18t-18.5 -8q-10 0 -18 8z" />
    <glyph glyph-name="semicolon" unicode=";" horiz-adv-x="238" 
d="M134 422q-8 8 -8 18q0 11 8 18.5t18 7.5q11 0 18.5 -7.5t7.5 -18.5q0 -10 -7.5 -18t-18.5 -8q-10 0 -18 8zM139 44h31l-85 -189h-25z" />
    <glyph glyph-name="less" unicode="&#x3c;" horiz-adv-x="550" 
d="M60 311v22l430 211v-28l-395 -194l395 -194v-28z" />
    <glyph glyph-name="equal" unicode="=" horiz-adv-x="556" 
d="M60 475h436v-24h-436v24zM60 265h436v-24h-436v24z" />
    <glyph glyph-name="greater" unicode="&#x3e;" horiz-adv-x="550" 
d="M60 128l395 194l-395 194v28l430 -211v-22l-430 -211v28z" />
    <glyph glyph-name="question" unicode="?" horiz-adv-x="506" 
d="M191 161q0 59 8.5 93.5t31.5 60t70 53.5q51 30 76 54t34 49.5t9 63.5q0 70 -49 112.5t-136 42.5q-49 0 -91 -8t-84 -25v25q41 17 82.5 24.5t92.5 7.5q98 0 154.5 -49t56.5 -130q0 -64 -27 -103t-98 -81q-47 -28 -68 -51.5t-27.5 -53.5t-6.5 -85v-20h-28v20zM186 -7
q-8 8 -8 18q0 11 8 18.5t18 7.5q11 0 18.5 -7.5t7.5 -18.5q0 -10 -7.5 -18t-18.5 -8q-10 0 -18 8z" />
    <glyph glyph-name="at" unicode="@" horiz-adv-x="909" 
d="M245 -35.5q-88 40.5 -136.5 120t-48.5 194.5q0 128 50.5 226.5t146 153.5t226.5 55q171 0 268.5 -87.5t97.5 -249.5q0 -69 -17.5 -128.5t-52.5 -96.5t-86 -37q-39 0 -69 24t-37 66q-22 -44 -64 -67t-97 -23q-69 0 -108 44.5t-39 127.5q0 64 25 116t72 82t109 30
q66 0 133 -24l-14 -245q-3 -49 23 -78t66 -29q63 0 96.5 67t33.5 171q0 148 -89 230.5t-251 82.5q-123 0 -212.5 -51.5t-137 -144.5t-47.5 -215q0 -103 43 -177.5t125 -114t196 -39.5q107 0 203 34v-22q-94 -36 -203 -36q-117 0 -205 40.5zM511.5 157.5q33.5 18.5 51 48.5
t19.5 62l12 204q-46 19 -109 19q-52 0 -93 -26t-64 -72.5t-23 -105.5q0 -148 127 -148q46 0 79.5 18.5z" />
    <glyph glyph-name="A" unicode="A" horiz-adv-x="700" 
d="M339 699h22l279 -699h-28l-86 215h-352l-86 -215h-28zM516 239l-166 418l-166 -418h332z" />
    <glyph glyph-name="B" unicode="B" horiz-adv-x="625" 
d="M80 699h288q87 0 129.5 -43.5t42.5 -134.5q0 -59 -29.5 -102t-73.5 -61q59 -12 93.5 -56.5t34.5 -117.5q0 -57 -23.5 -98.5t-64.5 -63.5t-91 -22h-306v699zM383 370q34 0 64 18t48.5 52t18.5 81q0 85 -37.5 119.5t-104.5 34.5h-264v-305h275zM386 24q67 0 110 39t43 121
t-45 122t-122 40h-264v-322h278z" />
    <glyph glyph-name="C" unicode="C" horiz-adv-x="728" 
d="M236.5 30.5q-82.5 45.5 -129.5 128.5t-47 190t47 190t129.5 129t184.5 46q144 0 238 -82v-30q-46 45 -107 66.5t-131 21.5q-94 0 -170.5 -42t-120.5 -119.5t-44 -179.5t45 -179.5t121.5 -119t168.5 -41.5q77 0 137.5 21.5t109.5 71.5v-30q-87 -87 -247 -87
q-102 0 -184.5 45.5z" />
    <glyph glyph-name="D" unicode="D" horiz-adv-x="696" 
d="M80 699h199q111 0 191.5 -42t123 -120t42.5 -184q0 -174 -99 -263.5t-280 -89.5h-177v699zM246 24q364 0 364 329q0 153 -88.5 237.5t-249.5 84.5h-164v-651h138z" />
    <glyph glyph-name="E" unicode="E" horiz-adv-x="567" 
d="M80 699h427v-24h-399v-313h303v-24h-303v-314h399v-24h-427v699z" />
    <glyph glyph-name="F" unicode="F" horiz-adv-x="547" 
d="M80 699h427v-24h-399v-313h303v-24h-303v-338h-28v699z" />
    <glyph glyph-name="G" unicode="G" horiz-adv-x="728" 
d="M236.5 30.5q-82.5 45.5 -129.5 128.5t-47 190t47 190t129.5 129t184.5 46q147 0 237 -79v-30q-88 85 -237 85q-94 0 -170.5 -42t-120.5 -119.5t-44 -179.5t45 -179.5t121.5 -119t168.5 -41.5q68 0 120.5 16t98.5 52v262h-177v24h205v-291q-87 -87 -247 -87
q-102 0 -184.5 45.5z" />
    <glyph glyph-name="H" unicode="H" horiz-adv-x="672" 
d="M80 699h28v-330h456v330h28v-699h-28v345h-456v-345h-28v699z" />
    <glyph glyph-name="I" unicode="I" horiz-adv-x="188" 
d="M80 699h28v-699h-28v699z" />
    <glyph glyph-name="J" unicode="J" horiz-adv-x="348" 
d="M40 -4v24q15 -5 39.5 -8.5t42.5 -3.5q60 0 91.5 30t31.5 90v571h28v-571q0 -71 -41 -107t-103 -36q-50 0 -89 11z" />
    <glyph glyph-name="K" unicode="K" horiz-adv-x="589" 
d="M80 699h28v-343l360 343h39l-364 -346l386 -353h-39l-382 350v-350h-28v699z" />
    <glyph glyph-name="L" unicode="L" horiz-adv-x="547" 
d="M80 699h28v-675h399v-24h-427v699z" />
    <glyph glyph-name="M" unicode="M" horiz-adv-x="819" 
d="M80 699h32l298 -653l297 653h32v-699h-28v642l-292 -642h-19l-292 642v-642h-28v699z" />
    <glyph glyph-name="N" unicode="N" horiz-adv-x="663" 
d="M80 699h25l450 -647v647h28v-699h-24l-451 649v-649h-28v699z" />
    <glyph glyph-name="O" unicode="O" horiz-adv-x="842" 
d="M236.5 30.5q-82.5 45.5 -129.5 128.5t-47 190t47 190t129.5 129t184.5 46t184.5 -46t129.5 -129t47 -190t-47 -190t-129.5 -128.5t-184.5 -45.5t-184.5 45.5zM589.5 50.5q76.5 41.5 121.5 119t45 179.5t-44 179.5t-120.5 119.5t-170.5 42t-170.5 -42t-120.5 -119.5
t-44 -179.5t45 -179.5t121.5 -119t168.5 -41.5t168.5 41.5z" />
    <glyph glyph-name="P" unicode="P" horiz-adv-x="570" 
d="M80 699h239q105 0 158 -43.5t53 -139.5t-53 -139.5t-158 -43.5h-211v-333h-28v699zM322 357q86 0 134 34.5t48 124.5t-48 124.5t-134 34.5h-214v-318h214z" />
    <glyph glyph-name="Q" unicode="Q" horiz-adv-x="847" 
d="M236 43q-83 43 -129.5 122.5t-46.5 183.5q0 107 47 190t129.5 129t184.5 46t184.5 -46t129.5 -129t47 -190q0 -122 -65 -208t-170 -117h240v-24h-361q-107 0 -190 43zM589.5 62q76.5 38 121.5 111.5t45 175.5t-44 179.5t-120.5 119.5t-170.5 42t-170.5 -42t-120.5 -119.5
t-44 -179.5t44.5 -175.5t121 -111.5t169.5 -38q92 0 168.5 38z" />
    <glyph glyph-name="R" unicode="R" horiz-adv-x="591" 
d="M80 699h248q103 0 152.5 -45t49.5 -136q0 -77 -49.5 -126.5t-144.5 -51.5l195 -340h-29l-195 340h-199v-340h-28v699zM331 364q81 0 127 39.5t46 114.5q0 85 -45 121t-127 36h-224v-311h223z" />
    <glyph glyph-name="S" unicode="S" horiz-adv-x="544" 
d="M145.5 -6q-51.5 9 -85.5 23v25q85 -33 191 -33q207 0 207 152q0 50 -20.5 82t-61 54.5t-118.5 50.5q-101 37 -145 81.5t-44 117.5q0 76 57.5 121.5t153.5 45.5q51 0 92.5 -7.5t82.5 -24.5v-25q-42 17 -84 25t-91 8q-87 0 -136 -40t-49 -103q0 -44 17 -74.5t56 -56
t110 -51.5q77 -29 117 -50t64.5 -57.5t24.5 -96.5q0 -85 -59.5 -130.5t-173.5 -45.5q-54 0 -105.5 9z" />
    <glyph glyph-name="T" unicode="T" horiz-adv-x="584" 
d="M278 675h-238v24h504v-24h-238v-675h-28v675z" />
    <glyph glyph-name="U" unicode="U" horiz-adv-x="670" 
d="M141 48.5q-66 63.5 -66 180.5v470h28v-480q0 -107 63 -158.5t169 -51.5t169 51.5t63 158.5v480h28v-470q0 -117 -66 -180.5t-194 -63.5t-194 63.5z" />
    <glyph glyph-name="V" unicode="V" horiz-adv-x="700" 
d="M60 699h28l262 -657l262 657h28l-279 -699h-22z" />
    <glyph glyph-name="W" unicode="W" horiz-adv-x="1013" 
d="M60 699h28l202 -652l202 652h29l202 -652l202 652h28l-219 -699h-22l-206 665l-205 -665h-22z" />
    <glyph glyph-name="X" unicode="X" horiz-adv-x="692" 
d="M330 361l-252 338h31l237 -317l237 317h31l-253 -338l271 -361h-31l-255 341l-255 -341h-31z" />
    <glyph glyph-name="Y" unicode="Y" horiz-adv-x="658" 
d="M315 265l-255 434h28l241 -410l241 410h28l-255 -434v-265h-28v265z" />
    <glyph glyph-name="Z" unicode="Z" horiz-adv-x="615" 
d="M60 26l452 649h-440v24h472v-26l-452 -649h463v-24h-495v26z" />
    <glyph glyph-name="bracketleft" unicode="[" horiz-adv-x="263" 
d="M60 787h153v-24h-125v-835h125v-24h-153v883z" />
    <glyph glyph-name="backslash" unicode="\" horiz-adv-x="433" 
d="M60 714h28l285 -714h-28z" />
    <glyph glyph-name="bracketright" unicode="]" horiz-adv-x="263" 
d="M50 -72h125v835h-125v24h153v-883h-153v24z" />
    <glyph glyph-name="asciicircum" unicode="^" horiz-adv-x="502" 
d="M241 719h20l181 -318h-28l-163 286l-163 -286h-28z" />
    <glyph glyph-name="underscore" unicode="_" horiz-adv-x="486" 
d="M60 0h366v-24h-366v24z" />
    <glyph glyph-name="grave" unicode="`" horiz-adv-x="219" 
d="M60 739h28l71 -167h-22z" />
    <glyph glyph-name="a" unicode="a" horiz-adv-x="554" 
d="M110.5 23.5q-50.5 38.5 -50.5 110.5q0 151 190 151q118 0 201 -49v81q0 78 -41.5 116t-133.5 38q-78 0 -150 -29v25q29 12 70 20t80 8q203 0 203 -179v-316h-25v77q-65 -92 -208 -92q-85 0 -135.5 38.5zM373.5 36q52.5 27 77.5 75v101q-48 26 -94 37.5t-107 11.5
q-88 0 -126 -31.5t-38 -95.5q0 -60 41.5 -92.5t126.5 -32.5q67 0 119.5 27z" />
    <glyph glyph-name="b" unicode="b" horiz-adv-x="648" 
d="M201 18q-59 33 -93 95v-113h-28v739h28v-374q29 63 92.5 96.5t137.5 33.5q69 0 126.5 -32t90.5 -90t33 -134t-33.5 -134t-90.5 -89t-126 -31q-78 0 -137 33zM450.5 37.5q51.5 28.5 81.5 80.5t30 121t-30 122t-81.5 81.5t-112.5 28.5q-83 0 -146 -43t-84 -118v-142
q23 -75 84.5 -117t145.5 -42q61 0 112.5 28.5z" />
    <glyph glyph-name="c" unicode="c" horiz-adv-x="546" 
d="M184 16q-57 31 -90.5 89t-33.5 134t33.5 134t92 90t128.5 32q53 0 92.5 -10t72.5 -34v-25q-35 25 -74 35t-91 10q-64 0 -116 -28t-82 -81t-30 -123t29.5 -122t81 -80t113.5 -28q57 0 97 11.5t79 37.5v-25q-35 -25 -77.5 -36.5t-98.5 -11.5q-69 0 -126 31z" />
    <glyph glyph-name="d" unicode="d" horiz-adv-x="648" 
d="M184 16q-57 31 -90.5 89t-33.5 134t33 134t90.5 90t126.5 32q74 0 137.5 -33.5t92.5 -96.5v374h28v-739h-28v113q-34 -62 -93 -95t-137 -33q-69 0 -126 31zM455.5 51q61.5 42 84.5 117v142q-21 75 -84 118t-146 43q-61 0 -112.5 -28.5t-81.5 -81.5t-30 -122t30 -121
t81.5 -80.5t112.5 -28.5q84 0 145.5 42z" />
    <glyph glyph-name="e" unicode="e" horiz-adv-x="607" 
d="M129.5 52q-69.5 67 -69.5 188q0 118 63.5 186.5t179.5 68.5q79 0 134 -31t82.5 -85t27.5 -124v-25h-462q0 -108 65 -165t177 -57q46 0 90.5 8.5t78.5 21.5v-24q-28 -12 -76.5 -20.5t-92.5 -8.5q-128 0 -197.5 67zM522 253q0 99 -54.5 159t-164.5 60q-109 0 -163.5 -62
t-54.5 -157h437z" />
    <glyph glyph-name="f" unicode="f" horiz-adv-x="323" 
d="M119 456h-79v24h79v129q0 69 33 102t92 33q32 0 59 -6v-25q-22 7 -50 7q-55 0 -80.5 -26.5t-25.5 -82.5v-131h127v-24h-127v-456h-28v456z" />
    <glyph glyph-name="g" unicode="g" horiz-adv-x="648" 
d="M227.5 -221q-45.5 9 -73.5 24v25q71 -34 168 -34q218 0 218 211v110q-30 -63 -93 -96.5t-137 -33.5q-69 0 -126.5 32t-90.5 90t-33 134t33.5 134t90.5 89t126 31q78 0 137 -33t93 -95v113h28v-469q0 -241 -246 -241q-49 0 -94.5 9zM455 52.5q65 43.5 85 117.5v142
q-23 74 -87 116.5t-143 42.5q-61 0 -112 -28.5t-81.5 -81t-30.5 -120.5q0 -69 30.5 -122t81.5 -81.5t112 -28.5q80 0 145 43.5z" />
    <glyph glyph-name="h" unicode="h" horiz-adv-x="573" 
d="M80 739h28v-348q39 55 93 79.5t114 24.5q93 0 138 -47.5t45 -128.5v-319h-28v318q0 74 -36.5 113.5t-118.5 39.5q-128 0 -207 -118v-353h-28v739z" />
    <glyph glyph-name="i" unicode="i" horiz-adv-x="212" 
d="M88 612q-8 8 -8 18q0 11 8 18.5t18 7.5q11 0 18.5 -7.5t7.5 -18.5q0 -10 -7.5 -18t-18.5 -8q-10 0 -18 8zM92 480h28v-480h-28v480z" />
    <glyph glyph-name="j" unicode="j" horiz-adv-x="209" 
d="M85 612q-8 8 -8 18q0 11 8 18.5t18 7.5q11 0 18.5 -7.5t7.5 -18.5q0 -10 -7.5 -18t-18.5 -8q-10 0 -18 8zM-60 -225v25q22 -7 50 -7q55 0 77 25.5t22 83.5v578h28v-576q0 -135 -118 -135q-32 0 -59 6z" />
    <glyph glyph-name="k" unicode="k" horiz-adv-x="484" 
d="M80 739h28v-496l254 237h40l-259 -240l281 -240h-40l-276 237v-237h-28v739z" />
    <glyph glyph-name="l" unicode="l" horiz-adv-x="188" 
d="M80 739h28v-739h-28v739z" />
    <glyph glyph-name="m" unicode="m" horiz-adv-x="849" 
d="M80 480h28v-86q40 56 83.5 78.5t97.5 22.5q66 0 100.5 -23t46.5 -70q62 93 182 93q87 0 121.5 -41.5t34.5 -129.5v-324h-28v323q0 79 -27 113.5t-101 34.5q-52 0 -95.5 -22t-80.5 -77q4 -21 4 -53v-319h-28v318q0 55 -11 87.5t-39 49t-79 16.5q-56 0 -97.5 -26t-83.5 -89
v-356h-28v480z" />
    <glyph glyph-name="n" unicode="n" horiz-adv-x="573" 
d="M80 480h28v-89q39 55 93 79.5t114 24.5q93 0 138 -47.5t45 -128.5v-319h-28v318q0 74 -36.5 113.5t-118.5 39.5q-128 0 -207 -118v-353h-28v480z" />
    <glyph glyph-name="o" unicode="o" horiz-adv-x="622" 
d="M182 17q-57 32 -89.5 90t-32.5 133t32.5 133t89.5 90t129 32t129 -32t89.5 -90t32.5 -133t-32.5 -133t-89.5 -90t-129 -32t-129 32zM427 37.5q51 28.5 80 80.5t29 122q0 69 -29 121.5t-80 81t-116 28.5t-116 -28.5t-80 -81t-29 -121.5q0 -70 29 -122t80 -80.5t116 -28.5
t116 28.5z" />
    <glyph glyph-name="p" unicode="p" horiz-adv-x="648" 
d="M80 480h28v-113q34 62 93 95t137 33q69 0 126 -31t90.5 -89t33.5 -134t-33 -134t-90.5 -90t-126.5 -32q-74 0 -137.5 33.5t-92.5 96.5v-334h-28v699zM450.5 37.5q51.5 28.5 81.5 81.5t30 122t-30 121t-81.5 80.5t-112.5 28.5q-84 0 -145.5 -42t-84.5 -117v-142
q21 -75 84 -118t146 -43q61 0 112.5 28.5z" />
    <glyph glyph-name="q" unicode="q" horiz-adv-x="648" 
d="M540 115q-29 -63 -92.5 -96.5t-137.5 -33.5q-69 0 -126.5 32t-90.5 90t-33 134t33.5 134t90.5 89t126 31q78 0 137 -33t93 -95v113h28v-699h-28v334zM456 52q63 43 84 118v142q-23 75 -84.5 117t-145.5 42q-61 0 -112.5 -28.5t-81.5 -80.5t-30 -121t30 -122t81.5 -81.5
t112.5 -28.5q83 0 146 43z" />
    <glyph glyph-name="r" unicode="r" horiz-adv-x="378" 
d="M80 480h28v-110q32 59 90 84.5t140 25.5v-24q-184 0 -230 -141v-315h-28v480z" />
    <glyph glyph-name="s" unicode="s" horiz-adv-x="460" 
d="M135.5 -1.5q-49.5 13.5 -75.5 33.5v25q37 -23 80.5 -35.5t87.5 -12.5q146 0 146 98q0 32 -12 53.5t-44.5 38.5t-95.5 34q-59 16 -92.5 31t-51.5 40t-18 67q0 61 47.5 92.5t125.5 31.5q87 0 139 -28v-25q-55 29 -139 29q-69 0 -108 -25t-39 -75q0 -34 13.5 -54t45 -34
t95.5 -31q87 -23 123.5 -56t36.5 -89t-43.5 -89t-129.5 -33q-42 0 -91.5 13.5z" />
    <glyph glyph-name="t" unicode="t" horiz-adv-x="343" 
d="M152 18q-33 33 -33 102v336h-79v24h79v144h28v-144h127v-24h-127v-338q0 -56 25.5 -82.5t80.5 -26.5q28 0 50 7v-25q-27 -6 -59 -6q-59 0 -92 33z" />
    <glyph glyph-name="u" unicode="u" horiz-adv-x="573" 
d="M123.5 34.5q-48.5 49.5 -48.5 131.5v314h28v-312q0 -74 40 -116.5t125 -42.5q63 0 110.5 28t86.5 90v353h28v-480h-28v89q-70 -104 -197 -104q-96 0 -144.5 49.5z" />
    <glyph glyph-name="v" unicode="v" horiz-adv-x="524" 
d="M60 480h28l174 -438l174 438h28l-191 -480h-22z" />
    <glyph glyph-name="w" unicode="w" horiz-adv-x="766" 
d="M60 480h27l139 -449l139 449h36l139 -449l139 449h27l-150 -480h-31l-142 461l-142 -461h-31z" />
    <glyph glyph-name="x" unicode="x" horiz-adv-x="561" 
d="M265 253l-184 227h31l168 -208l169 208h31l-184 -227l205 -253h-30l-191 234l-190 -234h-30z" />
    <glyph glyph-name="y" unicode="y" horiz-adv-x="531" 
d="M70 -192v25q22 -7 53 -7q43 0 66 22.5t43 72.5l33 85l-205 474h28l191 -438l184 438h28l-234 -565q-24 -59 -53 -86t-75 -27q-32 0 -59 6z" />
    <glyph glyph-name="z" unicode="z" horiz-adv-x="466" 
d="M60 25l308 431h-300v24h330v-25l-308 -431h316v-24h-346v25z" />
    <glyph glyph-name="braceleft" unicode="{" horiz-adv-x="287" 
d="M146.5 -78q-15.5 18 -15.5 58v261q0 47 -19.5 70t-60.5 23h-11v24h11q41 0 60.5 23t19.5 70v260q0 40 15.5 58t47.5 18h43v-24h-37q-24 0 -32.5 -11.5t-8.5 -41.5v-257q0 -44 -15 -70t-47 -36v-2q62 -16 62 -106v-258q0 -30 8.5 -41.5t32.5 -11.5h37v-24h-43
q-32 0 -47.5 18z" />
    <glyph glyph-name="bar" unicode="|" horiz-adv-x="148" 
d="M60 812h28v-956h-28v956z" />
    <glyph glyph-name="braceright" unicode="}" horiz-adv-x="287" 
d="M50 -72h37q24 0 32.5 11.5t8.5 41.5v258q0 90 62 106v2q-32 10 -47 36t-15 70v257q0 30 -8.5 41.5t-32.5 11.5h-37v24h43q32 0 47.5 -18t15.5 -58v-260q0 -47 19.5 -70t60.5 -23h11v-24h-11q-41 0 -60.5 -23t-19.5 -70v-261q0 -40 -15.5 -58t-47.5 -18h-43v24z" />
    <glyph glyph-name="asciitilde" unicode="~" horiz-adv-x="577" 
d="M60 345q12 26 42.5 41.5t67.5 15.5q33 0 61 -8.5t64 -25.5q34 -15 58.5 -23t53.5 -8q35 0 61.5 14t48.5 51v-32q-12 -26 -42.5 -41.5t-67.5 -15.5q-32 0 -58.5 8.5t-59.5 24.5q-36 16 -62 24t-57 8q-35 0 -61.5 -14t-48.5 -51v32z" />
    <glyph glyph-name="uni00A0" unicode="&#xa0;" horiz-adv-x="400" 
 />
    <glyph glyph-name="exclamdown" unicode="&#xa1;" horiz-adv-x="172" 
d="M68 506q-8 8 -8 18q0 11 8 18.5t18 7.5q11 0 18.5 -7.5t7.5 -18.5q0 -10 -7.5 -18t-18.5 -8q-10 0 -18 8zM72 359h28v-523h-28v523z" />
    <glyph glyph-name="cent" unicode="&#xa2;" horiz-adv-x="546" 
d="M291 -14q-65 4 -117.5 36t-83 88t-30.5 129q0 72 30.5 128.5t83 89.5t117.5 37v87h28v-86q101 -2 160 -44v-25q-33 23 -72.5 33.5t-87.5 11.5v-462q53 1 91 12.5t76 36.5v-25q-64 -47 -167 -48v-86h-28v87zM291 470q-58 -4 -104.5 -33.5t-73.5 -80.5t-27 -117t27 -116.5
t73.5 -79.5t104.5 -34v461z" />
    <glyph glyph-name="sterling" unicode="&#xa3;" horiz-adv-x="489" 
d="M60 24h89v352h-79v24h79v159q0 75 43.5 115t111.5 40q32 0 59 -6v-25q-22 7 -50 7q-64 0 -100 -33.5t-36 -95.5v-161h212v-24h-212v-352h252v-24h-369v24z" />
    <glyph glyph-name="currency" unicode="&#xa4;" horiz-adv-x="569" 
d="M60 93l85 65q-39 47 -39 111t39 111l-85 65l15 20l86 -67q25 24 56.5 37t66.5 13t66.5 -13t56.5 -37l87 67l15 -20l-85 -65q39 -49 39 -111t-39 -112l85 -64l-15 -20l-86 66q-25 -23 -56.5 -36t-66.5 -13t-67 13t-57 36l-86 -66zM361 135q35 21 55.5 56.5t20.5 77.5
t-20.5 77.5t-56 56.5t-76.5 21q-42 0 -76.5 -21t-55 -56.5t-20.5 -77.5t20.5 -77.5t55.5 -56.5t76 -21q42 0 77 21z" />
    <glyph glyph-name="yen" unicode="&#xa5;" horiz-adv-x="658" 
d="M315 136h-148v24h148v101h-148v24h136l-243 414h28l241 -410l241 409h28l-243 -413h136v-24h-148v-101h148v-24h-148v-136h-28v136z" />
    <glyph glyph-name="brokenbar" unicode="&#xa6;" horiz-adv-x="148" 
d="M60 812h28v-363h-28v363zM60 220h28v-364h-28v364z" />
    <glyph glyph-name="section" unicode="&#xa7;" horiz-adv-x="544" 
d="M145.5 -161q-51.5 9 -85.5 23v25q85 -33 191 -33q207 0 207 152q0 50 -20.5 82t-61 54.5t-118.5 50.5q-101 37 -145 81.5t-44 117.5q0 40 17 74q-17 33 -17 81q0 76 57.5 121.5t153.5 45.5q51 0 92.5 -7.5t82.5 -24.5v-25q-42 17 -84 25t-91 8q-87 0 -136 -40t-49 -103
q0 -44 17 -74.5t56 -56t110 -51.5q77 -29 117 -50t64.5 -57.5t24.5 -96.5q0 -41 -16 -76q16 -35 16 -79q0 -85 -59.5 -130.5t-173.5 -45.5q-54 0 -105.5 9zM458 161q0 50 -20.5 82t-61 54.5t-118.5 50.5q-57 21 -95 43t-60 49q-8 -24 -8 -48q0 -44 17 -74.5t56 -56
t110 -51.5q72 -27 111 -47t63 -50q6 21 6 48z" />
    <glyph glyph-name="dieresis" unicode="&#xa8;" horiz-adv-x="378" 
d="M69 619q-9 9 -9 21t9 21t21 9t21 -9t9 -21t-9 -21t-21 -9t-21 9zM267 619q-9 9 -9 21t9 21t21 9t21 -9t9 -21t-9 -21t-21 -9t-21 9z" />
    <glyph glyph-name="copyright" unicode="&#xa9;" horiz-adv-x="842" 
d="M236.5 30.5q-82.5 45.5 -129.5 128.5t-47 190t47 190t129.5 129t184.5 46t184.5 -46t129.5 -129t47 -190t-47 -190t-129.5 -128.5t-184.5 -45.5t-184.5 45.5zM589.5 50.5q76.5 41.5 121.5 119t45 179.5t-44 179.5t-120.5 119.5t-170.5 42t-170.5 -42t-120.5 -119.5
t-44 -179.5t45 -179.5t121.5 -119t168.5 -41.5t168.5 41.5zM291 125q-57 31 -90.5 89t-33.5 134t33.5 134t92 90t128.5 32q53 0 92.5 -10t72.5 -34v-25q-35 25 -74 35t-91 10q-64 0 -116 -28t-82 -81t-30 -123t29.5 -122t81 -80t113.5 -28q57 0 97 11.5t79 37.5v-25
q-34 -25 -77 -36.5t-99 -11.5q-69 0 -126 31z" />
    <glyph glyph-name="ordfeminine" unicode="&#xaa;" horiz-adv-x="419" 
d="M96 377q-36 28 -36 80q0 55 34 83t95 28q82 0 142 -33v52q0 53 -29 78t-92 25q-56 0 -108 -21v25q21 9 50.5 14.5t57.5 5.5q75 0 112 -33t37 -95v-226h-26v48q-48 -59 -143 -59q-58 0 -94 28zM278 391q35 18 53 51v69q-33 17 -66 25t-75 8q-104 0 -104 -87
q0 -40 27.5 -62t79.5 -22q50 0 85 18z" />
    <glyph glyph-name="guillemotleft" unicode="&#xab;" horiz-adv-x="514" 
d="M60 311v22l217 171l13 -18l-208 -164l208 -164l-13 -18zM224 311v22l217 171l13 -18l-208 -164l208 -164l-13 -18z" />
    <glyph glyph-name="logicalnot" unicode="&#xac;" horiz-adv-x="423" 
d="M339 281h-279v24h303v-163h-24v139z" />
    <glyph glyph-name="uni00AD" unicode="&#xad;" horiz-adv-x="403" 
d="M60 305h283v-24h-283v24z" />
    <glyph glyph-name="registered" unicode="&#xae;" horiz-adv-x="842" 
d="M236.5 30.5q-82.5 45.5 -129.5 128.5t-47 190t47 190t129.5 129t184.5 46t184.5 -46t129.5 -129t47 -190t-47 -190t-129.5 -128.5t-184.5 -45.5t-184.5 45.5zM589.5 50.5q76.5 41.5 121.5 119t45 179.5t-44 179.5t-120.5 119.5t-170.5 42t-170.5 -42t-120.5 -119.5
t-44 -179.5t45 -179.5t121.5 -119t168.5 -41.5t168.5 41.5zM263 616h189q80 0 116.5 -33t36.5 -105q0 -60 -35.5 -97t-112.5 -38l144 -255h-25l-144 255h-144v-255h-25v528zM454 364q61 0 94.5 28.5t33.5 85.5q0 65 -32 90.5t-95 25.5h-167v-230h166z" />
    <glyph glyph-name="macron" unicode="&#xaf;" horiz-adv-x="398" 
d="M60 659h278v-24h-278v24z" />
    <glyph glyph-name="degree" unicode="&#xb0;" horiz-adv-x="408" 
d="M132 458.5q-33 19.5 -52.5 52.5t-19.5 72t19.5 72t52.5 52.5t72 19.5t72 -19.5t52.5 -52.5t19.5 -72t-19.5 -72t-52.5 -52.5t-72 -19.5t-72 19.5zM290 497q35 36 35 86t-35 86t-86 36t-86 -36t-35 -86q0 -32 16.5 -60.5t44.5 -45t60 -16.5q51 0 86 36z" />
    <glyph glyph-name="plusminus" unicode="&#xb1;" horiz-adv-x="383" 
d="M179 261h-119v24h119v120h24v-120h120v-24h-120v-119h-24v119zM60 24h263v-24h-263v24z" />
    <glyph glyph-name="uni00B2" unicode="&#xb2;" horiz-adv-x="341" 
d="M60 394l97 88q6 6 39.5 35.5t45 52.5t11.5 48q0 32 -20.5 49.5t-60.5 17.5q-56 0 -93 -26v26q17 12 43.5 18t49.5 6q49 0 77.5 -24.5t28.5 -66.5q0 -29 -11.5 -52t-29 -40.5t-57.5 -54.5l-85 -77h186v-24h-221v24z" />
    <glyph glyph-name="uni00B3" unicode="&#xb3;" horiz-adv-x="340" 
d="M60 376v27q38 -19 99 -19q45 0 70.5 17.5t25.5 51.5q0 40 -22.5 56t-76.5 16h-36v24h36q43 0 66 19t23 53t-20 49t-62 15q-53 0 -94 -27v25q39 26 94 26q52 0 79.5 -23t27.5 -65q0 -33 -16.5 -53.5t-54.5 -29.5q40 -3 60.5 -25.5t20.5 -59.5q0 -43 -32 -68t-89 -25
q-58 0 -99 16z" />
    <glyph glyph-name="acute" unicode="&#xb4;" horiz-adv-x="219" 
d="M131 739h28l-77 -167h-22z" />
    <glyph glyph-name="paragraph" unicode="&#xb6;" horiz-adv-x="690" 
d="M384 278h-98q-103 0 -164.5 61t-61.5 178q0 120 65 182.5t177 62.5h328v-896h-28v872h-190v-872h-28v412z" />
    <glyph glyph-name="periodcentered" unicode="&#xb7;" horiz-adv-x="172" 
d="M68 276q-8 8 -8 18q0 11 8 18.5t18 7.5q11 0 18.5 -7.5t7.5 -18.5q0 -10 -7.5 -18t-18.5 -8q-10 0 -18 8z" />
    <glyph glyph-name="cedilla" unicode="&#xb8;" horiz-adv-x="278" 
d="M85 -245.5q-16 2.5 -25 5.5v24q9 -4 25 -6t30 -2q77 0 77 63q0 35 -23.5 51.5t-82.5 16.5l36 93h28l-29 -74q48 -2 72.5 -26t24.5 -62q0 -39 -26.5 -62.5t-76.5 -23.5q-14 0 -30 2.5z" />
    <glyph glyph-name="uni00B9" unicode="&#xb9;" horiz-adv-x="225" 
d="M158 667l-98 -72v32l98 72h27v-329h-27v297z" />
    <glyph glyph-name="ordmasculine" unicode="&#xba;" horiz-adv-x="479" 
d="M148 372q-41 23 -64.5 64t-23.5 95t23.5 95.5t64.5 64.5t92 23t91.5 -23t64 -64.5t23.5 -95.5q0 -53 -23.5 -94.5t-64 -64.5t-91.5 -23t-92 23zM351 416q43 43 43 115t-43 115.5t-111 43.5t-111 -43.5t-43 -115.5t43 -115t111 -43t111 43z" />
    <glyph glyph-name="guillemotright" unicode="&#xbb;" horiz-adv-x="514" 
d="M60 158l208 164l-208 164l13 18l217 -171v-22l-217 -171zM224 158l208 164l-208 164l13 18l217 -171v-22l-217 -171z" />
    <glyph glyph-name="onequarter" unicode="&#xbc;" horiz-adv-x="664" 
d="M158 667l-98 -72v32l98 72h27v-329h-27v297zM511 699h28l-387 -699h-28zM527 87h-171v23l165 219h33v-219h50v-23h-50v-87h-27v87zM527 110v188l-143 -188h143z" />
    <glyph glyph-name="onehalf" unicode="&#xbd;" horiz-adv-x="706" 
d="M158 667l-98 -72v32l98 72h27v-329h-27v297zM511 699h28l-387 -699h-28zM420 24l97 88q40 36 58 54.5t28 39t10 45.5q0 32 -20.5 50.5t-60.5 18.5q-56 0 -93 -26v26q17 12 43.5 18t49.5 6q49 0 77.5 -25.5t28.5 -67.5q0 -29 -11.5 -52.5t-30.5 -43.5t-56 -54l-85 -77h191
v-24h-226v24z" />
    <glyph glyph-name="threequarters" unicode="&#xbe;" horiz-adv-x="708" 
d="M60 376v27q38 -19 99 -19q45 0 70.5 17.5t25.5 51.5q0 40 -22.5 56t-76.5 16h-36v24h36q43 0 66 19t23 53t-20 49t-62 15q-53 0 -94 -27v25q39 26 94 26q52 0 79.5 -23t27.5 -65q0 -33 -16.5 -53.5t-54.5 -29.5q40 -3 60.5 -25.5t20.5 -59.5q0 -43 -32 -68t-89 -25
q-58 0 -99 16zM555 699h28l-387 -699h-28zM571 87h-171v23l165 219h33v-219h50v-23h-50v-87h-27v87zM571 110v188l-143 -188h143z" />
    <glyph glyph-name="questiondown" unicode="&#xbf;" horiz-adv-x="506" 
d="M284 506q-8 8 -8 18q0 11 8 18.5t18 7.5q11 0 18.5 -7.5t7.5 -18.5q0 -10 -7.5 -18t-18.5 -8q-10 0 -18 8zM116.5 -130q-56.5 49 -56.5 130q0 64 27 103t98 81q47 28 68 51.5t27.5 53.5t6.5 85v20h28v-20q0 -59 -8.5 -93.5t-31.5 -60t-70 -53.5q-51 -30 -76 -54
t-34 -49.5t-9 -63.5q0 -70 49 -112.5t136 -42.5q49 0 91 8t84 25v-25q-41 -17 -82.5 -24.5t-92.5 -7.5q-98 0 -154.5 49z" />
    <glyph glyph-name="Agrave" unicode="&#xc0;" horiz-adv-x="700" 
d="M245 935h28l71 -167h-22zM339 699h22l279 -699h-28l-86 215h-352l-86 -215h-28zM516 239l-166 418l-166 -418h332z" />
    <glyph glyph-name="Aacute" unicode="&#xc1;" horiz-adv-x="700" 
d="M416 935h28l-77 -167h-22zM339 699h22l279 -699h-28l-86 215h-352l-86 -215h-28zM516 239l-166 418l-166 -418h332z" />
    <glyph glyph-name="Acircumflex" unicode="&#xc2;" horiz-adv-x="700" 
d="M339 925h22l128 -151h-31l-108 129l-108 -129h-31zM339 699h22l279 -699h-28l-86 215h-352l-86 -215h-28zM516 239l-166 418l-166 -418h332z" />
    <glyph glyph-name="Atilde" unicode="&#xc3;" horiz-adv-x="700" 
d="M173 819q27 45 90 45q22 0 41.5 -6t47.5 -19q26 -12 45 -18.5t40 -6.5q27 0 49.5 12t40.5 42v-33q-27 -45 -90 -45q-25 0 -46 6.5t-47 19.5q-25 12 -42.5 18t-38.5 6q-27 0 -48.5 -12t-41.5 -42v33zM339 699h22l279 -699h-28l-86 215h-352l-86 -215h-28zM516 239
l-166 418l-166 -418h332z" />
    <glyph glyph-name="Adieresis" unicode="&#xc4;" horiz-adv-x="700" 
d="M231.5 786.5q-8.5 8.5 -8.5 19.5t8.5 19.5t19.5 8.5t19.5 -8.5t8.5 -19.5t-8.5 -19.5t-19.5 -8.5t-19.5 8.5zM429.5 786.5q-8.5 8.5 -8.5 19.5t8.5 19.5t19.5 8.5t19.5 -8.5t8.5 -19.5t-8.5 -19.5t-19.5 -8.5t-19.5 8.5zM339 699h22l279 -699h-28l-86 215h-352l-86 -215
h-28zM516 239l-166 418l-166 -418h332z" />
    <glyph glyph-name="Aring" unicode="&#xc5;" horiz-adv-x="700" 
d="M331 680q-31 6 -51.5 31t-20.5 58q0 38 27 64.5t64 26.5q38 0 64.5 -26.5t26.5 -64.5q0 -33 -21 -58t-52 -31l272 -680h-28l-86 215h-352l-86 -215h-28zM356 699q27 2 45 22.5t18 47.5q0 29 -20 49.5t-49 20.5t-49 -20.5t-20 -49.5q0 -27 18.5 -47.5t44.5 -22.5h12z
M516 239l-166 418l-166 -418h332z" />
    <glyph glyph-name="AE" unicode="&#xc6;" horiz-adv-x="917" 
d="M441 699h416v-24h-349v-313h253v-24h-253v-314h349v-24h-377v215h-275l-117 -215h-28zM480 239v436h-24l-238 -436h262z" />
    <glyph glyph-name="Ccedilla" unicode="&#xc7;" horiz-adv-x="728" 
d="M440 -15l-23 -59q48 -2 72.5 -26t24.5 -62q0 -39 -26.5 -62.5t-76.5 -23.5q-14 0 -30 2.5t-25 5.5v24q9 -4 25 -6t30 -2q77 0 77 63q0 35 -23.5 51.5t-82.5 16.5l30 78q-100 2 -180 48t-126 128.5t-46 187.5q0 107 47 190t129.5 129t184.5 46q144 0 238 -82v-30
q-46 45 -107 66.5t-131 21.5q-94 0 -170.5 -42t-120.5 -119.5t-44 -179.5t45 -179.5t121.5 -119t168.5 -41.5q77 0 137.5 21.5t109.5 71.5v-30q-82 -82 -228 -87z" />
    <glyph glyph-name="Egrave" unicode="&#xc8;" horiz-adv-x="567" 
d="M202 959h28l71 -167h-22zM80 699h427v-24h-399v-313h303v-24h-303v-314h399v-24h-427v699z" />
    <glyph glyph-name="Eacute" unicode="&#xc9;" horiz-adv-x="567" 
d="M312 959h28l-77 -167h-22zM80 699h427v-24h-399v-313h303v-24h-303v-314h399v-24h-427v699z" />
    <glyph glyph-name="Ecircumflex" unicode="&#xca;" horiz-adv-x="567" 
d="M280 925h22l128 -151h-31l-108 129l-108 -129h-31zM80 699h427v-24h-399v-313h303v-24h-303v-314h399v-24h-427v699z" />
    <glyph glyph-name="Edieresis" unicode="&#xcb;" horiz-adv-x="567" 
d="M155.5 810.5q-8.5 8.5 -8.5 19.5t8.5 19.5t19.5 8.5t19.5 -8.5t8.5 -19.5t-8.5 -19.5t-19.5 -8.5t-19.5 8.5zM353.5 810.5q-8.5 8.5 -8.5 19.5t8.5 19.5t19.5 8.5t19.5 -8.5t8.5 -19.5t-8.5 -19.5t-19.5 -8.5t-19.5 8.5zM80 699h427v-24h-399v-313h303v-24h-303v-314h399
v-24h-427v699z" />
    <glyph glyph-name="Igrave" unicode="&#xcc;" horiz-adv-x="188" 
d="M9 959h28l71 -167h-22zM80 699h28v-699h-28v699z" />
    <glyph glyph-name="Iacute" unicode="&#xcd;" horiz-adv-x="188" 
d="M155 935h28l-77 -167h-22zM80 699h28v-699h-28v699z" />
    <glyph glyph-name="Icircumflex" unicode="&#xce;" horiz-adv-x="188" 
d="M83 925h22l128 -151h-31l-108 129l-108 -129h-31zM80 699h28v-699h-28v699z" />
    <glyph glyph-name="Idieresis" unicode="&#xcf;" horiz-adv-x="188" 
d="M-24.5 810.5q-8.5 8.5 -8.5 19.5t8.5 19.5t19.5 8.5t19.5 -8.5t8.5 -19.5t-8.5 -19.5t-19.5 -8.5t-19.5 8.5zM173.5 810.5q-8.5 8.5 -8.5 19.5t8.5 19.5t19.5 8.5t19.5 -8.5t8.5 -19.5t-8.5 -19.5t-19.5 -8.5t-19.5 8.5zM80 699h28v-699h-28v699z" />
    <glyph glyph-name="Eth" unicode="&#xd0;" horiz-adv-x="715" 
d="M119 337h-79v24h79v338h199q111 0 191.5 -42t123 -120t42.5 -184q0 -174 -99 -263.5t-280 -89.5h-177v337zM285 24q364 0 364 329q0 153 -88.5 237.5t-249.5 84.5h-164v-314h226v-24h-226v-313h138z" />
    <glyph glyph-name="Ntilde" unicode="&#xd1;" horiz-adv-x="663" 
d="M159 843q27 45 90 45q22 0 41.5 -6t47.5 -19q26 -12 44.5 -18.5t40.5 -6.5q27 0 49.5 12t40.5 42v-33q-27 -45 -90 -45q-25 0 -46 6.5t-47 19.5q-25 12 -42.5 18t-38.5 6q-27 0 -48.5 -12t-41.5 -42v33zM80 699h25l450 -647v647h28v-699h-24l-451 649v-649h-28v699z" />
    <glyph glyph-name="Ograve" unicode="&#xd2;" horiz-adv-x="842" 
d="M354 959h28l71 -167h-22zM236.5 30.5q-82.5 45.5 -129.5 128.5t-47 190t47 190t129.5 129t184.5 46t184.5 -46t129.5 -129t47 -190t-47 -190t-129.5 -128.5t-184.5 -45.5t-184.5 45.5zM589.5 50.5q76.5 41.5 121.5 119t45 179.5t-44 179.5t-120.5 119.5t-170.5 42
t-170.5 -42t-120.5 -119.5t-44 -179.5t45 -179.5t121.5 -119t168.5 -41.5t168.5 41.5z" />
    <glyph glyph-name="Oacute" unicode="&#xd3;" horiz-adv-x="842" 
d="M463 959h28l-77 -167h-22zM236.5 30.5q-82.5 45.5 -129.5 128.5t-47 190t47 190t129.5 129t184.5 46t184.5 -46t129.5 -129t47 -190t-47 -190t-129.5 -128.5t-184.5 -45.5t-184.5 45.5zM589.5 50.5q76.5 41.5 121.5 119t45 179.5t-44 179.5t-120.5 119.5t-170.5 42
t-170.5 -42t-120.5 -119.5t-44 -179.5t45 -179.5t121.5 -119t168.5 -41.5t168.5 41.5z" />
    <glyph glyph-name="Ocircumflex" unicode="&#xd4;" horiz-adv-x="842" 
d="M405 949h22l128 -151h-31l-108 129l-108 -129h-31zM236.5 30.5q-82.5 45.5 -129.5 128.5t-47 190t47 190t129.5 129t184.5 46t184.5 -46t129.5 -129t47 -190t-47 -190t-129.5 -128.5t-184.5 -45.5t-184.5 45.5zM589.5 50.5q76.5 41.5 121.5 119t45 179.5t-44 179.5
t-120.5 119.5t-170.5 42t-170.5 -42t-120.5 -119.5t-44 -179.5t45 -179.5t121.5 -119t168.5 -41.5t168.5 41.5z" />
    <glyph glyph-name="Otilde" unicode="&#xd5;" horiz-adv-x="842" 
d="M244 843q27 45 90 45q22 0 41.5 -6t47.5 -19q26 -12 44.5 -18.5t40.5 -6.5q27 0 49.5 12t40.5 42v-33q-27 -45 -90 -45q-25 0 -46 6.5t-47 19.5q-25 12 -42.5 18t-38.5 6q-27 0 -48.5 -12t-41.5 -42v33zM236.5 30.5q-82.5 45.5 -129.5 128.5t-47 190t47 190t129.5 129
t184.5 46t184.5 -46t129.5 -129t47 -190t-47 -190t-129.5 -128.5t-184.5 -45.5t-184.5 45.5zM589.5 50.5q76.5 41.5 121.5 119t45 179.5t-44 179.5t-120.5 119.5t-170.5 42t-170.5 -42t-120.5 -119.5t-44 -179.5t45 -179.5t121.5 -119t168.5 -41.5t168.5 41.5z" />
    <glyph glyph-name="Odieresis" unicode="&#xd6;" horiz-adv-x="842" 
d="M302.5 810.5q-8.5 8.5 -8.5 19.5t8.5 19.5t19.5 8.5t19.5 -8.5t8.5 -19.5t-8.5 -19.5t-19.5 -8.5t-19.5 8.5zM500.5 810.5q-8.5 8.5 -8.5 19.5t8.5 19.5t19.5 8.5t19.5 -8.5t8.5 -19.5t-8.5 -19.5t-19.5 -8.5t-19.5 8.5zM236.5 30.5q-82.5 45.5 -129.5 128.5t-47 190
t47 190t129.5 129t184.5 46t184.5 -46t129.5 -129t47 -190t-47 -190t-129.5 -128.5t-184.5 -45.5t-184.5 45.5zM589.5 50.5q76.5 41.5 121.5 119t45 179.5t-44 179.5t-120.5 119.5t-170.5 42t-170.5 -42t-120.5 -119.5t-44 -179.5t45 -179.5t121.5 -119t168.5 -41.5
t168.5 41.5z" />
    <glyph glyph-name="multiply" unicode="&#xd7;" horiz-adv-x="338" 
d="M61 202l91 91l-92 92l17 17l92 -92l92 92l17 -17l-92 -92l91 -91l-17 -17l-91 91l-91 -91z" />
    <glyph glyph-name="Oslash" unicode="&#xd8;" horiz-adv-x="842" 
d="M278 11q-100 39 -159 128t-59 210q0 107 47 190t129.5 129t184.5 46q67 0 131 -22l37 92h28l-41 -101q95 -41 150.5 -129t55.5 -205q0 -107 -47 -190t-129.5 -128.5t-184.5 -45.5q-62 0 -119 17l-35 -88h-28zM543 669q-57 21 -122 21q-94 0 -170.5 -42t-120.5 -119.5
t-44 -179.5q0 -114 55 -196.5t146 -118.5zM589.5 50.5q76.5 41.5 121.5 119t45 179.5q0 110 -51.5 191t-137.5 120l-256 -635q51 -16 110 -16q92 0 168.5 41.5z" />
    <glyph glyph-name="Ugrave" unicode="&#xd9;" horiz-adv-x="670" 
d="M259 959h28l71 -167h-22zM141 48.5q-66 63.5 -66 180.5v470h28v-480q0 -107 63 -158.5t169 -51.5t169 51.5t63 158.5v480h28v-470q0 -117 -66 -180.5t-194 -63.5t-194 63.5z" />
    <glyph glyph-name="Uacute" unicode="&#xda;" horiz-adv-x="670" 
d="M388 959h28l-77 -167h-22zM141 48.5q-66 63.5 -66 180.5v470h28v-480q0 -107 63 -158.5t169 -51.5t169 51.5t63 158.5v480h28v-470q0 -117 -66 -180.5t-194 -63.5t-194 63.5z" />
    <glyph glyph-name="Ucircumflex" unicode="&#xdb;" horiz-adv-x="670" 
d="M324 949h22l128 -151h-31l-108 129l-108 -129h-31zM141 48.5q-66 63.5 -66 180.5v470h28v-480q0 -107 63 -158.5t169 -51.5t169 51.5t63 158.5v480h28v-470q0 -117 -66 -180.5t-194 -63.5t-194 63.5z" />
    <glyph glyph-name="Udieresis" unicode="&#xdc;" horiz-adv-x="670" 
d="M216.5 810.5q-8.5 8.5 -8.5 19.5t8.5 19.5t19.5 8.5t19.5 -8.5t8.5 -19.5t-8.5 -19.5t-19.5 -8.5t-19.5 8.5zM414.5 810.5q-8.5 8.5 -8.5 19.5t8.5 19.5t19.5 8.5t19.5 -8.5t8.5 -19.5t-8.5 -19.5t-19.5 -8.5t-19.5 8.5zM141 48.5q-66 63.5 -66 180.5v470h28v-480
q0 -107 63 -158.5t169 -51.5t169 51.5t63 158.5v480h28v-470q0 -117 -66 -180.5t-194 -63.5t-194 63.5z" />
    <glyph glyph-name="Yacute" unicode="&#xdd;" horiz-adv-x="658" 
d="M381 959h28l-77 -167h-22zM315 265l-255 434h28l241 -410l241 410h28l-255 -434v-265h-28v265z" />
    <glyph glyph-name="Thorn" unicode="&#xde;" horiz-adv-x="590" 
d="M80 699h28v-166h211q105 0 158 -43.5t53 -139.5t-53 -139.5t-158 -43.5h-211v-167h-28v699zM322 191q86 0 134 34.5t48 124.5t-48 124.5t-134 34.5h-214v-318h214z" />
    <glyph glyph-name="germandbls" unicode="&#xdf;" horiz-adv-x="590" 
d="M182 6v24q32 -12 63 -17t76 -5q83 0 133 54.5t50 141.5q0 90 -61 134.5t-146 44.5h-36v24h42q54 0 89.5 44.5t35.5 114.5q0 69 -46 112t-116 43t-116.5 -46t-46.5 -150v-525h-28v522q0 116 53 169t138 53q59 0 101.5 -24.5t64.5 -65t22 -88.5q0 -63 -27 -107t-74 -62
q74 -10 125.5 -58t51.5 -135q0 -61 -23 -110.5t-70 -79t-116 -29.5q-89 0 -139 21z" />
    <glyph glyph-name="agrave" unicode="&#xe0;" horiz-adv-x="554" 
d="M227 729h28l71 -167h-22zM110.5 23.5q-50.5 38.5 -50.5 110.5q0 151 190 151q118 0 201 -49v81q0 78 -41.5 116t-133.5 38q-78 0 -150 -29v25q29 12 70 20t80 8q203 0 203 -179v-316h-25v77q-65 -92 -208 -92q-85 0 -135.5 38.5zM373.5 36q52.5 27 77.5 75v101
q-48 26 -94 37.5t-107 11.5q-88 0 -126 -31.5t-38 -95.5q0 -60 41.5 -92.5t126.5 -32.5q67 0 119.5 27z" />
    <glyph glyph-name="aacute" unicode="&#xe1;" horiz-adv-x="554" 
d="M343 729h28l-77 -167h-22zM110.5 23.5q-50.5 38.5 -50.5 110.5q0 151 190 151q118 0 201 -49v81q0 78 -41.5 116t-133.5 38q-78 0 -150 -29v25q29 12 70 20t80 8q203 0 203 -179v-316h-25v77q-65 -92 -208 -92q-85 0 -135.5 38.5zM373.5 36q52.5 27 77.5 75v101
q-48 26 -94 37.5t-107 11.5q-88 0 -126 -31.5t-38 -95.5q0 -60 41.5 -92.5t126.5 -32.5q67 0 119.5 27z" />
    <glyph glyph-name="acircumflex" unicode="&#xe2;" horiz-adv-x="554" 
d="M275 713h22l128 -151h-31l-108 129l-108 -129h-31zM110.5 23.5q-50.5 38.5 -50.5 110.5q0 151 190 151q118 0 201 -49v81q0 78 -41.5 116t-133.5 38q-78 0 -150 -29v25q29 12 70 20t80 8q203 0 203 -179v-316h-25v77q-65 -92 -208 -92q-85 0 -135.5 38.5zM373.5 36
q52.5 27 77.5 75v101q-48 26 -94 37.5t-107 11.5q-88 0 -126 -31.5t-38 -95.5q0 -60 41.5 -92.5t126.5 -32.5q67 0 119.5 27z" />
    <glyph glyph-name="atilde" unicode="&#xe3;" horiz-adv-x="554" 
d="M118 595q27 45 90 45q22 0 41.5 -6t47.5 -19q26 -12 44.5 -18.5t40.5 -6.5q27 0 49.5 12t40.5 42v-33q-27 -45 -90 -45q-25 0 -46 6.5t-47 19.5q-25 12 -42.5 18t-38.5 6q-27 0 -48.5 -12t-41.5 -42v33zM110.5 23.5q-50.5 38.5 -50.5 110.5q0 151 190 151q118 0 201 -49
v81q0 78 -41.5 116t-133.5 38q-78 0 -150 -29v25q29 12 70 20t80 8q203 0 203 -179v-316h-25v77q-65 -92 -208 -92q-85 0 -135.5 38.5zM373.5 36q52.5 27 77.5 75v101q-48 26 -94 37.5t-107 11.5q-88 0 -126 -31.5t-38 -95.5q0 -60 41.5 -92.5t126.5 -32.5q67 0 119.5 27z
" />
    <glyph glyph-name="adieresis" unicode="&#xe4;" horiz-adv-x="554" 
d="M177.5 580.5q-8.5 8.5 -8.5 19.5t8.5 19.5t19.5 8.5t19.5 -8.5t8.5 -19.5t-8.5 -19.5t-19.5 -8.5t-19.5 8.5zM375.5 580.5q-8.5 8.5 -8.5 19.5t8.5 19.5t19.5 8.5t19.5 -8.5t8.5 -19.5t-8.5 -19.5t-19.5 -8.5t-19.5 8.5zM110.5 23.5q-50.5 38.5 -50.5 110.5
q0 151 190 151q118 0 201 -49v81q0 78 -41.5 116t-133.5 38q-78 0 -150 -29v25q29 12 70 20t80 8q203 0 203 -179v-316h-25v77q-65 -92 -208 -92q-85 0 -135.5 38.5zM373.5 36q52.5 27 77.5 75v101q-48 26 -94 37.5t-107 11.5q-88 0 -126 -31.5t-38 -95.5q0 -60 41.5 -92.5
t126.5 -32.5q67 0 119.5 27z" />
    <glyph glyph-name="aring" unicode="&#xe5;" horiz-adv-x="554" 
d="M234 569q-27 27 -27 64q0 38 27 64.5t64 26.5q38 0 64.5 -26.5t26.5 -64.5q0 -37 -26.5 -64t-64.5 -27q-37 0 -64 27zM347 583.5q20 20.5 20 49.5t-20 49.5t-49 20.5t-49 -20.5t-20 -49.5t20.5 -49.5t48.5 -20.5q29 0 49 20.5zM110.5 23.5q-50.5 38.5 -50.5 110.5
q0 151 190 151q118 0 201 -49v81q0 78 -41.5 116t-133.5 38q-78 0 -150 -29v25q29 12 70 20t80 8q203 0 203 -179v-316h-25v77q-65 -92 -208 -92q-85 0 -135.5 38.5zM373.5 36q52.5 27 77.5 75v101q-48 26 -94 37.5t-107 11.5q-88 0 -126 -31.5t-38 -95.5q0 -60 41.5 -92.5
t126.5 -32.5q67 0 119.5 27z" />
    <glyph glyph-name="ae" unicode="&#xe6;" horiz-adv-x="1001" 
d="M110.5 23.5q-50.5 38.5 -50.5 110.5q0 151 190 151q118 0 201 -49v81q0 78 -41.5 116t-133.5 38q-78 0 -150 -29v25q29 12 70 20t80 8q174 0 198 -136q27 64 84 100t139 36q79 0 134 -31t82.5 -85t27.5 -124v-25h-462q0 -110 65.5 -166t176.5 -56q46 0 90.5 8.5
t78.5 21.5v-24q-28 -12 -76.5 -20.5t-92.5 -8.5q-96 0 -159 37.5t-89 109.5q-22 -73 -75 -110t-152 -37q-85 0 -135.5 38.5zM916 253q0 99 -54.5 159t-164.5 60q-107 0 -162.5 -61t-55.5 -158h437zM399 51q52 42 52 122v39q-48 26 -94 37.5t-107 11.5q-88 0 -126 -31.5
t-38 -95.5q0 -60 41.5 -92.5t126.5 -32.5q93 0 145 42z" />
    <glyph glyph-name="ccedilla" unicode="&#xe7;" horiz-adv-x="546" 
d="M415 -2q-39 -12 -90 -13l-23 -59q48 -2 72.5 -26t24.5 -62q0 -39 -26.5 -62.5t-76.5 -23.5q-14 0 -30 2.5t-25 5.5v24q9 -4 25 -6t30 -2q77 0 77 63q0 35 -23.5 51.5t-82.5 16.5l30 78q-66 3 -120 35t-85.5 88.5t-31.5 130.5q0 76 33.5 134t92 90t128.5 32q53 0 92.5 -10
t72.5 -34v-25q-35 25 -74 35t-91 10q-64 0 -116 -28t-82 -81t-30 -123t29.5 -122t81 -80t113.5 -28q57 0 97 11.5t79 37.5v-25q-32 -23 -71 -35z" />
    <glyph glyph-name="egrave" unicode="&#xe8;" horiz-adv-x="607" 
d="M235 729h28l71 -167h-22zM129.5 52q-69.5 67 -69.5 188q0 118 63.5 186.5t179.5 68.5q79 0 134 -31t82.5 -85t27.5 -124v-25h-462q0 -108 65 -165t177 -57q46 0 90.5 8.5t78.5 21.5v-24q-28 -12 -76.5 -20.5t-92.5 -8.5q-128 0 -197.5 67zM522 253q0 99 -54.5 159
t-164.5 60q-109 0 -163.5 -62t-54.5 -157h437z" />
    <glyph glyph-name="eacute" unicode="&#xe9;" horiz-adv-x="607" 
d="M345 729h28l-77 -167h-22zM129.5 52q-69.5 67 -69.5 188q0 118 63.5 186.5t179.5 68.5q79 0 134 -31t82.5 -85t27.5 -124v-25h-462q0 -108 65 -165t177 -57q46 0 90.5 8.5t78.5 21.5v-24q-28 -12 -76.5 -20.5t-92.5 -8.5q-128 0 -197.5 67zM522 253q0 99 -54.5 159
t-164.5 60q-109 0 -163.5 -62t-54.5 -157h437z" />
    <glyph glyph-name="ecircumflex" unicode="&#xea;" horiz-adv-x="607" 
d="M295 713h22l128 -151h-31l-108 129l-108 -129h-31zM129.5 52q-69.5 67 -69.5 188q0 118 63.5 186.5t179.5 68.5q79 0 134 -31t82.5 -85t27.5 -124v-25h-462q0 -108 65 -165t177 -57q46 0 90.5 8.5t78.5 21.5v-24q-28 -12 -76.5 -20.5t-92.5 -8.5q-128 0 -197.5 67z
M522 253q0 99 -54.5 159t-164.5 60q-109 0 -163.5 -62t-54.5 -157h437z" />
    <glyph glyph-name="edieresis" unicode="&#xeb;" horiz-adv-x="607" 
d="M188.5 580.5q-8.5 8.5 -8.5 19.5t8.5 19.5t19.5 8.5t19.5 -8.5t8.5 -19.5t-8.5 -19.5t-19.5 -8.5t-19.5 8.5zM386.5 580.5q-8.5 8.5 -8.5 19.5t8.5 19.5t19.5 8.5t19.5 -8.5t8.5 -19.5t-8.5 -19.5t-19.5 -8.5t-19.5 8.5zM129.5 52q-69.5 67 -69.5 188q0 118 63.5 186.5
t179.5 68.5q79 0 134 -31t82.5 -85t27.5 -124v-25h-462q0 -108 65 -165t177 -57q46 0 90.5 8.5t78.5 21.5v-24q-28 -12 -76.5 -20.5t-92.5 -8.5q-128 0 -197.5 67zM522 253q0 99 -54.5 159t-164.5 60q-109 0 -163.5 -62t-54.5 -157h437z" />
    <glyph glyph-name="igrave" unicode="&#xec;" horiz-adv-x="188" 
d="M10 729h28l71 -167h-22zM80 480h28v-480h-28v480z" />
    <glyph glyph-name="iacute" unicode="&#xed;" horiz-adv-x="188" 
d="M156 729h28l-77 -167h-22zM80 480h28v-480h-28v480z" />
    <glyph glyph-name="icircumflex" unicode="&#xee;" horiz-adv-x="188" 
d="M83 713h22l128 -151h-31l-108 129l-108 -129h-31zM80 480h28v-480h-28v480z" />
    <glyph glyph-name="idieresis" unicode="&#xef;" horiz-adv-x="188" 
d="M-24.5 580.5q-8.5 8.5 -8.5 19.5t8.5 19.5t19.5 8.5t19.5 -8.5t8.5 -19.5t-8.5 -19.5t-19.5 -8.5t-19.5 8.5zM173.5 580.5q-8.5 8.5 -8.5 19.5t8.5 19.5t19.5 8.5t19.5 -8.5t8.5 -19.5t-8.5 -19.5t-19.5 -8.5t-19.5 8.5zM80 480h28v-480h-28v480z" />
    <glyph glyph-name="eth" unicode="&#xf0;" horiz-adv-x="600" 
d="M168 13.5q-51 28.5 -79.5 79.5t-28.5 117t28.5 117.5t80 80t117.5 28.5q73 0 129 -38t81 -103q-4 123 -18 200t-48 123l-185 -82v24l170 75q-52 55 -153 55q-42 0 -67 -6v25q30 5 69 5q117 0 176 -68l100 45v-24l-86 -39q37 -53 52 -142.5t15 -222.5q0 -89 -32 -152
t-85.5 -94.5t-117.5 -31.5q-67 0 -118 28.5zM391 37q46 28 71 74.5t25 98.5q0 57 -27 103.5t-73 72.5t-101 26q-60 0 -106 -25t-71 -71t-25 -106q0 -91 55.5 -146t146.5 -55q59 0 105 28z" />
    <glyph glyph-name="ntilde" unicode="&#xf1;" horiz-adv-x="573" 
d="M116 595q27 45 90 45q22 0 41.5 -6t47.5 -19q26 -12 45 -18.5t40 -6.5q27 0 49.5 12t40.5 42v-33q-27 -45 -90 -45q-25 0 -46 6.5t-47 19.5q-25 12 -42.5 18t-38.5 6q-27 0 -48.5 -12t-41.5 -42v33zM80 480h28v-89q39 55 93 79.5t114 24.5q93 0 138 -47.5t45 -128.5v-319
h-28v318q0 74 -36.5 113.5t-118.5 39.5q-128 0 -207 -118v-353h-28v480z" />
    <glyph glyph-name="ograve" unicode="&#xf2;" horiz-adv-x="622" 
d="M224 729h28l71 -167h-22zM182 17q-57 32 -89.5 90t-32.5 133t32.5 133t89.5 90t129 32t129 -32t89.5 -90t32.5 -133t-32.5 -133t-89.5 -90t-129 -32t-129 32zM427 37.5q51 28.5 80 80.5t29 122q0 69 -29 121.5t-80 81t-116 28.5t-116 -28.5t-80 -81t-29 -121.5
q0 -70 29 -122t80 -80.5t116 -28.5t116 28.5z" />
    <glyph glyph-name="oacute" unicode="&#xf3;" horiz-adv-x="622" 
d="M343 729h28l-77 -167h-22zM182 17q-57 32 -89.5 90t-32.5 133t32.5 133t89.5 90t129 32t129 -32t89.5 -90t32.5 -133t-32.5 -133t-89.5 -90t-129 -32t-129 32zM427 37.5q51 28.5 80 80.5t29 122q0 69 -29 121.5t-80 81t-116 28.5t-116 -28.5t-80 -81t-29 -121.5
q0 -70 29 -122t80 -80.5t116 -28.5t116 28.5z" />
    <glyph glyph-name="ocircumflex" unicode="&#xf4;" horiz-adv-x="622" 
d="M300 713h22l128 -151h-31l-108 129l-108 -129h-31zM182 17q-57 32 -89.5 90t-32.5 133t32.5 133t89.5 90t129 32t129 -32t89.5 -90t32.5 -133t-32.5 -133t-89.5 -90t-129 -32t-129 32zM427 37.5q51 28.5 80 80.5t29 122q0 69 -29 121.5t-80 81t-116 28.5t-116 -28.5
t-80 -81t-29 -121.5q0 -70 29 -122t80 -80.5t116 -28.5t116 28.5z" />
    <glyph glyph-name="otilde" unicode="&#xf5;" horiz-adv-x="622" 
d="M134 595q27 45 90 45q22 0 41.5 -6t47.5 -19q26 -12 45 -18.5t40 -6.5q27 0 49.5 12t40.5 42v-33q-27 -45 -90 -45q-25 0 -46 6.5t-47 19.5q-25 12 -42.5 18t-38.5 6q-27 0 -48.5 -12t-41.5 -42v33zM182 17q-57 32 -89.5 90t-32.5 133t32.5 133t89.5 90t129 32t129 -32
t89.5 -90t32.5 -133t-32.5 -133t-89.5 -90t-129 -32t-129 32zM427 37.5q51 28.5 80 80.5t29 122q0 69 -29 121.5t-80 81t-116 28.5t-116 -28.5t-80 -81t-29 -121.5q0 -70 29 -122t80 -80.5t116 -28.5t116 28.5z" />
    <glyph glyph-name="odieresis" unicode="&#xf6;" horiz-adv-x="622" 
d="M192.5 580.5q-8.5 8.5 -8.5 19.5t8.5 19.5t19.5 8.5t19.5 -8.5t8.5 -19.5t-8.5 -19.5t-19.5 -8.5t-19.5 8.5zM390.5 580.5q-8.5 8.5 -8.5 19.5t8.5 19.5t19.5 8.5t19.5 -8.5t8.5 -19.5t-8.5 -19.5t-19.5 -8.5t-19.5 8.5zM182 17q-57 32 -89.5 90t-32.5 133t32.5 133
t89.5 90t129 32t129 -32t89.5 -90t32.5 -133t-32.5 -133t-89.5 -90t-129 -32t-129 32zM427 37.5q51 28.5 80 80.5t29 122q0 69 -29 121.5t-80 81t-116 28.5t-116 -28.5t-80 -81t-29 -121.5q0 -70 29 -122t80 -80.5t116 -28.5t116 28.5z" />
    <glyph glyph-name="divide" unicode="&#xf7;" horiz-adv-x="402" 
d="M183 396q-8 8 -8 18q0 11 8 18.5t18 7.5q11 0 18.5 -7.5t7.5 -18.5q0 -10 -7.5 -18t-18.5 -8q-10 0 -18 8zM60 305h282v-24h-282v24zM183 154q-8 8 -8 18q0 11 8 18.5t18 7.5q11 0 18.5 -7.5t7.5 -18.5q0 -10 -7.5 -18t-18.5 -8q-10 0 -18 8z" />
    <glyph glyph-name="oslash" unicode="&#xf8;" horiz-adv-x="622" 
d="M206 5q-67 28 -106.5 90t-39.5 145q0 75 32.5 133t90 90t128.5 32q44 0 86 -14l34 85h28l-38 -94q65 -30 103 -90.5t38 -141.5q0 -75 -32.5 -133t-90 -90t-128.5 -32q-42 0 -80 12l-33 -83h-28zM388 459q-36 12 -77 12q-65 0 -116 -28.5t-80 -81t-29 -121.5
q0 -77 34.5 -132.5t94.5 -80.5zM427 37.5q51 28.5 80 80.5t29 122q0 74 -33.5 128.5t-90.5 81.5l-172 -431q31 -10 71 -10q65 0 116 28.5z" />
    <glyph glyph-name="ugrave" unicode="&#xf9;" horiz-adv-x="573" 
d="M222 729h28l71 -167h-22zM123.5 34.5q-48.5 49.5 -48.5 131.5v314h28v-312q0 -74 40 -116.5t125 -42.5q63 0 110.5 28t86.5 90v353h28v-480h-28v89q-70 -104 -197 -104q-96 0 -144.5 49.5z" />
    <glyph glyph-name="uacute" unicode="&#xfa;" horiz-adv-x="573" 
d="M342 729h28l-77 -167h-22zM123.5 34.5q-48.5 49.5 -48.5 131.5v314h28v-312q0 -74 40 -116.5t125 -42.5q63 0 110.5 28t86.5 90v353h28v-480h-28v89q-70 -104 -197 -104q-96 0 -144.5 49.5z" />
    <glyph glyph-name="ucircumflex" unicode="&#xfb;" horiz-adv-x="573" 
d="M267 713h22l128 -151h-31l-108 129l-108 -129h-31zM123.5 34.5q-48.5 49.5 -48.5 131.5v314h28v-312q0 -74 40 -116.5t125 -42.5q63 0 110.5 28t86.5 90v353h28v-480h-28v89q-70 -104 -197 -104q-96 0 -144.5 49.5z" />
    <glyph glyph-name="udieresis" unicode="&#xfc;" horiz-adv-x="573" 
d="M165.5 580.5q-8.5 8.5 -8.5 19.5t8.5 19.5t19.5 8.5t19.5 -8.5t8.5 -19.5t-8.5 -19.5t-19.5 -8.5t-19.5 8.5zM363.5 580.5q-8.5 8.5 -8.5 19.5t8.5 19.5t19.5 8.5t19.5 -8.5t8.5 -19.5t-8.5 -19.5t-19.5 -8.5t-19.5 8.5zM123.5 34.5q-48.5 49.5 -48.5 131.5v314h28v-312
q0 -74 40 -116.5t125 -42.5q63 0 110.5 28t86.5 90v353h28v-480h-28v89q-70 -104 -197 -104q-96 0 -144.5 49.5z" />
    <glyph glyph-name="yacute" unicode="&#xfd;" horiz-adv-x="531" 
d="M321 729h28l-77 -167h-22zM70 -192v25q22 -7 53 -7q43 0 66 22.5t43 72.5l33 85l-205 474h28l191 -438l184 438h28l-234 -565q-24 -59 -53 -86t-75 -27q-32 0 -59 6z" />
    <glyph glyph-name="thorn" unicode="&#xfe;" horiz-adv-x="648" 
d="M80 699h28v-332q34 62 93 95t137 33q69 0 126 -31t90.5 -89t33.5 -134t-33 -134t-90.5 -90t-126.5 -32q-74 0 -137.5 33.5t-92.5 96.5v-334h-28v918zM450.5 37.5q51.5 28.5 81.5 81.5t30 122t-30 121t-81.5 80.5t-112.5 28.5q-84 0 -145.5 -42t-84.5 -117v-142
q21 -75 84 -118t146 -43q61 0 112.5 28.5z" />
    <glyph glyph-name="ydieresis" unicode="&#xff;" horiz-adv-x="531" 
d="M154.5 580.5q-8.5 8.5 -8.5 19.5t8.5 19.5t19.5 8.5t19.5 -8.5t8.5 -19.5t-8.5 -19.5t-19.5 -8.5t-19.5 8.5zM352.5 580.5q-8.5 8.5 -8.5 19.5t8.5 19.5t19.5 8.5t19.5 -8.5t8.5 -19.5t-8.5 -19.5t-19.5 -8.5t-19.5 8.5zM70 -192v25q22 -7 53 -7q43 0 66 22.5t43 72.5
l33 85l-205 474h28l191 -438l184 438h28l-234 -565q-24 -59 -53 -86t-75 -27q-32 0 -59 6z" />
    <glyph glyph-name="Amacron" unicode="&#x100;" horiz-adv-x="700" 
d="M211 849h278v-24h-278v24zM339 699h22l279 -699h-28l-86 215h-352l-86 -215h-28zM516 239l-166 418l-166 -418h332z" />
    <glyph glyph-name="amacron" unicode="&#x101;" horiz-adv-x="554" 
d="M156 619h278v-24h-278v24zM110.5 23.5q-50.5 38.5 -50.5 110.5q0 151 190 151q118 0 201 -49v81q0 78 -41.5 116t-133.5 38q-78 0 -150 -29v25q29 12 70 20t80 8q203 0 203 -179v-316h-25v77q-65 -92 -208 -92q-85 0 -135.5 38.5zM373.5 36q52.5 27 77.5 75v101
q-48 26 -94 37.5t-107 11.5q-88 0 -126 -31.5t-38 -95.5q0 -60 41.5 -92.5t126.5 -32.5q67 0 119.5 27z" />
    <glyph glyph-name="Abreve" unicode="&#x102;" horiz-adv-x="700" 
d="M265 801q-33 31 -33 77h24q0 -37 25.5 -61t68.5 -24t68.5 24t25.5 61h24q0 -46 -33 -77t-85 -31t-85 31zM339 699h22l279 -699h-28l-86 215h-352l-86 -215h-28zM516 239l-166 418l-166 -418h332z" />
    <glyph glyph-name="abreve" unicode="&#x103;" horiz-adv-x="554" 
d="M220 611q-33 31 -33 77h24q0 -37 25.5 -61t68.5 -24t68.5 24t25.5 61h24q0 -46 -33 -77t-85 -31t-85 31zM110.5 23.5q-50.5 38.5 -50.5 110.5q0 151 190 151q118 0 201 -49v81q0 78 -41.5 116t-133.5 38q-78 0 -150 -29v25q29 12 70 20t80 8q203 0 203 -179v-316h-25v77
q-65 -92 -208 -92q-85 0 -135.5 38.5zM373.5 36q52.5 27 77.5 75v101q-48 26 -94 37.5t-107 11.5q-88 0 -126 -31.5t-38 -95.5q0 -60 41.5 -92.5t126.5 -32.5q67 0 119.5 27z" />
    <glyph glyph-name="Aogonek" unicode="&#x104;" horiz-adv-x="706" 
d="M663 -174v-24q-18 -8 -46 -8q-34 0 -58 21t-24 60q0 37 21.5 70t55.5 55l-86 215h-352l-86 -215h-28l279 699h22l279 -699q-79 -61 -79 -125q0 -28 15.5 -42.5t40.5 -14.5q27 0 46 8zM516 239l-166 418l-166 -418h332z" />
    <glyph glyph-name="aogonek" unicode="&#x105;" horiz-adv-x="576" 
d="M501 -174v-24q-18 -8 -46 -8q-34 0 -58 21t-24 60q0 37 21.5 70t55.5 55h4v77q-65 -92 -208 -92q-85 0 -135.5 38.5t-50.5 110.5q0 151 190 151q118 0 201 -49v81q0 78 -41.5 116t-133.5 38q-78 0 -150 -29v25q29 12 70 20t80 8q203 0 203 -179v-316h-1q-79 -61 -79 -125
q0 -28 15.5 -42.5t40.5 -14.5q27 0 46 8zM451 212q-48 26 -94 37.5t-107 11.5q-88 0 -126 -31.5t-38 -95.5q0 -60 41.5 -92.5t126.5 -32.5q67 0 119.5 27t77.5 75v101z" />
    <glyph glyph-name="Cacute" unicode="&#x106;" horiz-adv-x="728" 
d="M450 959h28l-77 -167h-22zM236.5 30.5q-82.5 45.5 -129.5 128.5t-47 190t47 190t129.5 129t184.5 46q144 0 238 -82v-30q-46 45 -107 66.5t-131 21.5q-94 0 -170.5 -42t-120.5 -119.5t-44 -179.5t45 -179.5t121.5 -119t168.5 -41.5q77 0 137.5 21.5t109.5 71.5v-30
q-87 -87 -247 -87q-102 0 -184.5 45.5z" />
    <glyph glyph-name="cacute" unicode="&#x107;" horiz-adv-x="546" 
d="M367 729h28l-77 -167h-22zM184 16q-57 31 -90.5 89t-33.5 134t33.5 134t92 90t128.5 32q53 0 92.5 -10t72.5 -34v-25q-35 25 -74 35t-91 10q-64 0 -116 -28t-82 -81t-30 -123t29.5 -122t81 -80t113.5 -28q57 0 97 11.5t79 37.5v-25q-35 -25 -77.5 -36.5t-98.5 -11.5
q-69 0 -126 31z" />
    <glyph glyph-name="Ccircumflex" unicode="&#x108;" horiz-adv-x="728" 
d="M402 937h22l128 -151h-31l-108 129l-108 -129h-31zM236.5 30.5q-82.5 45.5 -129.5 128.5t-47 190t47 190t129.5 129t184.5 46q144 0 238 -82v-30q-46 45 -107 66.5t-131 21.5q-94 0 -170.5 -42t-120.5 -119.5t-44 -179.5t45 -179.5t121.5 -119t168.5 -41.5
q77 0 137.5 21.5t109.5 71.5v-30q-87 -87 -247 -87q-102 0 -184.5 45.5z" />
    <glyph glyph-name="ccircumflex" unicode="&#x109;" horiz-adv-x="546" 
d="M306 713h22l128 -151h-31l-108 129l-108 -129h-31zM184 16q-57 31 -90.5 89t-33.5 134t33.5 134t92 90t128.5 32q53 0 92.5 -10t72.5 -34v-25q-35 25 -74 35t-91 10q-64 0 -116 -28t-82 -81t-30 -123t29.5 -122t81 -80t113.5 -28q57 0 97 11.5t79 37.5v-25
q-35 -25 -77.5 -36.5t-98.5 -11.5q-69 0 -126 31z" />
    <glyph glyph-name="Cdotaccent" unicode="&#x10a;" horiz-adv-x="728" 
d="M404.5 810.5q-8.5 8.5 -8.5 19.5t8.5 19.5t19.5 8.5t19.5 -8.5t8.5 -19.5t-8.5 -19.5t-19.5 -8.5t-19.5 8.5zM236.5 30.5q-82.5 45.5 -129.5 128.5t-47 190t47 190t129.5 129t184.5 46q144 0 238 -82v-30q-46 45 -107 66.5t-131 21.5q-94 0 -170.5 -42t-120.5 -119.5
t-44 -179.5t45 -179.5t121.5 -119t168.5 -41.5q77 0 137.5 21.5t109.5 71.5v-30q-87 -87 -247 -87q-102 0 -184.5 45.5z" />
    <glyph glyph-name="cdotaccent" unicode="&#x10b;" horiz-adv-x="546" 
d="M295.5 580.5q-8.5 8.5 -8.5 19.5t8.5 19.5t19.5 8.5t19.5 -8.5t8.5 -19.5t-8.5 -19.5t-19.5 -8.5t-19.5 8.5zM184 16q-57 31 -90.5 89t-33.5 134t33.5 134t92 90t128.5 32q53 0 92.5 -10t72.5 -34v-25q-35 25 -74 35t-91 10q-64 0 -116 -28t-82 -81t-30 -123t29.5 -122
t81 -80t113.5 -28q57 0 97 11.5t79 37.5v-25q-35 -25 -77.5 -36.5t-98.5 -11.5q-69 0 -126 31z" />
    <glyph glyph-name="Ccaron" unicode="&#x10c;" horiz-adv-x="728" 
d="M278 949h31l108 -129l108 129h31l-128 -151h-22zM236.5 30.5q-82.5 45.5 -129.5 128.5t-47 190t47 190t129.5 129t184.5 46q144 0 238 -82v-30q-46 45 -107 66.5t-131 21.5q-94 0 -170.5 -42t-120.5 -119.5t-44 -179.5t45 -179.5t121.5 -119t168.5 -41.5q77 0 137.5 21.5
t109.5 71.5v-30q-87 -87 -247 -87q-102 0 -184.5 45.5z" />
    <glyph glyph-name="ccaron" unicode="&#x10d;" horiz-adv-x="546" 
d="M173 713h31l108 -129l108 129h31l-128 -151h-22zM184 16q-57 31 -90.5 89t-33.5 134t33.5 134t92 90t128.5 32q53 0 92.5 -10t72.5 -34v-25q-35 25 -74 35t-91 10q-64 0 -116 -28t-82 -81t-30 -123t29.5 -122t81 -80t113.5 -28q57 0 97 11.5t79 37.5v-25
q-35 -25 -77.5 -36.5t-98.5 -11.5q-69 0 -126 31z" />
    <glyph glyph-name="Dcaron" unicode="&#x10e;" horiz-adv-x="696" 
d="M144 949h31l108 -129l108 129h31l-128 -151h-22zM80 699h199q111 0 191.5 -42t123 -120t42.5 -184q0 -174 -99 -263.5t-280 -89.5h-177v699zM246 24q364 0 364 329q0 153 -88.5 237.5t-249.5 84.5h-164v-651h138z" />
    <glyph glyph-name="dcaron" unicode="&#x10f;" horiz-adv-x="757" 
d="M699 789h28l-77 -167h-22zM184 17q-57 31 -90.5 89t-33.5 134t33 134t90.5 90t126.5 32q74 0 137.5 -33.5t92.5 -96.5v374h28v-739h-28v113q-34 -62 -93 -95t-137 -33q-69 0 -126 31zM455.5 52q61.5 42 84.5 117v142q-21 75 -84 118t-146 43q-61 0 -112.5 -28.5
t-81.5 -81.5t-30 -122t30 -121t81.5 -80.5t112.5 -28.5q84 0 145.5 42z" />
    <glyph glyph-name="Dcroat" unicode="&#x110;" horiz-adv-x="725" 
d="M109 337h-79v24h79v338h199q111 0 191.5 -42t123 -120t42.5 -184q0 -174 -99 -263.5t-280 -89.5h-177v337zM275 24q364 0 364 329q0 153 -88.5 237.5t-249.5 84.5h-164v-314h226v-24h-226v-313h138z" />
    <glyph glyph-name="dcroat" unicode="&#x111;" horiz-adv-x="665" 
d="M184 16q-57 31 -90.5 89t-33.5 134t33 134t90.5 90t126.5 32q74 0 137.5 -33.5t92.5 -96.5v203h-238v24h238v147h28v-147h67v-24h-67v-568h-28v113q-34 -62 -93 -95t-137 -33q-69 0 -126 31zM455.5 51q61.5 42 84.5 117v142q-21 75 -84 118t-146 43q-61 0 -112.5 -28.5
t-81.5 -81.5t-30 -122t30 -121t81.5 -80.5t112.5 -28.5q84 0 145.5 42z" />
    <glyph glyph-name="Emacron" unicode="&#x112;" horiz-adv-x="567" 
d="M150 849h278v-24h-278v24zM80 699h427v-24h-399v-313h303v-24h-303v-314h399v-24h-427v699z" />
    <glyph glyph-name="emacron" unicode="&#x113;" horiz-adv-x="607" 
d="M163 609h278v-24h-278v24zM129.5 52q-69.5 67 -69.5 188q0 118 63.5 186.5t179.5 68.5q79 0 134 -31t82.5 -85t27.5 -124v-25h-462q0 -108 65 -165t177 -57q46 0 90.5 8.5t78.5 21.5v-24q-28 -12 -76.5 -20.5t-92.5 -8.5q-128 0 -197.5 67zM522 253q0 99 -54.5 159
t-164.5 60q-109 0 -163.5 -62t-54.5 -157h437z" />
    <glyph glyph-name="Ebreve" unicode="&#x114;" horiz-adv-x="567" 
d="M198 801q-33 31 -33 77h24q0 -37 25.5 -61t68.5 -24t68.5 24t25.5 61h24q0 -46 -33 -77t-85 -31t-85 31zM80 699h427v-24h-399v-313h303v-24h-303v-314h399v-24h-427v699z" />
    <glyph glyph-name="ebreve" unicode="&#x115;" horiz-adv-x="607" 
d="M221 593q-33 31 -33 77h24q0 -37 25.5 -61t68.5 -24t68.5 24t25.5 61h24q0 -46 -33 -77t-85 -31t-85 31zM129.5 52q-69.5 67 -69.5 188q0 118 63.5 186.5t179.5 68.5q79 0 134 -31t82.5 -85t27.5 -124v-25h-462q0 -108 65 -165t177 -57q46 0 90.5 8.5t78.5 21.5v-24
q-28 -12 -76.5 -20.5t-92.5 -8.5q-128 0 -197.5 67zM522 253q0 99 -54.5 159t-164.5 60q-109 0 -163.5 -62t-54.5 -157h437z" />
    <glyph glyph-name="Edotaccent" unicode="&#x116;" horiz-adv-x="567" 
d="M253.5 810.5q-8.5 8.5 -8.5 19.5t8.5 19.5t19.5 8.5t19.5 -8.5t8.5 -19.5t-8.5 -19.5t-19.5 -8.5t-19.5 8.5zM80 699h427v-24h-399v-313h303v-24h-303v-314h399v-24h-427v699z" />
    <glyph glyph-name="edotaccent" unicode="&#x117;" horiz-adv-x="607" 
d="M297.5 585.5q-8.5 8.5 -8.5 19.5t8.5 19.5t19.5 8.5t19.5 -8.5t8.5 -19.5t-8.5 -19.5t-19.5 -8.5t-19.5 8.5zM129.5 52q-69.5 67 -69.5 188q0 118 63.5 186.5t179.5 68.5q79 0 134 -31t82.5 -85t27.5 -124v-25h-462q0 -108 65 -165t177 -57q46 0 90.5 8.5t78.5 21.5v-24
q-28 -12 -76.5 -20.5t-92.5 -8.5q-128 0 -197.5 67zM522 253q0 99 -54.5 159t-164.5 60q-109 0 -163.5 -62t-54.5 -157h437z" />
    <glyph glyph-name="Eogonek" unicode="&#x118;" horiz-adv-x="567" 
d="M108 675v-313h303v-24h-303v-314h399v-24h-45q-79 -61 -79 -125q0 -28 15.5 -42.5t40.5 -14.5q27 0 46 8v-24q-18 -8 -46 -8q-34 0 -58 21t-24 60q0 37 21.5 70t55.5 55h-354v699h427v-24h-399z" />
    <glyph glyph-name="eogonek" unicode="&#x119;" horiz-adv-x="607" 
d="M547 230h-462q0 -108 65 -165t177 -57q46 0 90.5 8.5t78.5 21.5v-24q-22 -10 -65 -18q-74 -59 -74 -121q0 -28 15.5 -42.5t40.5 -14.5q27 0 46 8v-24q-18 -8 -46 -8q-34 0 -58 21t-24 60q0 33 17 63t46 52q-38 -5 -67 -5q-128 0 -197.5 67t-69.5 188q0 118 63.5 186.5
t179.5 68.5q79 0 134 -31t82.5 -85t27.5 -124v-25zM522 253q0 99 -54.5 159t-164.5 60q-109 0 -163.5 -62t-54.5 -157h437z" />
    <glyph glyph-name="Ecaron" unicode="&#x11a;" horiz-adv-x="567" 
d="M134 949h31l108 -129l108 129h31l-128 -151h-22zM80 699h427v-24h-399v-313h303v-24h-303v-314h399v-24h-427v699z" />
    <glyph glyph-name="ecaron" unicode="&#x11b;" horiz-adv-x="607" 
d="M172 713h31l108 -129l108 129h31l-128 -151h-22zM129.5 52q-69.5 67 -69.5 188q0 118 63.5 186.5t179.5 68.5q79 0 134 -31t82.5 -85t27.5 -124v-25h-462q0 -108 65 -165t177 -57q46 0 90.5 8.5t78.5 21.5v-24q-28 -12 -76.5 -20.5t-92.5 -8.5q-128 0 -197.5 67zM522 253
q0 99 -54.5 159t-164.5 60q-109 0 -163.5 -62t-54.5 -157h437z" />
    <glyph glyph-name="Gcircumflex" unicode="&#x11c;" horiz-adv-x="728" 
d="M404 925h22l128 -151h-31l-108 129l-108 -129h-31zM236.5 30.5q-82.5 45.5 -129.5 128.5t-47 190t47 190t129.5 129t184.5 46q147 0 237 -79v-30q-88 85 -237 85q-94 0 -170.5 -42t-120.5 -119.5t-44 -179.5t45 -179.5t121.5 -119t168.5 -41.5q68 0 120.5 16t98.5 52v262
h-177v24h205v-291q-87 -87 -247 -87q-102 0 -184.5 45.5z" />
    <glyph glyph-name="gcircumflex" unicode="&#x11d;" horiz-adv-x="648" 
d="M322 713h22l128 -151h-31l-108 129l-108 -129h-31zM227.5 -221q-45.5 9 -73.5 24v25q71 -34 168 -34q218 0 218 211v110q-30 -63 -93 -96.5t-137 -33.5q-69 0 -126.5 32t-90.5 90t-33 134t33.5 134t90.5 89t126 31q78 0 137 -33t93 -95v113h28v-469q0 -241 -246 -241
q-49 0 -94.5 9zM455 52.5q65 43.5 85 117.5v142q-23 74 -87 116.5t-143 42.5q-61 0 -112 -28.5t-81.5 -81t-30.5 -120.5q0 -69 30.5 -122t81.5 -81.5t112 -28.5q80 0 145 43.5z" />
    <glyph glyph-name="Gbreve" unicode="&#x11e;" horiz-adv-x="728" 
d="M320 777q-33 31 -33 77h24q0 -37 25.5 -61t68.5 -24t68.5 24t25.5 61h24q0 -46 -33 -77t-85 -31t-85 31zM236.5 30.5q-82.5 45.5 -129.5 128.5t-47 190t47 190t129.5 129t184.5 46q147 0 237 -79v-30q-88 85 -237 85q-94 0 -170.5 -42t-120.5 -119.5t-44 -179.5
t45 -179.5t121.5 -119t168.5 -41.5q68 0 120.5 16t98.5 52v262h-177v24h205v-291q-87 -87 -247 -87q-102 0 -184.5 45.5z" />
    <glyph glyph-name="gbreve" unicode="&#x11f;" horiz-adv-x="648" 
d="M231 593q-33 31 -33 77h24q0 -37 25.5 -61t68.5 -24t68.5 24t25.5 61h24q0 -46 -33 -77t-85 -31t-85 31zM227.5 -221q-45.5 9 -73.5 24v25q71 -34 168 -34q218 0 218 211v110q-30 -63 -93 -96.5t-137 -33.5q-69 0 -126.5 32t-90.5 90t-33 134t33.5 134t90.5 89t126 31
q78 0 137 -33t93 -95v113h28v-469q0 -241 -246 -241q-49 0 -94.5 9zM455 52.5q65 43.5 85 117.5v142q-23 74 -87 116.5t-143 42.5q-61 0 -112 -28.5t-81.5 -81t-30.5 -120.5q0 -69 30.5 -122t81.5 -81.5t112 -28.5q80 0 145 43.5z" />
    <glyph glyph-name="Gdotaccent" unicode="&#x120;" horiz-adv-x="728" 
d="M395.5 771.5q-8.5 8.5 -8.5 19.5t8.5 19.5t19.5 8.5t19.5 -8.5t8.5 -19.5t-8.5 -19.5t-19.5 -8.5t-19.5 8.5zM236.5 30.5q-82.5 45.5 -129.5 128.5t-47 190t47 190t129.5 129t184.5 46q147 0 237 -79v-30q-88 85 -237 85q-94 0 -170.5 -42t-120.5 -119.5t-44 -179.5
t45 -179.5t121.5 -119t168.5 -41.5q68 0 120.5 16t98.5 52v262h-177v24h205v-291q-87 -87 -247 -87q-102 0 -184.5 45.5z" />
    <glyph glyph-name="gdotaccent" unicode="&#x121;" horiz-adv-x="648" 
d="M307.5 585.5q-8.5 8.5 -8.5 19.5t8.5 19.5t19.5 8.5t19.5 -8.5t8.5 -19.5t-8.5 -19.5t-19.5 -8.5t-19.5 8.5zM227.5 -221q-45.5 9 -73.5 24v25q71 -34 168 -34q218 0 218 211v110q-30 -63 -93 -96.5t-137 -33.5q-69 0 -126.5 32t-90.5 90t-33 134t33.5 134t90.5 89
t126 31q78 0 137 -33t93 -95v113h28v-469q0 -241 -246 -241q-49 0 -94.5 9zM455 52.5q65 43.5 85 117.5v142q-23 74 -87 116.5t-143 42.5q-61 0 -112 -28.5t-81.5 -81t-30.5 -120.5q0 -69 30.5 -122t81.5 -81.5t112 -28.5q80 0 145 43.5z" />
    <glyph glyph-name="Gcommaaccent" unicode="&#x122;" horiz-adv-x="728" 
d="M236.5 30.5q-82.5 45.5 -129.5 128.5t-47 190t47 190t129.5 129t184.5 46q147 0 237 -79v-30q-88 85 -237 85q-94 0 -170.5 -42t-120.5 -119.5t-44 -179.5t45 -179.5t121.5 -119t168.5 -41.5q68 0 120.5 16t98.5 52v262h-177v24h205v-291q-87 -87 -247 -87
q-102 0 -184.5 45.5zM406 -70h31l-85 -189h-25z" />
    <glyph glyph-name="gcommaaccent" unicode="&#x123;" horiz-adv-x="648" 
d="M383 751h25l-79 -189h-31zM227.5 -221q-45.5 9 -73.5 24v25q71 -34 168 -34q218 0 218 211v110q-30 -63 -93 -96.5t-137 -33.5q-69 0 -126.5 32t-90.5 90t-33 134t33.5 134t90.5 89t126 31q78 0 137 -33t93 -95v113h28v-469q0 -241 -246 -241q-49 0 -94.5 9zM455 52.5
q65 43.5 85 117.5v142q-23 74 -87 116.5t-143 42.5q-61 0 -112 -28.5t-81.5 -81t-30.5 -120.5q0 -69 30.5 -122t81.5 -81.5t112 -28.5q80 0 145 43.5z" />
    <glyph glyph-name="Hcircumflex" unicode="&#x124;" horiz-adv-x="672" 
d="M325 949h22l128 -151h-31l-108 129l-108 -129h-31zM80 699h28v-330h456v330h28v-699h-28v345h-456v-345h-28v699z" />
    <glyph glyph-name="hcircumflex" unicode="&#x125;" horiz-adv-x="573" 
d="M211 919h22l128 -151h-31l-108 129l-108 -129h-31zM80 739h28v-348q39 55 93 79.5t114 24.5q93 0 138 -47.5t45 -128.5v-319h-28v318q0 74 -36.5 113.5t-118.5 39.5q-128 0 -207 -118v-353h-28v739z" />
    <glyph glyph-name="Hbar" unicode="&#x126;" horiz-adv-x="704" 
d="M89 519h-49v24h49v156h28v-156h456v156h28v-156h63v-24h-63v-519h-28v345h-456v-345h-28v519zM573 369v150h-456v-150h456z" />
    <glyph glyph-name="hbar" unicode="&#x127;" horiz-adv-x="582" 
d="M89 578h-49v24h49v137h28v-137h206v-24h-206v-187q39 55 93 79.5t114 24.5q93 0 138 -47.5t45 -128.5v-319h-28v318q0 74 -36.5 113.5t-118.5 39.5q-128 0 -207 -118v-353h-28v578z" />
    <glyph glyph-name="Itilde" unicode="&#x128;" horiz-adv-x="188" 
d="M-83 819q27 45 90 45q22 0 41.5 -6t47.5 -19q26 -12 44.5 -18.5t40.5 -6.5q27 0 49.5 12t40.5 42v-33q-27 -45 -90 -45q-25 0 -46 6.5t-47 19.5q-25 12 -42.5 18t-38.5 6q-27 0 -48.5 -12t-41.5 -42v33zM80 699h28v-699h-28v699z" />
    <glyph glyph-name="itilde" unicode="&#x129;" horiz-adv-x="188" 
d="M-83 595q27 45 90 45q22 0 41.5 -6t47.5 -19q26 -12 44.5 -18.5t40.5 -6.5q27 0 49.5 12t40.5 42v-33q-27 -45 -90 -45q-25 0 -46 6.5t-47 19.5q-25 12 -42.5 18t-38.5 6q-27 0 -48.5 -12t-41.5 -42v33zM80 480h28v-480h-28v480z" />
    <glyph glyph-name="Imacron" unicode="&#x12a;" horiz-adv-x="188" 
d="M-45 789h278v-24h-278v24zM80 699h28v-699h-28v699z" />
    <glyph glyph-name="imacron" unicode="&#x12b;" horiz-adv-x="188" 
d="M-45 609h278v-24h-278v24zM80 480h28v-480h-28v480z" />
    <glyph glyph-name="Ibreve" unicode="&#x12c;" horiz-adv-x="188" 
d="M9 808q-33 31 -33 77h24q0 -37 25.5 -61t68.5 -24t68.5 24t25.5 61h24q0 -46 -33 -77t-85 -31t-85 31zM80 699h28v-699h-28v699z" />
    <glyph glyph-name="ibreve" unicode="&#x12d;" horiz-adv-x="188" 
d="M9 593q-33 31 -33 77h24q0 -37 25.5 -61t68.5 -24t68.5 24t25.5 61h24q0 -46 -33 -77t-85 -31t-85 31zM80 480h28v-480h-28v480z" />
    <glyph glyph-name="Iogonek" unicode="&#x12e;" horiz-adv-x="188" 
d="M131 -174v-24q-18 -8 -46 -8q-34 0 -58 21t-24 60q0 37 21.5 70t55.5 55v699h28v-699q-79 -61 -79 -125q0 -28 15.5 -42.5t40.5 -14.5q27 0 46 8z" />
    <glyph glyph-name="iogonek" unicode="&#x12f;" horiz-adv-x="212" 
d="M88 612q-8 8 -8 18q0 11 8 18.5t18 7.5q11 0 18.5 -7.5t7.5 -18.5q0 -10 -7.5 -18t-18.5 -8q-10 0 -18 8zM143 -174v-24q-18 -8 -46 -8q-34 0 -58 21t-24 60q0 37 21.5 70t55.5 55v480h28v-480q-79 -61 -79 -125q0 -28 15.5 -42.5t40.5 -14.5q27 0 46 8z" />
    <glyph glyph-name="Idotaccent" unicode="&#x130;" horiz-adv-x="188" 
d="M74.5 771.5q-8.5 8.5 -8.5 19.5t8.5 19.5t19.5 8.5t19.5 -8.5t8.5 -19.5t-8.5 -19.5t-19.5 -8.5t-19.5 8.5zM80 699h28v-699h-28v699z" />
    <glyph glyph-name="dotlessi" unicode="&#x131;" horiz-adv-x="188" 
d="M80 480h28v-480h-28v480z" />
    <glyph glyph-name="IJ" unicode="&#x132;" horiz-adv-x="554" 
d="M80 699h28v-699h-28v699zM246 -4v24q15 -5 39.5 -8.5t42.5 -3.5q60 0 91.5 30t31.5 90v571h28v-571q0 -71 -41 -107t-103 -36q-50 0 -89 11z" />
    <glyph glyph-name="ij" unicode="&#x133;" horiz-adv-x="357" 
d="M88 612q-8 8 -8 18q0 11 8 18.5t18 7.5q11 0 18.5 -7.5t7.5 -18.5q0 -10 -7.5 -18t-18.5 -8q-10 0 -18 8zM233 612q-8 8 -8 18q0 11 8 18.5t18 7.5q11 0 18.5 -7.5t7.5 -18.5q0 -10 -7.5 -18t-18.5 -8q-10 0 -18 8zM88 -225v25q22 -7 50 -7q55 0 77 25.5t22 83.5v578h28
v-576q0 -135 -118 -135q-32 0 -59 6zM92 480h28v-480h-28v480z" />
    <glyph glyph-name="Jcircumflex" unicode="&#x134;" horiz-adv-x="348" 
d="M248 925h22l128 -151h-31l-108 129l-108 -129h-31zM40 -4v24q15 -5 39.5 -8.5t42.5 -3.5q60 0 91.5 30t31.5 90v571h28v-571q0 -71 -41 -107t-103 -36q-50 0 -89 11z" />
    <glyph glyph-name="jcircumflex" unicode="&#x135;" horiz-adv-x="197" 
d="M93 713h22l128 -151h-31l-108 129l-108 -129h-31zM-60 -225v25q22 -7 50 -7q55 0 77 25.5t22 83.5v578h28v-576q0 -135 -118 -135q-32 0 -59 6z" />
    <glyph glyph-name="Kcommaaccent" unicode="&#x136;" horiz-adv-x="589" 
d="M80 699h28v-343l360 343h39l-364 -346l386 -353h-39l-382 350v-350h-28v699zM259 -70h31l-85 -189h-25z" />
    <glyph glyph-name="kcommaaccent" unicode="&#x137;" horiz-adv-x="484" 
d="M80 739h28v-496l254 237h40l-259 -240l281 -240h-40l-276 237v-237h-28v739zM232 -70h31l-85 -189h-25z" />
    <glyph glyph-name="kgreenlandic" unicode="&#x138;" horiz-adv-x="484" 
d="M80 480h28v-237l254 237h40l-259 -240l281 -240h-40l-276 237v-237h-28v480z" />
    <glyph glyph-name="Lacute" unicode="&#x139;" horiz-adv-x="547" 
d="M155 935h28l-77 -167h-22zM80 699h28v-675h399v-24h-427v699z" />
    <glyph glyph-name="lacute" unicode="&#x13a;" horiz-adv-x="188" 
d="M155 935h28l-77 -167h-22zM80 699h28v-699h-28v699z" />
    <glyph glyph-name="Lcommaaccent" unicode="&#x13b;" horiz-adv-x="547" 
d="M80 699h28v-675h399v-24h-427v699zM281 -70h31l-85 -189h-25z" />
    <glyph glyph-name="lcommaaccent" unicode="&#x13c;" horiz-adv-x="188" 
d="M80 739h28v-739h-28v739zM79 -70h31l-85 -189h-25z" />
    <glyph glyph-name="Lcaron" unicode="&#x13d;" horiz-adv-x="547" 
d="M80 699h28v-675h399v-24h-427v699zM317 693h31l-85 -189h-25z" />
    <glyph glyph-name="lcaron" unicode="&#x13e;" horiz-adv-x="355" 
d="M80 739h28v-739h-28v739zM251 739h31l-85 -189h-25z" />
    <glyph glyph-name="Ldot" unicode="&#x13f;" horiz-adv-x="547" 
d="M80 699h28v-675h399v-24h-427v699zM298.5 352.5q-8.5 8.5 -8.5 19.5t8.5 19.5t19.5 8.5t19.5 -8.5t8.5 -19.5t-8.5 -19.5t-19.5 -8.5t-19.5 8.5z" />
    <glyph glyph-name="ldot" unicode="&#x140;" horiz-adv-x="275" 
d="M80 739h28v-739h-28v739zM197.5 359.5q-8.5 8.5 -8.5 19.5t8.5 19.5t19.5 8.5t19.5 -8.5t8.5 -19.5t-8.5 -19.5t-19.5 -8.5t-19.5 8.5z" />
    <glyph glyph-name="Lslash" unicode="&#x141;" horiz-adv-x="624" 
d="M157 334l-127 -56v26l127 56v339h28v-326l181 81v-26l-181 -81v-323h399v-24h-427v334z" />
    <glyph glyph-name="lslash" unicode="&#x142;" horiz-adv-x="396" 
d="M167 339l-137 -61v26l137 61v374h28v-362l171 77v-26l-171 -77v-351h-28v339z" />
    <glyph glyph-name="Nacute" unicode="&#x143;" horiz-adv-x="663" 
d="M401 947h28l-77 -167h-22zM80 699h25l450 -647v647h28v-699h-24l-451 649v-649h-28v699z" />
    <glyph glyph-name="nacute" unicode="&#x144;" horiz-adv-x="573" 
d="M352 729h28l-77 -167h-22zM80 480h28v-89q39 55 93 79.5t114 24.5q93 0 138 -47.5t45 -128.5v-319h-28v318q0 74 -36.5 113.5t-118.5 39.5q-128 0 -207 -118v-353h-28v480z" />
    <glyph glyph-name="Ncommaaccent" unicode="&#x145;" horiz-adv-x="663" 
d="M80 699h25l450 -647v647h28v-699h-24l-451 649v-649h-28v699zM347 -70h31l-85 -189h-25z" />
    <glyph glyph-name="ncommaaccent" unicode="&#x146;" horiz-adv-x="573" 
d="M80 480h28v-89q39 55 93 79.5t114 24.5q93 0 138 -47.5t45 -128.5v-319h-28v318q0 74 -36.5 113.5t-118.5 39.5q-128 0 -207 -118v-353h-28v480zM307 -70h31l-85 -189h-25z" />
    <glyph glyph-name="Ncaron" unicode="&#x147;" horiz-adv-x="663" 
d="M193 937h31l108 -129l108 129h31l-128 -151h-22zM80 699h25l450 -647v647h28v-699h-24l-451 649v-649h-28v699z" />
    <glyph glyph-name="ncaron" unicode="&#x148;" horiz-adv-x="573" 
d="M164 713h31l108 -129l108 129h31l-128 -151h-22zM80 480h28v-89q39 55 93 79.5t114 24.5q93 0 138 -47.5t45 -128.5v-319h-28v318q0 74 -36.5 113.5t-118.5 39.5q-128 0 -207 -118v-353h-28v480z" />
    <glyph glyph-name="napostrophe" unicode="&#x149;" horiz-adv-x="636" 
d="M119 693h31l-85 -189h-25zM143 480h28v-89q39 55 93 79.5t114 24.5q93 0 138 -47.5t45 -128.5v-319h-28v318q0 74 -36.5 113.5t-118.5 39.5q-128 0 -207 -118v-353h-28v480z" />
    <glyph glyph-name="Eng" unicode="&#x14a;" horiz-adv-x="663" 
d="M406 -225v25q22 -7 50 -7q55 0 77 25.5t22 83.5v104l-447 643v-649h-28v699h25l450 -647v647h28v-795q0 -135 -118 -135q-32 0 -59 6z" />
    <glyph glyph-name="eng" unicode="&#x14b;" horiz-adv-x="573" 
d="M321 -225v25q22 -7 50 -7q55 0 77 25.5t22 83.5v416q0 74 -36.5 113.5t-118.5 39.5q-128 0 -207 -118v-353h-28v480h28v-89q39 55 93 79.5t114 24.5q93 0 138 -47.5t45 -128.5v-415q0 -135 -118 -135q-32 0 -59 6z" />
    <glyph glyph-name="Omacron" unicode="&#x14c;" horiz-adv-x="842" 
d="M264 837h278v-24h-278v24zM236.5 30.5q-82.5 45.5 -129.5 128.5t-47 190t47 190t129.5 129t184.5 46t184.5 -46t129.5 -129t47 -190t-47 -190t-129.5 -128.5t-184.5 -45.5t-184.5 45.5zM589.5 50.5q76.5 41.5 121.5 119t45 179.5t-44 179.5t-120.5 119.5t-170.5 42
t-170.5 -42t-120.5 -119.5t-44 -179.5t45 -179.5t121.5 -119t168.5 -41.5t168.5 41.5z" />
    <glyph glyph-name="omacron" unicode="&#x14d;" horiz-adv-x="622" 
d="M172 619h278v-24h-278v24zM182 17q-57 32 -89.5 90t-32.5 133t32.5 133t89.5 90t129 32t129 -32t89.5 -90t32.5 -133t-32.5 -133t-89.5 -90t-129 -32t-129 32zM427 37.5q51 28.5 80 80.5t29 122q0 69 -29 121.5t-80 81t-116 28.5t-116 -28.5t-80 -81t-29 -121.5
q0 -70 29 -122t80 -80.5t116 -28.5t116 28.5z" />
    <glyph glyph-name="Obreve" unicode="&#x14e;" horiz-adv-x="842" 
d="M336 789q-33 31 -33 77h24q0 -37 25.5 -61t68.5 -24t68.5 24t25.5 61h24q0 -46 -33 -77t-85 -31t-85 31zM236.5 30.5q-82.5 45.5 -129.5 128.5t-47 190t47 190t129.5 129t184.5 46t184.5 -46t129.5 -129t47 -190t-47 -190t-129.5 -128.5t-184.5 -45.5t-184.5 45.5z
M589.5 50.5q76.5 41.5 121.5 119t45 179.5t-44 179.5t-120.5 119.5t-170.5 42t-170.5 -42t-120.5 -119.5t-44 -179.5t45 -179.5t121.5 -119t168.5 -41.5t168.5 41.5z" />
    <glyph glyph-name="obreve" unicode="&#x14f;" horiz-adv-x="622" 
d="M226 593q-33 31 -33 77h24q0 -37 25.5 -61t68.5 -24t68.5 24t25.5 61h24q0 -46 -33 -77t-85 -31t-85 31zM182 17q-57 32 -89.5 90t-32.5 133t32.5 133t89.5 90t129 32t129 -32t89.5 -90t32.5 -133t-32.5 -133t-89.5 -90t-129 -32t-129 32zM427 37.5q51 28.5 80 80.5
t29 122q0 69 -29 121.5t-80 81t-116 28.5t-116 -28.5t-80 -81t-29 -121.5q0 -70 29 -122t80 -80.5t116 -28.5t116 28.5z" />
    <glyph glyph-name="Ohungarumlaut" unicode="&#x150;" horiz-adv-x="842" 
d="M375 947h28l-77 -167h-22zM542 947h28l-77 -167h-22zM236.5 30.5q-82.5 45.5 -129.5 128.5t-47 190t47 190t129.5 129t184.5 46t184.5 -46t129.5 -129t47 -190t-47 -190t-129.5 -128.5t-184.5 -45.5t-184.5 45.5zM589.5 50.5q76.5 41.5 121.5 119t45 179.5t-44 179.5
t-120.5 119.5t-170.5 42t-170.5 -42t-120.5 -119.5t-44 -179.5t45 -179.5t121.5 -119t168.5 -41.5t168.5 41.5z" />
    <glyph glyph-name="ohungarumlaut" unicode="&#x151;" horiz-adv-x="622" 
d="M270 729h28l-77 -167h-22zM437 729h28l-77 -167h-22zM182 17q-57 32 -89.5 90t-32.5 133t32.5 133t89.5 90t129 32t129 -32t89.5 -90t32.5 -133t-32.5 -133t-89.5 -90t-129 -32t-129 32zM427 37.5q51 28.5 80 80.5t29 122q0 69 -29 121.5t-80 81t-116 28.5t-116 -28.5
t-80 -81t-29 -121.5q0 -70 29 -122t80 -80.5t116 -28.5t116 28.5z" />
    <glyph glyph-name="OE" unicode="&#x152;" horiz-adv-x="885" 
d="M236 42q-82 42 -129 121.5t-47 185.5q0 107 47 186.5t129 121.5t185 42h404v-24h-339v-313h243v-24h-243v-314h339v-24h-404q-103 0 -185 42zM458 24v651h-37q-95 0 -171 -38.5t-120 -112t-44 -175.5t44.5 -175.5t121 -111.5t169.5 -38h37z" />
    <glyph glyph-name="oe" unicode="&#x153;" horiz-adv-x="1084" 
d="M182 17q-57 32 -89.5 90t-32.5 133t32.5 133t89.5 90t129 32q85 0 148.5 -44.5t88.5 -121.5q21 79 80.5 122.5t151.5 43.5q79 0 134 -31t82.5 -85t27.5 -124v-25h-462q0 -108 65 -165t177 -57q46 0 90.5 8.5t78.5 21.5v-24q-28 -12 -76.5 -20.5t-92.5 -8.5
q-102 0 -167.5 43t-88.5 123q-25 -77 -88.5 -121.5t-148.5 -44.5q-72 0 -129 32zM999 253q0 99 -54.5 159t-164.5 60q-109 0 -163.5 -62t-54.5 -157h437zM427 37.5q51 28.5 80 80.5t29 122q0 69 -29 121.5t-80 81t-116 28.5t-116 -28.5t-80 -81t-29 -121.5q0 -70 29 -122
t80 -80.5t116 -28.5t116 28.5z" />
    <glyph glyph-name="Racute" unicode="&#x154;" horiz-adv-x="591" 
d="M303 947h28l-77 -167h-22zM80 699h248q103 0 152.5 -45t49.5 -136q0 -77 -49.5 -126.5t-144.5 -51.5l195 -340h-29l-195 340h-199v-340h-28v699zM331 364q81 0 127 39.5t46 114.5q0 85 -45 121t-127 36h-224v-311h223z" />
    <glyph glyph-name="racute" unicode="&#x155;" horiz-adv-x="378" 
d="M243 729h28l-77 -167h-22zM80 480h28v-110q32 59 90 84.5t140 25.5v-24q-184 0 -230 -141v-315h-28v480z" />
    <glyph glyph-name="Rcommaaccent" unicode="&#x156;" horiz-adv-x="591" 
d="M80 699h248q103 0 152.5 -45t49.5 -136q0 -77 -49.5 -126.5t-144.5 -51.5l195 -340h-29l-195 340h-199v-340h-28v699zM331 364q81 0 127 39.5t46 114.5q0 85 -45 121t-127 36h-224v-311h223zM264 -70h31l-85 -189h-25z" />
    <glyph glyph-name="rcommaaccent" unicode="&#x157;" horiz-adv-x="378" 
d="M80 480h28v-110q32 59 90 84.5t140 25.5v-24q-184 0 -230 -141v-315h-28v480zM80 -70h31l-85 -189h-25z" />
    <glyph glyph-name="Rcaron" unicode="&#x158;" horiz-adv-x="591" 
d="M140 935h31l108 -129l108 129h31l-128 -151h-22zM80 699h248q103 0 152.5 -45t49.5 -136q0 -77 -49.5 -126.5t-144.5 -51.5l195 -340h-29l-195 340h-199v-340h-28v699zM331 364q81 0 127 39.5t46 114.5q0 85 -45 121t-127 36h-224v-311h223z" />
    <glyph glyph-name="rcaron" unicode="&#x159;" horiz-adv-x="386" 
d="M60 714h31l108 -129l108 129h31l-128 -151h-22zM88 480h28v-110q32 59 90 84.5t140 25.5v-24q-184 0 -230 -141v-315h-28v480z" />
    <glyph glyph-name="Sacute" unicode="&#x15a;" horiz-adv-x="544" 
d="M337 951h28l-77 -167h-22zM145.5 -6q-51.5 9 -85.5 23v25q85 -33 191 -33q207 0 207 152q0 50 -20.5 82t-61 54.5t-118.5 50.5q-101 37 -145 81.5t-44 117.5q0 76 57.5 121.5t153.5 45.5q51 0 92.5 -7.5t82.5 -24.5v-25q-42 17 -84 25t-91 8q-87 0 -136 -40t-49 -103
q0 -44 17 -74.5t56 -56t110 -51.5q77 -29 117 -50t64.5 -57.5t24.5 -96.5q0 -85 -59.5 -130.5t-173.5 -45.5q-54 0 -105.5 9z" />
    <glyph glyph-name="sacute" unicode="&#x15b;" horiz-adv-x="460" 
d="M268 729h28l-77 -167h-22zM135.5 -1.5q-49.5 13.5 -75.5 33.5v25q37 -23 80.5 -35.5t87.5 -12.5q146 0 146 98q0 32 -12 53.5t-44.5 38.5t-95.5 34q-59 16 -92.5 31t-51.5 40t-18 67q0 61 47.5 92.5t125.5 31.5q87 0 139 -28v-25q-55 29 -139 29q-69 0 -108 -25t-39 -75
q0 -34 13.5 -54t45 -34t95.5 -31q87 -23 123.5 -56t36.5 -89t-43.5 -89t-129.5 -33q-42 0 -91.5 13.5z" />
    <glyph glyph-name="Scircumflex" unicode="&#x15c;" horiz-adv-x="544" 
d="M268 935h22l128 -151h-31l-108 129l-108 -129h-31zM145.5 -6q-51.5 9 -85.5 23v25q85 -33 191 -33q207 0 207 152q0 50 -20.5 82t-61 54.5t-118.5 50.5q-101 37 -145 81.5t-44 117.5q0 76 57.5 121.5t153.5 45.5q51 0 92.5 -7.5t82.5 -24.5v-25q-42 17 -84 25t-91 8
q-87 0 -136 -40t-49 -103q0 -44 17 -74.5t56 -56t110 -51.5q77 -29 117 -50t64.5 -57.5t24.5 -96.5q0 -85 -59.5 -130.5t-173.5 -45.5q-54 0 -105.5 9z" />
    <glyph glyph-name="scircumflex" unicode="&#x15d;" horiz-adv-x="460" 
d="M222 714h22l128 -151h-31l-108 129l-108 -129h-31zM135.5 -1.5q-49.5 13.5 -75.5 33.5v25q37 -23 80.5 -35.5t87.5 -12.5q146 0 146 98q0 32 -12 53.5t-44.5 38.5t-95.5 34q-59 16 -92.5 31t-51.5 40t-18 67q0 61 47.5 92.5t125.5 31.5q87 0 139 -28v-25q-55 29 -139 29
q-69 0 -108 -25t-39 -75q0 -34 13.5 -54t45 -34t95.5 -31q87 -23 123.5 -56t36.5 -89t-43.5 -89t-129.5 -33q-42 0 -91.5 13.5z" />
    <glyph glyph-name="Scedilla" unicode="&#x15e;" horiz-adv-x="544" 
d="M434 38.5q-50 -45.5 -145 -52.5l-24 -60q48 -2 72.5 -26t24.5 -62q0 -39 -26.5 -62.5t-76.5 -23.5q-14 0 -30 2.5t-25 5.5v24q9 -4 25 -6t30 -2q77 0 77 63q0 35 -23.5 51.5t-82.5 16.5l30 78h-9q-54 0 -105.5 9t-85.5 23v25q85 -33 191 -33q207 0 207 152q0 50 -20.5 82
t-61 54.5t-118.5 50.5q-101 37 -145 81.5t-44 117.5q0 76 57.5 121.5t153.5 45.5q51 0 92.5 -7.5t82.5 -24.5v-25q-42 17 -84 25t-91 8q-87 0 -136 -40t-49 -103q0 -44 17 -74.5t56 -56t110 -51.5q77 -29 117 -50t64.5 -57.5t24.5 -96.5q0 -77 -50 -122.5z" />
    <glyph glyph-name="scedilla" unicode="&#x15f;" horiz-adv-x="460" 
d="M362.5 22.5q-37.5 -32.5 -111.5 -36.5l-23 -60q48 -2 72.5 -26t24.5 -62q0 -39 -26.5 -62.5t-76.5 -23.5q-14 0 -30 2.5t-25 5.5v24q9 -4 25 -6t30 -2q77 0 77 63q0 35 -23.5 51.5t-82.5 16.5l30 78q-41 1 -89 14.5t-74 32.5v25q37 -23 80.5 -35.5t87.5 -12.5
q146 0 146 98q0 32 -12 53.5t-44.5 38.5t-95.5 34q-59 16 -92.5 31t-51.5 40t-18 67q0 61 47.5 92.5t125.5 31.5q87 0 139 -28v-25q-55 29 -139 29q-69 0 -108 -25t-39 -75q0 -34 13.5 -54t45 -34t95.5 -31q87 -23 123.5 -56t36.5 -89q0 -52 -37.5 -84.5z" />
    <glyph glyph-name="Scaron" unicode="&#x160;" horiz-adv-x="544" 
d="M164 935h31l108 -129l108 129h31l-128 -151h-22zM145.5 -6q-51.5 9 -85.5 23v25q85 -33 191 -33q207 0 207 152q0 50 -20.5 82t-61 54.5t-118.5 50.5q-101 37 -145 81.5t-44 117.5q0 76 57.5 121.5t153.5 45.5q51 0 92.5 -7.5t82.5 -24.5v-25q-42 17 -84 25t-91 8
q-87 0 -136 -40t-49 -103q0 -44 17 -74.5t56 -56t110 -51.5q77 -29 117 -50t64.5 -57.5t24.5 -96.5q0 -85 -59.5 -130.5t-173.5 -45.5q-54 0 -105.5 9z" />
    <glyph glyph-name="scaron" unicode="&#x161;" horiz-adv-x="460" 
d="M94 713h31l108 -129l108 129h31l-128 -151h-22zM135.5 -1.5q-49.5 13.5 -75.5 33.5v25q37 -23 80.5 -35.5t87.5 -12.5q146 0 146 98q0 32 -12 53.5t-44.5 38.5t-95.5 34q-59 16 -92.5 31t-51.5 40t-18 67q0 61 47.5 92.5t125.5 31.5q87 0 139 -28v-25q-55 29 -139 29
q-69 0 -108 -25t-39 -75q0 -34 13.5 -54t45 -34t95.5 -31q87 -23 123.5 -56t36.5 -89t-43.5 -89t-129.5 -33q-42 0 -91.5 13.5z" />
    <glyph glyph-name="uni0162" unicode="&#x162;" horiz-adv-x="584" 
d="M306 0l-29 -74q48 -2 72.5 -26t24.5 -62q0 -39 -26.5 -62.5t-76.5 -23.5q-14 0 -30 2.5t-25 5.5v24q9 -4 25 -6t30 -2q77 0 77 63q0 35 -23.5 51.5t-82.5 16.5l36 93v675h-238v24h504v-24h-238v-675z" />
    <glyph glyph-name="uni0163" unicode="&#x163;" horiz-adv-x="355" 
d="M290.5 -100q24.5 -24 24.5 -62q0 -39 -26.5 -62.5t-76.5 -23.5q-14 0 -30 2.5t-25 5.5v24q9 -4 25 -6t30 -2q77 0 77 63q0 35 -23.5 51.5t-82.5 16.5l31 80q-45 8 -70 40.5t-25 92.5v336h-79v24h79v144h28v-144h127v-24h-127v-338q0 -56 25.5 -82.5t80.5 -26.5q28 0 50 7
v-25q-27 -6 -59 -6h-3l-23 -59q48 -2 72.5 -26z" />
    <glyph glyph-name="Tcaron" unicode="&#x164;" horiz-adv-x="584" 
d="M153 935h31l108 -129l108 129h31l-128 -151h-22zM278 675h-238v24h504v-24h-238v-675h-28v675z" />
    <glyph glyph-name="tcaron" unicode="&#x165;" horiz-adv-x="361" 
d="M290 774h31l-85 -189h-25zM152 18q-33 33 -33 102v336h-79v24h79v144h28v-144h127v-24h-127v-338q0 -56 25.5 -82.5t80.5 -26.5q28 0 50 7v-25q-27 -6 -59 -6q-59 0 -92 33z" />
    <glyph glyph-name="Tbar" unicode="&#x166;" horiz-adv-x="584" 
d="M278 331h-143v24h143v320h-238v24h504v-24h-238v-320h141v-24h-141v-331h-28v331z" />
    <glyph glyph-name="tbar" unicode="&#x167;" horiz-adv-x="344" 
d="M153 18q-33 33 -33 102v134h-79v24h79v178h-79v24h79v144h28v-144h127v-24h-127v-178h126v-24h-126v-136q0 -56 25.5 -82.5t80.5 -26.5q28 0 50 7v-25q-27 -6 -59 -6q-59 0 -92 33z" />
    <glyph glyph-name="Utilde" unicode="&#x168;" horiz-adv-x="670" 
d="M194 817q27 45 90 45q22 0 41.5 -6t47.5 -19q26 -12 45 -18.5t40 -6.5q27 0 49.5 12t40.5 42v-33q-27 -45 -90 -45q-25 0 -46 6.5t-47 19.5q-25 12 -42.5 18t-38.5 6q-27 0 -48.5 -12t-41.5 -42v33zM141 48.5q-66 63.5 -66 180.5v470h28v-480q0 -107 63 -158.5t169 -51.5
t169 51.5t63 158.5v480h28v-470q0 -117 -66 -180.5t-194 -63.5t-194 63.5z" />
    <glyph glyph-name="utilde" unicode="&#x169;" horiz-adv-x="573" 
d="M116 595q27 45 90 45q22 0 41.5 -6t47.5 -19q26 -12 45 -18.5t40 -6.5q27 0 49.5 12t40.5 42v-33q-27 -45 -90 -45q-25 0 -46 6.5t-47 19.5q-25 12 -42.5 18t-38.5 6q-27 0 -48.5 -12t-41.5 -42v33zM123.5 34.5q-48.5 49.5 -48.5 131.5v314h28v-312q0 -74 40 -116.5
t125 -42.5q63 0 110.5 28t86.5 90v353h28v-480h-28v89q-70 -104 -197 -104q-96 0 -144.5 49.5z" />
    <glyph glyph-name="Umacron" unicode="&#x16a;" horiz-adv-x="670" 
d="M196 837h278v-24h-278v24zM141 48.5q-66 63.5 -66 180.5v470h28v-480q0 -107 63 -158.5t169 -51.5t169 51.5t63 158.5v480h28v-470q0 -117 -66 -180.5t-194 -63.5t-194 63.5z" />
    <glyph glyph-name="umacron" unicode="&#x16b;" horiz-adv-x="573" 
d="M150 619h278v-24h-278v24zM123.5 34.5q-48.5 49.5 -48.5 131.5v314h28v-312q0 -74 40 -116.5t125 -42.5q63 0 110.5 28t86.5 90v353h28v-480h-28v89q-70 -104 -197 -104q-96 0 -144.5 49.5z" />
    <glyph glyph-name="Ubreve" unicode="&#x16c;" horiz-adv-x="670" 
d="M250 789q-33 31 -33 77h24q0 -37 25.5 -61t68.5 -24t68.5 24t25.5 61h24q0 -46 -33 -77t-85 -31t-85 31zM141 48.5q-66 63.5 -66 180.5v470h28v-480q0 -107 63 -158.5t169 -51.5t169 51.5t63 158.5v480h28v-470q0 -117 -66 -180.5t-194 -63.5t-194 63.5z" />
    <glyph glyph-name="ubreve" unicode="&#x16d;" horiz-adv-x="573" 
d="M198 593q-33 31 -33 77h24q0 -37 25.5 -61t68.5 -24t68.5 24t25.5 61h24q0 -46 -33 -77t-85 -31t-85 31zM123.5 34.5q-48.5 49.5 -48.5 131.5v314h28v-312q0 -74 40 -116.5t125 -42.5q63 0 110.5 28t86.5 90v353h28v-480h-28v89q-70 -104 -197 -104q-96 0 -144.5 49.5z
" />
    <glyph glyph-name="Uring" unicode="&#x16e;" horiz-adv-x="670" 
d="M271 787q-27 27 -27 64q0 38 27 64.5t64 26.5q38 0 64.5 -26.5t26.5 -64.5q0 -37 -26.5 -64t-64.5 -27q-37 0 -64 27zM384 801.5q20 20.5 20 49.5t-20 49.5t-49 20.5t-49 -20.5t-20 -49.5t20.5 -49.5t48.5 -20.5q29 0 49 20.5zM141 48.5q-66 63.5 -66 180.5v470h28v-480
q0 -107 63 -158.5t169 -51.5t169 51.5t63 158.5v480h28v-470q0 -117 -66 -180.5t-194 -63.5t-194 63.5z" />
    <glyph glyph-name="uring" unicode="&#x16f;" horiz-adv-x="573" 
d="M224 589q-27 27 -27 64q0 38 27 64.5t64 26.5q38 0 64.5 -26.5t26.5 -64.5q0 -37 -26.5 -64t-64.5 -27q-37 0 -64 27zM337 603.5q20 20.5 20 49.5t-20 49.5t-49 20.5t-49 -20.5t-20 -49.5t20.5 -49.5t48.5 -20.5q29 0 49 20.5zM123.5 34.5q-48.5 49.5 -48.5 131.5v314h28
v-312q0 -74 40 -116.5t125 -42.5q63 0 110.5 28t86.5 90v353h28v-480h-28v89q-70 -104 -197 -104q-96 0 -144.5 49.5z" />
    <glyph glyph-name="Uhungarumlaut" unicode="&#x170;" horiz-adv-x="670" 
d="M295 947h28l-77 -167h-22zM462 947h28l-77 -167h-22zM141 48.5q-66 63.5 -66 180.5v470h28v-480q0 -107 63 -158.5t169 -51.5t169 51.5t63 158.5v480h28v-470q0 -117 -66 -180.5t-194 -63.5t-194 63.5z" />
    <glyph glyph-name="uhungarumlaut" unicode="&#x171;" horiz-adv-x="573" 
d="M248 729h28l-77 -167h-22zM415 729h28l-77 -167h-22zM123.5 34.5q-48.5 49.5 -48.5 131.5v314h28v-312q0 -74 40 -116.5t125 -42.5q63 0 110.5 28t86.5 90v353h28v-480h-28v89q-70 -104 -197 -104q-96 0 -144.5 49.5z" />
    <glyph glyph-name="Uogonek" unicode="&#x172;" horiz-adv-x="670" 
d="M595 699v-470q0 -107 -55.5 -169.5t-162.5 -72.5q-63 -55 -63 -112q0 -28 15.5 -42.5t40.5 -14.5q27 0 46 8v-24q-18 -8 -46 -8q-34 0 -58 21t-24 60q0 31 15.5 60t41.5 50h-10q-128 0 -194 63.5t-66 180.5v470h28v-480q0 -107 63 -158.5t169 -51.5t169 51.5t63 158.5
v480h28z" />
    <glyph glyph-name="uogonek" unicode="&#x173;" horiz-adv-x="576" 
d="M516 -174v-24q-18 -8 -46 -8q-34 0 -58 21t-24 60q0 37 21.5 70t55.5 55v89q-70 -104 -197 -104q-96 0 -144.5 49.5t-48.5 131.5v314h28v-312q0 -74 40 -116.5t125 -42.5q63 0 110.5 28t86.5 90v353h28v-480q-79 -61 -79 -125q0 -28 15.5 -42.5t40.5 -14.5q27 0 46 8z
" />
    <glyph glyph-name="Wcircumflex" unicode="&#x174;" horiz-adv-x="1013" 
d="M495 935h22l128 -151h-31l-108 129l-108 -129h-31zM60 699h28l202 -652l202 652h29l202 -652l202 652h28l-219 -699h-22l-206 665l-205 -665h-22z" />
    <glyph glyph-name="wcircumflex" unicode="&#x175;" horiz-adv-x="766" 
d="M372 713h22l128 -151h-31l-108 129l-108 -129h-31zM60 480h27l139 -449l139 449h36l139 -449l139 449h27l-150 -480h-31l-142 461l-142 -461h-31z" />
    <glyph glyph-name="Ycircumflex" unicode="&#x176;" horiz-adv-x="658" 
d="M318 935h22l128 -151h-31l-108 129l-108 -129h-31zM315 265l-255 434h28l241 -410l241 410h28l-255 -434v-265h-28v265z" />
    <glyph glyph-name="ycircumflex" unicode="&#x177;" horiz-adv-x="531" 
d="M267 713h22l128 -151h-31l-108 129l-108 -129h-31zM70 -192v25q22 -7 53 -7q43 0 66 22.5t43 72.5l33 85l-205 474h28l191 -438l184 438h28l-234 -565q-24 -59 -53 -86t-75 -27q-32 0 -59 6z" />
    <glyph glyph-name="Ydieresis" unicode="&#x178;" horiz-adv-x="658" 
d="M210.5 810.5q-8.5 8.5 -8.5 19.5t8.5 19.5t19.5 8.5t19.5 -8.5t8.5 -19.5t-8.5 -19.5t-19.5 -8.5t-19.5 8.5zM408.5 810.5q-8.5 8.5 -8.5 19.5t8.5 19.5t19.5 8.5t19.5 -8.5t8.5 -19.5t-8.5 -19.5t-19.5 -8.5t-19.5 8.5zM315 265l-255 434h28l241 -410l241 410h28
l-255 -434v-265h-28v265z" />
    <glyph glyph-name="Zacute" unicode="&#x179;" horiz-adv-x="615" 
d="M341 951h28l-77 -167h-22zM60 26l452 649h-440v24h472v-26l-452 -649h463v-24h-495v26z" />
    <glyph glyph-name="zacute" unicode="&#x17a;" horiz-adv-x="466" 
d="M288 729h28l-77 -167h-22zM60 25l308 431h-300v24h330v-25l-308 -431h316v-24h-346v25z" />
    <glyph glyph-name="Zdotaccent" unicode="&#x17b;" horiz-adv-x="615" 
d="M280.5 798.5q-8.5 8.5 -8.5 19.5t8.5 19.5t19.5 8.5t19.5 -8.5t8.5 -19.5t-8.5 -19.5t-19.5 -8.5t-19.5 8.5zM60 26l452 649h-440v24h472v-26l-452 -649h463v-24h-495v26z" />
    <glyph glyph-name="zdotaccent" unicode="&#x17c;" horiz-adv-x="466" 
d="M219.5 580.5q-8.5 8.5 -8.5 19.5t8.5 19.5t19.5 8.5t19.5 -8.5t8.5 -19.5t-8.5 -19.5t-19.5 -8.5t-19.5 8.5zM60 25l308 431h-300v24h330v-25l-308 -431h316v-24h-346v25z" />
    <glyph glyph-name="Zcaron" unicode="&#x17d;" horiz-adv-x="615" 
d="M176 935h31l108 -129l108 129h31l-128 -151h-22zM60 26l452 649h-440v24h472v-26l-452 -649h463v-24h-495v26z" />
    <glyph glyph-name="zcaron" unicode="&#x17e;" horiz-adv-x="466" 
d="M108 713h31l108 -129l108 129h31l-128 -151h-22zM60 25l308 431h-300v24h330v-25l-308 -431h316v-24h-346v25z" />
    <glyph glyph-name="uni018F" unicode="&#x18f;" horiz-adv-x="816" 
d="M217.5 29.5q-78.5 44.5 -118 122t-39.5 176.5v26h670q0 162 -94 249.5t-262 87.5q-67 0 -130.5 -11.5t-110.5 -30.5v24q40 16 109.5 28.5t131.5 12.5q183 0 282.5 -95.5t99.5 -269.5q0 -111 -40 -193t-118 -126.5t-189 -44.5q-113 0 -191.5 44.5zM587 50.5
q72 42.5 107.5 115.5t35.5 165h-644q0 -93 35 -165.5t107.5 -115t180.5 -42.5q106 0 178 42.5z" />
    <glyph glyph-name="florin" unicode="&#x192;" horiz-adv-x="528" 
d="M-75 -223v25q20 -8 54 -8q54 0 85 26.5t43 82.5l117 553h-93v24h99l27 129q15 72 53 103.5t98 31.5q38 0 60 -7v-24q-21 7 -57 7q-58 0 -86.5 -27t-39.5 -82l-27 -131h147v-24h-153l-117 -551q-28 -135 -152 -135q-34 0 -58 7z" />
    <glyph glyph-name="Ohorn" unicode="&#x1a0;" horiz-adv-x="824" 
d="M236.5 30.5q-82.5 45.5 -129.5 128.5t-47 190t47 190t129.5 129t184.5 46q74 0 138 -24.5t112 -69.5q42 1 70.5 27.5t28.5 62.5v37h24v-37q0 -40 -29 -71.5t-73 -39.5q43 -48 66.5 -112t23.5 -138q0 -107 -47 -190t-129.5 -128.5t-184.5 -45.5t-184.5 45.5zM589.5 50.5
q76.5 41.5 121.5 119t45 179.5t-44 179.5t-120.5 119.5t-170.5 42t-170.5 -42t-120.5 -119.5t-44 -179.5t45 -179.5t121.5 -119t168.5 -41.5t168.5 41.5z" />
    <glyph glyph-name="ohorn" unicode="&#x1a1;" horiz-adv-x="631" 
d="M182.5 17q-57.5 32 -90 90t-32.5 133t32.5 133t90 90t128.5 32q51 0 95 -16.5t77 -47.5q40 4 67 30t27 60v37h24v-37q0 -39 -28 -69.5t-71 -40.5q29 -33 44.5 -76.5t15.5 -94.5q0 -75 -32.5 -133t-90 -90t-128.5 -32t-128.5 32zM427 37.5q51 28.5 80 80.5t29 122
q0 69 -29 121.5t-80 81t-116 28.5t-116 -28.5t-80 -81t-29 -121.5q0 -70 29 -122t80 -80.5t116 -28.5t116 28.5z" />
    <glyph glyph-name="Uhorn" unicode="&#x1af;" horiz-adv-x="763" 
d="M141 48.5q-66 63.5 -66 180.5v470h28v-480q0 -107 63 -158.5t169 -51.5t169 51.5t63 158.5v480h28v-79q44 0 74 26.5t30 63.5v37h24v-37q0 -30 -17.5 -56t-47 -41.5t-63.5 -15.5v-368q0 -117 -66 -180.5t-194 -63.5t-194 63.5z" />
    <glyph glyph-name="uhorn" unicode="&#x1b0;" horiz-adv-x="661" 
d="M123.5 34.5q-48.5 49.5 -48.5 131.5v314h28v-312q0 -74 40 -116.5t125 -42.5q63 0 110.5 28t86.5 90v353h28v-49q44 0 74 26.5t30 63.5v37h24v-37q0 -30 -17.5 -56t-47 -41.5t-63.5 -15.5v-408h-28v89q-70 -104 -197 -104q-96 0 -144.5 49.5z" />
    <glyph glyph-name="uni01CD" unicode="&#x1cd;" horiz-adv-x="700" 
d="M211 935h31l108 -129l108 129h31l-128 -151h-22zM339 699h22l279 -699h-28l-86 215h-352l-86 -215h-28zM516 239l-166 418l-166 -418h332z" />
    <glyph glyph-name="uni01CE" unicode="&#x1ce;" horiz-adv-x="554" 
d="M160 713h31l108 -129l108 129h31l-128 -151h-22zM110.5 23.5q-50.5 38.5 -50.5 110.5q0 151 190 151q118 0 201 -49v81q0 78 -41.5 116t-133.5 38q-78 0 -150 -29v25q29 12 70 20t80 8q203 0 203 -179v-316h-25v77q-65 -92 -208 -92q-85 0 -135.5 38.5zM373.5 36
q52.5 27 77.5 75v101q-48 26 -94 37.5t-107 11.5q-88 0 -126 -31.5t-38 -95.5q0 -60 41.5 -92.5t126.5 -32.5q67 0 119.5 27z" />
    <glyph glyph-name="uni01CF" unicode="&#x1cf;" horiz-adv-x="188" 
d="M-45 935h31l108 -129l108 129h31l-128 -151h-22zM80 699h28v-699h-28v699z" />
    <glyph glyph-name="uni01D0" unicode="&#x1d0;" horiz-adv-x="188" 
d="M-45 713h31l108 -129l108 129h31l-128 -151h-22zM80 480h28v-480h-28v480z" />
    <glyph glyph-name="uni01D1" unicode="&#x1d1;" horiz-adv-x="842" 
d="M282 935h31l108 -129l108 129h31l-128 -151h-22zM236.5 30.5q-82.5 45.5 -129.5 128.5t-47 190t47 190t129.5 129t184.5 46t184.5 -46t129.5 -129t47 -190t-47 -190t-129.5 -128.5t-184.5 -45.5t-184.5 45.5zM589.5 50.5q76.5 41.5 121.5 119t45 179.5t-44 179.5
t-120.5 119.5t-170.5 42t-170.5 -42t-120.5 -119.5t-44 -179.5t45 -179.5t121.5 -119t168.5 -41.5t168.5 41.5z" />
    <glyph glyph-name="uni01D2" unicode="&#x1d2;" horiz-adv-x="622" 
d="M172 713h31l108 -129l108 129h31l-128 -151h-22zM182 17q-57 32 -89.5 90t-32.5 133t32.5 133t89.5 90t129 32t129 -32t89.5 -90t32.5 -133t-32.5 -133t-89.5 -90t-129 -32t-129 32zM427 37.5q51 28.5 80 80.5t29 122q0 69 -29 121.5t-80 81t-116 28.5t-116 -28.5
t-80 -81t-29 -121.5q0 -70 29 -122t80 -80.5t116 -28.5t116 28.5z" />
    <glyph glyph-name="uni01D3" unicode="&#x1d3;" horiz-adv-x="670" 
d="M196 935h31l108 -129l108 129h31l-128 -151h-22zM141 48.5q-66 63.5 -66 180.5v470h28v-480q0 -107 63 -158.5t169 -51.5t169 51.5t63 158.5v480h28v-470q0 -117 -66 -180.5t-194 -63.5t-194 63.5z" />
    <glyph glyph-name="uni01D4" unicode="&#x1d4;" horiz-adv-x="573" 
d="M147 713h31l108 -129l108 129h31l-128 -151h-22zM123.5 34.5q-48.5 49.5 -48.5 131.5v314h28v-312q0 -74 40 -116.5t125 -42.5q63 0 110.5 28t86.5 90v353h28v-480h-28v89q-70 -104 -197 -104q-96 0 -144.5 49.5z" />
    <glyph glyph-name="uni01D5" unicode="&#x1d5;" horiz-adv-x="670" 
d="M196 933h278v-24h-278v24zM216.5 766.5q-8.5 8.5 -8.5 19.5t8.5 19.5t19.5 8.5t19.5 -8.5t8.5 -19.5t-8.5 -19.5t-19.5 -8.5t-19.5 8.5zM414.5 766.5q-8.5 8.5 -8.5 19.5t8.5 19.5t19.5 8.5t19.5 -8.5t8.5 -19.5t-8.5 -19.5t-19.5 -8.5t-19.5 8.5zM141 48.5
q-66 63.5 -66 180.5v470h28v-480q0 -107 63 -158.5t169 -51.5t169 51.5t63 158.5v480h28v-470q0 -117 -66 -180.5t-194 -63.5t-194 63.5z" />
    <glyph glyph-name="uni01D6" unicode="&#x1d6;" horiz-adv-x="573" 
d="M144 733h278v-24h-278v24zM165.5 592.5q-8.5 8.5 -8.5 19.5t8.5 19.5t19.5 8.5t19.5 -8.5t8.5 -19.5t-8.5 -19.5t-19.5 -8.5t-19.5 8.5zM363.5 592.5q-8.5 8.5 -8.5 19.5t8.5 19.5t19.5 8.5t19.5 -8.5t8.5 -19.5t-8.5 -19.5t-19.5 -8.5t-19.5 8.5zM123.5 34.5
q-48.5 49.5 -48.5 131.5v314h28v-312q0 -74 40 -116.5t125 -42.5q63 0 110.5 28t86.5 90v353h28v-480h-28v89q-70 -104 -197 -104q-96 0 -144.5 49.5z" />
    <glyph glyph-name="uni01D7" unicode="&#x1d7;" horiz-adv-x="670" 
d="M380 963h28l-66 -132h-22zM220.5 792.5q-8.5 8.5 -8.5 19.5t8.5 19.5t19.5 8.5t19.5 -8.5t8.5 -19.5t-8.5 -19.5t-19.5 -8.5t-19.5 8.5zM418.5 792.5q-8.5 8.5 -8.5 19.5t8.5 19.5t19.5 8.5t19.5 -8.5t8.5 -19.5t-8.5 -19.5t-19.5 -8.5t-19.5 8.5zM141 48.5
q-66 63.5 -66 180.5v470h28v-480q0 -107 63 -158.5t169 -51.5t169 51.5t63 158.5v480h28v-470q0 -117 -66 -180.5t-194 -63.5t-194 63.5z" />
    <glyph glyph-name="uni01D8" unicode="&#x1d8;" horiz-adv-x="573" 
d="M326 752h28l-66 -132h-22zM166.5 581.5q-8.5 8.5 -8.5 19.5t8.5 19.5t19.5 8.5t19.5 -8.5t8.5 -19.5t-8.5 -19.5t-19.5 -8.5t-19.5 8.5zM364.5 581.5q-8.5 8.5 -8.5 19.5t8.5 19.5t19.5 8.5t19.5 -8.5t8.5 -19.5t-8.5 -19.5t-19.5 -8.5t-19.5 8.5zM123.5 34.5
q-48.5 49.5 -48.5 131.5v314h28v-312q0 -74 40 -116.5t125 -42.5q63 0 110.5 28t86.5 90v353h28v-480h-28v89q-70 -104 -197 -104q-96 0 -144.5 49.5z" />
    <glyph glyph-name="uni01D9" unicode="&#x1d9;" horiz-adv-x="670" 
d="M217 963h31l89 -110l89 110h31l-109 -132h-22zM218.5 792.5q-8.5 8.5 -8.5 19.5t8.5 19.5t19.5 8.5t19.5 -8.5t8.5 -19.5t-8.5 -19.5t-19.5 -8.5t-19.5 8.5zM416.5 792.5q-8.5 8.5 -8.5 19.5t8.5 19.5t19.5 8.5t19.5 -8.5t8.5 -19.5t-8.5 -19.5t-19.5 -8.5t-19.5 8.5z
M141 48.5q-66 63.5 -66 180.5v470h28v-480q0 -107 63 -158.5t169 -51.5t169 51.5t63 158.5v480h28v-470q0 -117 -66 -180.5t-194 -63.5t-194 63.5z" />
    <glyph glyph-name="uni01DA" unicode="&#x1da;" horiz-adv-x="573" 
d="M165 750h31l89 -110l89 110h31l-109 -132h-22zM166.5 579.5q-8.5 8.5 -8.5 19.5t8.5 19.5t19.5 8.5t19.5 -8.5t8.5 -19.5t-8.5 -19.5t-19.5 -8.5t-19.5 8.5zM364.5 579.5q-8.5 8.5 -8.5 19.5t8.5 19.5t19.5 8.5t19.5 -8.5t8.5 -19.5t-8.5 -19.5t-19.5 -8.5t-19.5 8.5z
M123.5 34.5q-48.5 49.5 -48.5 131.5v314h28v-312q0 -74 40 -116.5t125 -42.5q63 0 110.5 28t86.5 90v353h28v-480h-28v89q-70 -104 -197 -104q-96 0 -144.5 49.5z" />
    <glyph glyph-name="uni01DB" unicode="&#x1db;" horiz-adv-x="670" 
d="M265 963h28l60 -132h-22zM215.5 792.5q-8.5 8.5 -8.5 19.5t8.5 19.5t19.5 8.5t19.5 -8.5t8.5 -19.5t-8.5 -19.5t-19.5 -8.5t-19.5 8.5zM413.5 792.5q-8.5 8.5 -8.5 19.5t8.5 19.5t19.5 8.5t19.5 -8.5t8.5 -19.5t-8.5 -19.5t-19.5 -8.5t-19.5 8.5zM141 48.5
q-66 63.5 -66 180.5v470h28v-480q0 -107 63 -158.5t169 -51.5t169 51.5t63 158.5v480h28v-470q0 -117 -66 -180.5t-194 -63.5t-194 63.5z" />
    <glyph glyph-name="uni01DC" unicode="&#x1dc;" horiz-adv-x="573" 
d="M208 752h28l60 -132h-22zM158.5 581.5q-8.5 8.5 -8.5 19.5t8.5 19.5t19.5 8.5t19.5 -8.5t8.5 -19.5t-8.5 -19.5t-19.5 -8.5t-19.5 8.5zM356.5 581.5q-8.5 8.5 -8.5 19.5t8.5 19.5t19.5 8.5t19.5 -8.5t8.5 -19.5t-8.5 -19.5t-19.5 -8.5t-19.5 8.5zM123.5 34.5
q-48.5 49.5 -48.5 131.5v314h28v-312q0 -74 40 -116.5t125 -42.5q63 0 110.5 28t86.5 90v353h28v-480h-28v89q-70 -104 -197 -104q-96 0 -144.5 49.5z" />
    <glyph glyph-name="Gcaron" unicode="&#x1e6;" horiz-adv-x="728" 
d="M279 935h31l108 -129l108 129h31l-128 -151h-22zM236.5 30.5q-82.5 45.5 -129.5 128.5t-47 190t47 190t129.5 129t184.5 46q147 0 237 -79v-30q-88 85 -237 85q-94 0 -170.5 -42t-120.5 -119.5t-44 -179.5t45 -179.5t121.5 -119t168.5 -41.5q68 0 120.5 16t98.5 52v262
h-177v24h205v-291q-87 -87 -247 -87q-102 0 -184.5 45.5z" />
    <glyph glyph-name="gcaron" unicode="&#x1e7;" horiz-adv-x="648" 
d="M188 713h31l108 -129l108 129h31l-128 -151h-22zM227.5 -221q-45.5 9 -73.5 24v25q71 -34 168 -34q218 0 218 211v110q-30 -63 -93 -96.5t-137 -33.5q-69 0 -126.5 32t-90.5 90t-33 134t33.5 134t90.5 89t126 31q78 0 137 -33t93 -95v113h28v-469q0 -241 -246 -241
q-49 0 -94.5 9zM455 52.5q65 43.5 85 117.5v142q-23 74 -87 116.5t-143 42.5q-61 0 -112 -28.5t-81.5 -81t-30.5 -120.5q0 -69 30.5 -122t81.5 -81.5t112 -28.5q80 0 145 43.5z" />
    <glyph glyph-name="Aringacute" unicode="&#x1fa;" horiz-adv-x="700" 
d="M407 1027h28l-77 -133h-22zM331 680q-31 6 -51.5 31t-20.5 58q0 38 27 64.5t64 26.5q38 0 64.5 -26.5t26.5 -64.5q0 -33 -21 -58t-52 -31l272 -680h-28l-86 215h-352l-86 -215h-28zM356 699q27 2 45 22.5t18 47.5q0 29 -20 49.5t-49 20.5t-49 -20.5t-20 -49.5
q0 -27 18.5 -47.5t44.5 -22.5h12zM516 239l-166 418l-166 -418h332z" />
    <glyph glyph-name="aringacute" unicode="&#x1fb;" horiz-adv-x="554" 
d="M343 927h28l-77 -133h-22zM221 569q-27 27 -27 64q0 38 27 64.5t64 26.5q38 0 64.5 -26.5t26.5 -64.5q0 -37 -26.5 -64t-64.5 -27q-37 0 -64 27zM334 583.5q20 20.5 20 49.5t-20 49.5t-49 20.5t-49 -20.5t-20 -49.5t20.5 -49.5t48.5 -20.5q29 0 49 20.5zM110.5 23.5
q-50.5 38.5 -50.5 110.5q0 151 190 151q118 0 201 -49v81q0 78 -41.5 116t-133.5 38q-78 0 -150 -29v25q29 12 70 20t80 8q203 0 203 -179v-316h-25v77q-65 -92 -208 -92q-85 0 -135.5 38.5zM373.5 36q52.5 27 77.5 75v101q-48 26 -94 37.5t-107 11.5q-88 0 -126 -31.5
t-38 -95.5q0 -60 41.5 -92.5t126.5 -32.5q67 0 119.5 27z" />
    <glyph glyph-name="AEacute" unicode="&#x1fc;" horiz-adv-x="917" 
d="M563 951h28l-77 -167h-22zM441 699h416v-24h-349v-313h253v-24h-253v-314h349v-24h-377v215h-275l-117 -215h-28zM480 239v436h-24l-238 -436h262z" />
    <glyph glyph-name="aeacute" unicode="&#x1fd;" horiz-adv-x="1001" 
d="M523 729h28l-77 -167h-22zM110.5 23.5q-50.5 38.5 -50.5 110.5q0 151 190 151q118 0 201 -49v81q0 78 -41.5 116t-133.5 38q-78 0 -150 -29v25q29 12 70 20t80 8q174 0 198 -136q27 64 84 100t139 36q79 0 134 -31t82.5 -85t27.5 -124v-25h-462q0 -110 65.5 -166
t176.5 -56q46 0 90.5 8.5t78.5 21.5v-24q-28 -12 -76.5 -20.5t-92.5 -8.5q-96 0 -159 37.5t-89 109.5q-22 -73 -75 -110t-152 -37q-85 0 -135.5 38.5zM916 253q0 99 -54.5 159t-164.5 60q-107 0 -162.5 -61t-55.5 -158h437zM399 51q52 42 52 122v39q-48 26 -94 37.5
t-107 11.5q-88 0 -126 -31.5t-38 -95.5q0 -60 41.5 -92.5t126.5 -32.5q93 0 145 42z" />
    <glyph glyph-name="Oslashacute" unicode="&#x1fe;" horiz-adv-x="842" 
d="M490 951h28l-77 -167h-22zM278 11q-100 39 -159 128t-59 210q0 107 47 190t129.5 129t184.5 46q67 0 131 -22l37 92h28l-41 -101q95 -41 150.5 -129t55.5 -205q0 -107 -47 -190t-129.5 -128.5t-184.5 -45.5q-62 0 -119 17l-35 -88h-28zM543 669q-57 21 -122 21
q-94 0 -170.5 -42t-120.5 -119.5t-44 -179.5q0 -114 55 -196.5t146 -118.5zM589.5 50.5q76.5 41.5 121.5 119t45 179.5q0 110 -51.5 191t-137.5 120l-256 -635q51 -16 110 -16q92 0 168.5 41.5z" />
    <glyph glyph-name="oslashacute" unicode="&#x1ff;" horiz-adv-x="622" 
d="M349 729h28l-77 -167h-22zM206 5q-67 28 -106.5 90t-39.5 145q0 75 32.5 133t90 90t128.5 32q44 0 86 -14l34 85h28l-38 -94q65 -30 103 -90.5t38 -141.5q0 -75 -32.5 -133t-90 -90t-128.5 -32q-42 0 -80 12l-33 -83h-28zM388 459q-36 12 -77 12q-65 0 -116 -28.5
t-80 -81t-29 -121.5q0 -77 34.5 -132.5t94.5 -80.5zM427 37.5q51 28.5 80 80.5t29 122q0 74 -33.5 128.5t-90.5 81.5l-172 -431q31 -10 71 -10q65 0 116 28.5z" />
    <glyph glyph-name="Scommaaccent" unicode="&#x218;" horiz-adv-x="544" 
d="M145.5 -6q-51.5 9 -85.5 23v25q85 -33 191 -33q207 0 207 152q0 50 -20.5 82t-61 54.5t-118.5 50.5q-101 37 -145 81.5t-44 117.5q0 76 57.5 121.5t153.5 45.5q51 0 92.5 -7.5t82.5 -24.5v-25q-42 17 -84 25t-91 8q-87 0 -136 -40t-49 -103q0 -44 17 -74.5t56 -56
t110 -51.5q77 -29 117 -50t64.5 -57.5t24.5 -96.5q0 -85 -59.5 -130.5t-173.5 -45.5q-54 0 -105.5 9zM277 -70h31l-85 -189h-25z" />
    <glyph glyph-name="scommaaccent" unicode="&#x219;" horiz-adv-x="460" 
d="M135.5 -1.5q-49.5 13.5 -75.5 33.5v25q37 -23 80.5 -35.5t87.5 -12.5q146 0 146 98q0 32 -12 53.5t-44.5 38.5t-95.5 34q-59 16 -92.5 31t-51.5 40t-18 67q0 61 47.5 92.5t125.5 31.5q87 0 139 -28v-25q-55 29 -139 29q-69 0 -108 -25t-39 -75q0 -34 13.5 -54t45 -34
t95.5 -31q87 -23 123.5 -56t36.5 -89t-43.5 -89t-129.5 -33q-42 0 -91.5 13.5zM229 -70h31l-85 -189h-25z" />
    <glyph glyph-name="uni021A" unicode="&#x21a;" horiz-adv-x="584" 
d="M278 675h-238v24h504v-24h-238v-675h-28v675zM278 -70h31l-85 -189h-25z" />
    <glyph glyph-name="uni021B" unicode="&#x21b;" horiz-adv-x="343" 
d="M152 18q-33 33 -33 102v336h-79v24h79v144h28v-144h127v-24h-127v-338q0 -56 25.5 -82.5t80.5 -26.5q28 0 50 7v-25q-27 -6 -59 -6q-59 0 -92 33zM211 -70h31l-85 -189h-25z" />
    <glyph glyph-name="uni0237" unicode="&#x237;" horiz-adv-x="197" 
d="M-60 -225v25q22 -7 50 -7q55 0 77 25.5t22 83.5v578h28v-576q0 -135 -118 -135q-32 0 -59 6z" />
    <glyph glyph-name="uni0251" unicode="&#x251;" horiz-adv-x="648" 
d="M184 16q-57 31 -90.5 89t-33.5 134t33 134t90.5 90t126.5 32q74 0 137.5 -33.5t92.5 -96.5v115h28v-480h-28v113q-34 -62 -93 -95t-137 -33q-69 0 -126 31zM455.5 51q61.5 42 84.5 117v142q-21 75 -84 118t-146 43q-61 0 -112.5 -28.5t-81.5 -81.5t-30 -122t30 -121
t81.5 -80.5t112.5 -28.5q84 0 145.5 42z" />
    <glyph glyph-name="uni0259" unicode="&#x259;" horiz-adv-x="607" 
d="M170 16q-55 31 -82.5 85t-27.5 124v25h462q0 108 -65 165t-177 57q-46 0 -90.5 -8.5t-78.5 -21.5v24q28 12 76.5 20.5t92.5 8.5q128 0 197.5 -67t69.5 -188q0 -118 -63.5 -186.5t-179.5 -68.5q-79 0 -134 31zM467.5 70q54.5 62 54.5 157h-437q0 -99 54.5 -159t164.5 -60
q109 0 163.5 62z" />
    <glyph glyph-name="uni02BB" unicode="&#x2bb;" horiz-adv-x="220" 
d="M135 714h25l-69 -189h-31z" />
    <glyph glyph-name="uni02BC" unicode="&#x2bc;" horiz-adv-x="220" 
d="M129 714h31l-75 -189h-25z" />
    <glyph glyph-name="uni02BE" unicode="&#x2be;" 
d="M-54 589q37 0 60 20.5t23 59.5t-22.5 59.5t-60.5 20.5v23q46 0 76 -27.5t30 -75.5t-30 -75.5t-76 -27.5v23z" />
    <glyph glyph-name="uni02BF" unicode="&#x2bf;" 
d="M-24 593.5q-30 27.5 -30 75.5t30 75.5t76 27.5v-23q-38 0 -60.5 -20.5t-22.5 -59.5t23 -59.5t60 -20.5v-23q-46 0 -76 27.5z" />
    <glyph glyph-name="circumflex" unicode="&#x2c6;" horiz-adv-x="398" 
d="M188 769h22l128 -151h-31l-108 129l-108 -129h-31z" />
    <glyph glyph-name="caron" unicode="&#x2c7;" horiz-adv-x="398" 
d="M60 769h31l108 -129l108 129h31l-128 -151h-22z" />
    <glyph glyph-name="uni02C8" unicode="&#x2c8;" 
d="M-14 741h27v-147h-27v147z" />
    <glyph glyph-name="uni02C9" unicode="&#x2c9;" horiz-adv-x="589" 
d="M158 659h278v-24h-278v24z" />
    <glyph glyph-name="uni02CA" unicode="&#x2ca;" 
d="M27 769h28l-77 -167h-22z" />
    <glyph glyph-name="uni02CB" unicode="&#x2cb;" 
d="M33 769h22l-71 -167h-28z" />
    <glyph glyph-name="uni02CC" unicode="&#x2cc;" 
d="M-14 -71h27v-147h-27v147z" />
    <glyph glyph-name="breve" unicode="&#x2d8;" horiz-adv-x="356" 
d="M93 611q-33 31 -33 77h24q0 -37 25.5 -61t68.5 -24t68.5 24t25.5 61h24q0 -46 -33 -77t-85 -31t-85 31z" />
    <glyph glyph-name="dotaccent" unicode="&#x2d9;" horiz-adv-x="176" 
d="M68.5 620.5q-8.5 8.5 -8.5 19.5t8.5 19.5t19.5 8.5t19.5 -8.5t8.5 -19.5t-8.5 -19.5t-19.5 -8.5t-19.5 8.5z" />
    <glyph glyph-name="ring" unicode="&#x2da;" horiz-adv-x="302" 
d="M87 609q-27 27 -27 64q0 38 27 64.5t64 26.5q38 0 64.5 -26.5t26.5 -64.5q0 -37 -26.5 -64t-64.5 -27q-37 0 -64 27zM200 623.5q20 20.5 20 49.5t-20 49.5t-49 20.5t-49 -20.5t-20 -49.5t20.5 -49.5t48.5 -20.5q29 0 49 20.5z" />
    <glyph glyph-name="ogonek" unicode="&#x2db;" horiz-adv-x="248" 
d="M84 -185q-24 21 -24 60q0 37 21.5 70t55.5 55h28q-79 -61 -79 -125q0 -28 15.5 -42.5t40.5 -14.5q27 0 46 8v-24q-18 -8 -46 -8q-34 0 -58 21z" />
    <glyph glyph-name="tilde" unicode="&#x2dc;" horiz-adv-x="474" 
d="M60 653q27 45 90 45q22 0 41.5 -6t47.5 -19q26 -12 45 -18.5t40 -6.5q27 0 49.5 12t40.5 42v-33q-27 -45 -90 -45q-25 0 -46 6.5t-47 19.5q-25 12 -42.5 18t-38.5 6q-27 0 -48.5 -12t-41.5 -42v33z" />
    <glyph glyph-name="hungarumlaut" unicode="&#x2dd;" horiz-adv-x="386" 
d="M131 739h28l-77 -167h-22zM298 739h28l-77 -167h-22z" />
    <glyph glyph-name="gravecomb" unicode="&#x300;" 
d="M-413 769h28l71 -167h-22z" />
    <glyph glyph-name="acutecomb" unicode="&#x301;" 
d="M-213 769h28l-77 -167h-22z" />
    <glyph glyph-name="uni0302" unicode="&#x302;" 
d="M-11 759h22l128 -151h-31l-108 129l-108 -129h-31z" />
    <glyph glyph-name="tildecomb" unicode="&#x303;" 
d="M-485 653q27 45 90 45q22 0 41.5 -6t47.5 -19q26 -12 44.5 -18.5t40.5 -6.5q27 0 49.5 12t40.5 42v-33q-27 -45 -90 -45q-25 0 -46 6.5t-47 19.5q-25 12 -42.5 18t-38.5 6q-27 0 -48.5 -12t-41.5 -42v33z" />
    <glyph glyph-name="uni0304" unicode="&#x304;" 
d="M-133 659h278v-24h-278v24z" />
    <glyph glyph-name="uni0306" unicode="&#x306;" 
d="M-85 611q-33 31 -33 77h24q0 -37 25.5 -61t68.5 -24t68.5 24t25.5 61h24q0 -46 -33 -77t-85 -31t-85 31z" />
    <glyph glyph-name="uni0307" unicode="&#x307;" 
d="M-19.5 620.5q-8.5 8.5 -8.5 19.5t8.5 19.5t19.5 8.5t19.5 -8.5t8.5 -19.5t-8.5 -19.5t-19.5 -8.5t-19.5 8.5z" />
    <glyph glyph-name="uni0308" unicode="&#x308;" 
d="M-118.5 620.5q-8.5 8.5 -8.5 19.5t8.5 19.5t19.5 8.5t19.5 -8.5t8.5 -19.5t-8.5 -19.5t-19.5 -8.5t-19.5 8.5zM79.5 620.5q-8.5 8.5 -8.5 19.5t8.5 19.5t19.5 8.5t19.5 -8.5t8.5 -19.5t-8.5 -19.5t-19.5 -8.5t-19.5 8.5z" />
    <glyph glyph-name="hookabovecomb" unicode="&#x309;" 
d="M-355 629q52 0 73 16.5t21 50.5q0 63 -77 63q-14 0 -30 -2t-25 -6v24q9 3 25 5.5t30 2.5q50 0 76.5 -23.5t26.5 -62.5q0 -38 -25 -61.5t-72 -25.5v-44h-23v63z" />
    <glyph glyph-name="uni030A" unicode="&#x30a;" 
d="M-64.5 609q-26.5 27 -26.5 64q0 38 26.5 64.5t64.5 26.5t64.5 -26.5t26.5 -64.5q0 -37 -26.5 -64t-64.5 -27t-64.5 27zM49 623.5q20 20.5 20 49.5t-20 49.5t-49 20.5t-49 -20.5t-20 -49.5t20.5 -49.5t48.5 -20.5q29 0 49 20.5z" />
    <glyph glyph-name="uni030B" unicode="&#x30b;" 
d="M-66 769h28l-77 -167h-22zM101 769h28l-77 -167h-22z" />
    <glyph glyph-name="uni030C" unicode="&#x30c;" 
d="M-139 759h31l108 -129l108 129h31l-128 -151h-22z" />
    <glyph glyph-name="uni031B" unicode="&#x31b;" 
d="M-65 620q44 0 74 26.5t30 63.5v37h24v-37q0 -30 -17.5 -56t-47 -41.5t-63.5 -15.5v23z" />
    <glyph glyph-name="dotbelowcomb" unicode="&#x323;" 
d="M-19.5 -112.5q-8.5 8.5 -8.5 19.5t8.5 19.5t19.5 8.5t19.5 -8.5t8.5 -19.5t-8.5 -19.5t-19.5 -8.5t-19.5 8.5z" />
    <glyph glyph-name="uni0324" unicode="&#x324;" 
d="M-118.5 -112.5q-8.5 8.5 -8.5 19.5t8.5 19.5t19.5 8.5t19.5 -8.5t8.5 -19.5t-8.5 -19.5t-19.5 -8.5t-19.5 8.5zM79.5 -112.5q-8.5 8.5 -8.5 19.5t8.5 19.5t19.5 8.5t19.5 -8.5t8.5 -19.5t-8.5 -19.5t-19.5 -8.5t-19.5 8.5z" />
    <glyph glyph-name="uni0326" unicode="&#x326;" 
d="M-91 -70h31l-85 -189h-25z" />
    <glyph glyph-name="uni0327" unicode="&#x327;" 
d="M-48 -245.5q-16 2.5 -25 5.5v24q9 -4 25 -6t30 -2q77 0 77 63q0 35 -23.5 51.5t-82.5 16.5l36 93h28l-29 -74q48 -2 72.5 -26t24.5 -62q0 -39 -26.5 -62.5t-76.5 -23.5q-14 0 -30 2.5z" />
    <glyph glyph-name="uni0328" unicode="&#x328;" 
d="M-36 -185q-24 21 -24 60q0 37 21.5 70t55.5 55h28q-79 -61 -79 -125q0 -28 15.5 -42.5t40.5 -14.5q27 0 46 8v-24q-18 -8 -46 -8q-34 0 -58 21z" />
    <glyph glyph-name="uni032E" unicode="&#x32e;" 
d="M-85 -144q-33 31 -33 77h24q0 -37 25.5 -61t68.5 -24t68.5 24t25.5 61h24q0 -46 -33 -77t-85 -31t-85 31z" />
    <glyph glyph-name="uni0331" unicode="&#x331;" 
d="M-133 -86h278v-24h-278v24z" />
    <glyph glyph-name="uni0394" unicode="&#x394;" horiz-adv-x="680" 
d="M60 25l260 689h40l260 -689v-25h-560v25zM592 24l-252 671l-253 -671h505z" />
    <glyph glyph-name="uni03A9" unicode="&#x3a9;" horiz-adv-x="828" 
d="M60 24h197q-93 52 -144.5 137t-51.5 203q0 97 44 177t124.5 126.5t184.5 46.5t184.5 -46.5t124.5 -126.5t44 -177q0 -118 -51.5 -203t-144.5 -137h197v-24h-245v21q114 59 166 143.5t52 199.5q0 93 -42 167t-116.5 116.5t-168.5 42.5t-168.5 -42.5t-116.5 -116.5
t-42 -167q0 -115 52 -199.5t166 -143.5v-21h-245v24z" />
    <glyph glyph-name="uni03BC" unicode="&#x3bc;" horiz-adv-x="578" 
d="M80 480h28v-315q0 -74 39.5 -115t125.5 -41q63 0 110.5 28t86.5 90v353h28v-480h-28v89q-70 -104 -197 -104q-60 0 -101 19.5t-64 55.5v-279h-28v699z" />
    <glyph glyph-name="pi" unicode="&#x3c0;" horiz-adv-x="702" 
d="M478 110v346h-285v-456h-28v456h-115v24h571v-24h-115v-348q0 -52 22.5 -75.5t73.5 -23.5q28 0 50 7v-25q-27 -6 -59 -6q-115 0 -115 125z" />
    <glyph glyph-name="uni0E01" unicode="&#xe01;" horiz-adv-x="613" 
d="M110 354l-50 75q47 60 106.5 90.5t147.5 30.5q107 0 163 -50t56 -142v-358h-28v354q0 88 -48 130t-143 42q-74 0 -126 -22.5t-97 -74.5l47 -71v-358h-28v354z" />
    <glyph glyph-name="uni0E02" unicode="&#xe02;" horiz-adv-x="540" 
d="M116.5 35q-52.5 50 -52.5 143v69q0 30 14.5 56t42.5 61q24 31 35.5 50.5t11.5 40.5q0 31 -15 43.5t-48 12.5h-45v24h51q41 0 62 -20t21 -60q0 -23 -12.5 -45.5t-37.5 -55.5q-26 -34 -39 -57t-13 -48v-77q0 -78 44 -120.5t126 -42.5t126 42.5t44 120.5v363h28v-357
q0 -93 -52.5 -143t-145.5 -50t-145.5 50z" />
    <glyph glyph-name="uni0E03" unicode="&#xe03;" horiz-adv-x="536" 
d="M112.5 35q-52.5 50 -52.5 143v69q0 30 15.5 55.5t46.5 61.5q26 31 38.5 50.5t12.5 40.5v3q-21 -14 -52 -14q-29 0 -45 15t-16 42v34h28v-31q0 -20 8.5 -28t31.5 -8q26 0 45 14v53h26v-82q0 -23 -13.5 -45t-41.5 -55q-27 -32 -41.5 -55.5t-14.5 -48.5v-77q0 -78 44 -120.5
t126 -42.5t126 42.5t44 120.5v363h28v-357q0 -93 -52.5 -143t-145.5 -50t-145.5 50z" />
    <glyph glyph-name="uni0E04" unicode="&#xe04;" horiz-adv-x="612" 
d="M80 353q0 94 59 145.5t167 51.5t167 -51.5t59 -145.5v-353h-28v353q0 87 -53 130t-145 43t-145 -43t-53 -130v-153q16 34 52 56t84 22h76v-24h-81q-35 0 -65 -18t-48 -46t-18 -57v-133h-28v353z" />
    <glyph glyph-name="uni0E05" unicode="&#xe05;" horiz-adv-x="612" 
d="M80 406q0 144 120 144q39 0 66.5 -19t38.5 -54h1q11 35 38.5 54t67.5 19q120 0 120 -144v-406h-28v405q0 61 -20.5 91t-71.5 30q-38 0 -60.5 -18.5t-32.5 -58.5h-27q-11 41 -32.5 59t-59.5 18q-51 0 -71.5 -30t-20.5 -90v-206q16 34 52 56t84 22h76v-24h-81
q-35 0 -65 -18t-48 -46t-18 -57v-133h-28v406z" />
    <glyph glyph-name="uni0E06" unicode="&#xe06;" horiz-adv-x="588" 
d="M187 11q-58 26 -99 81v-92h-28v232q0 30 16 58.5t46 67.5q26 34 38.5 55t12.5 42v3q-21 -14 -52 -14q-29 0 -45 15t-16 42v34h28v-31q0 -20 8.5 -28t31.5 -8q26 0 45 14v53h26v-82q0 -23 -14 -47.5t-41 -59.5q-27 -36 -41.5 -61.5t-14.5 -50.5v-104q81 -121 216 -121
q87 0 131.5 40.5t44.5 115.5v370h28v-371q0 -85 -53 -132t-151 -47q-59 0 -117 26z" />
    <glyph glyph-name="uni0E07" unicode="&#xe07;" horiz-adv-x="590" 
d="M60 468h28l158 -444q124 0 191 67t67 182q0 119 -48.5 186t-147.5 67q-38 0 -64 -9v25q27 8 69 8q106 0 161.5 -74t55.5 -203q0 -85 -34.5 -147t-95 -94t-136.5 -32h-38z" />
    <glyph glyph-name="uni0E08" unicode="&#xe08;" horiz-adv-x="574" 
d="M104 294h28l66 -270q84 0 150 31t103 88.5t37 135.5q0 121 -59 184t-178 63q-112 0 -191 -35v25q35 16 85 25t106 9q127 0 195 -70t68 -201q0 -82 -39 -145.5t-107 -98.5t-152 -35h-40z" />
    <glyph glyph-name="uni0E09" unicode="&#xe09;" horiz-adv-x="587" 
d="M132.5 32q-49.5 47 -49.5 132v146h28v-145q0 -76 41 -116t124 -40q62 0 111.5 29.5t91.5 91.5v175q0 113 -52.5 167t-168.5 54q-56 0 -108 -9t-90 -26v25q34 16 87.5 25t110.5 9q127 0 188 -60t61 -185v-305h-28v92q-41 -55 -94.5 -81t-108.5 -26q-94 0 -143.5 47z" />
    <glyph glyph-name="uni0E0A" unicode="&#xe0a;" horiz-adv-x="567" 
d="M121.5 36q-57.5 51 -57.5 143v74q0 31 14.5 56.5t44.5 62.5q23 28 34 46t11 37q0 31 -15 43.5t-48 12.5h-45v24h51q41 0 62 -20t21 -60q0 -22 -12.5 -43.5t-36.5 -51.5q-27 -35 -40 -58t-13 -49v-80q0 -77 49 -120.5t132 -43.5q88 0 143 47.5t55 141.5q0 86 -40 134
t-112 48v20l120 150h34l-120 -150q73 -11 108.5 -66t35.5 -136q0 -108 -62.5 -160.5t-161.5 -52.5q-94 0 -151.5 51z" />
    <glyph glyph-name="uni0E0B" unicode="&#xe0b;" horiz-adv-x="563" 
d="M117.5 36q-57.5 51 -57.5 143v68q0 30 15.5 55.5t46.5 61.5q26 31 38.5 50.5t12.5 40.5v3q-21 -14 -52 -14q-29 0 -45 15t-16 42v34h28v-31q0 -20 8.5 -28t31.5 -8q26 0 45 14v53h26v-82q0 -23 -14 -46t-41 -55q-28 -34 -42 -57t-14 -48v-74q0 -77 49 -120.5t132 -43.5
q88 0 143 47.5t55 141.5q0 86 -40 134t-112 48v20l120 150h34l-120 -150q73 -11 108.5 -66t35.5 -136q0 -108 -62.5 -160.5t-161.5 -52.5q-94 0 -151.5 51z" />
    <glyph glyph-name="uni0E0C" unicode="&#xe0c;" horiz-adv-x="993" 
d="M609 11q-55 26 -96 81v-92h-28v354q0 89 -45 130.5t-136 41.5q-70 0 -119 -22.5t-94 -74.5l47 -71v-276q0 -32 15 -45t48 -13h51v-24h-59q-40 0 -61.5 22t-21.5 62v270l-50 75q47 61 103.5 91t140.5 30q103 0 156 -50t53 -142v-228q41 -62 92.5 -91.5t113.5 -29.5
q83 0 124.5 40.5t41.5 115.5v370h28v-371q0 -85 -50 -132t-144 -47q-55 0 -110 26z" />
    <glyph glyph-name="uni0E0D" unicode="&#xe0d;" horiz-adv-x="993" 
d="M607.5 -85q-50.5 13 -74.5 33v25q34 -23 79.5 -35t91.5 -12q87 0 137 28t50 85q0 25 -8 44t-27 35q-56 -53 -157 -53q-105 0 -159.5 55.5t-54.5 151.5v82q0 89 -45 130.5t-136 41.5q-70 0 -119 -22.5t-94 -74.5l47 -71v-276q0 -32 15 -45t48 -13h51v-24h-59
q-40 0 -61.5 22t-21.5 62v270l-50 75q47 61 103.5 91t140.5 30q103 0 156 -50t53 -142v-91q0 -82 46 -130t140 -48t140 48t46 130v268h28v-263q0 -83 -41 -136q45 -38 45 -97q0 -68 -56.5 -102.5t-156.5 -34.5q-46 0 -96.5 13z" />
    <glyph glyph-name="uni0E0E" unicode="&#xe0e;" horiz-adv-x="647" 
d="M211 -195q19 24 63.5 41.5t87.5 17.5q98 0 177 -60v550q0 88 -48 130t-143 42q-74 0 -126 -22.5t-97 -74.5l67 -71v-274q0 -40 -21.5 -62t-61.5 -22h-49v24h41q33 0 48 13t15 45v272l-70 75q47 60 106.5 90.5t147.5 30.5q107 0 163 -50t56 -142v-579h-28q-50 35 -89 48
t-88 13q-43 0 -83.5 -17t-67.5 -47v29z" />
    <glyph glyph-name="uni0E0F" unicode="&#xe0f;" horiz-adv-x="647" 
d="M188 -217q-27 7 -42 18v25q19 -12 44.5 -19t50.5 -7q54 0 82 22t40 73h28l148 -90v549q0 172 -191 172q-74 0 -126.5 -22t-96.5 -74l67 -71v-275q0 -40 -21.5 -62t-61.5 -22h-49v24h41q33 0 48 13t15 45v272l-70 75q47 60 106.5 90.5t147.5 30.5q107 0 163 -50t56 -142
v-579h-28l-157 96q-17 -53 -51.5 -76t-89.5 -23q-26 0 -53 7z" />
    <glyph glyph-name="uni0E10" unicode="&#xe10;" horiz-adv-x="577" 
d="M104 294h28l66 -270q84 0 150 31t103 88.5t37 135.5q0 121 -59 184t-178 63q-112 0 -191 -35v25q35 16 85 25t106 9q101 0 168 -48l67 73h31l-80 -87q77 -71 77 -209q0 -82 -39 -145.5t-107 -98.5t-152 -35h-40zM115 -217q-27 7 -42 18v25q19 -12 44.5 -19t50.5 -7
q54 0 82 22t40 73h28l148 -90v121h28v-147h-28l-157 96q-17 -53 -51.5 -76t-89.5 -23q-26 0 -53 7z" />
    <glyph glyph-name="uni0E11" unicode="&#xe11;" horiz-adv-x="598" 
d="M70 247q0 30 14 55.5t42 61.5q24 31 35.5 50.5t11.5 40.5v3q-21 -14 -52 -14q-29 0 -45 15t-16 42v34h28v-31q0 -20 8.5 -28t31.5 -8q26 0 45 14v53h26v-62q64 77 169 77q150 0 150 -168v-382h-28v381q0 71 -29 108t-93 37q-53 0 -95 -21.5t-77 -68.5q-5 -20 -17 -39.5
t-31 -44.5q-25 -33 -37.5 -55.5t-12.5 -47.5v-249h-28v247z" />
    <glyph glyph-name="uni0E12" unicode="&#xe12;" horiz-adv-x="1025" 
d="M124.5 56q-64.5 71 -64.5 202q0 137 42 214.5t118 77.5q42 0 66.5 -18.5t37.5 -54.5h1q11 34 39.5 53.5t68.5 19.5q61 0 86.5 -38t25.5 -106v-276q41 -62 92.5 -91.5t113.5 -29.5q83 0 124.5 40.5t41.5 115.5v370h28v-371q0 -85 -50 -132t-144 -47q-55 0 -110 26t-96 81
v-92h-28v405q0 61 -18.5 91t-65.5 30q-39 0 -62 -18.5t-33 -58.5h-28q-11 41 -31.5 59t-58.5 18q-61 0 -97.5 -71t-36.5 -197q0 -121 57.5 -185t158.5 -64q17 0 38 2t34 5v-23q-12 -3 -33.5 -5.5t-38.5 -2.5q-113 0 -177.5 71z" />
    <glyph glyph-name="uni0E13" unicode="&#xe13;" horiz-adv-x="993" 
d="M535 32q-50 47 -50 132v190q0 89 -45 130.5t-136 41.5q-70 0 -119 -22.5t-94 -74.5l47 -71v-276q0 -32 15 -45t48 -13h51v-24h-59q-40 0 -61.5 22t-21.5 62v270l-50 75q47 61 103.5 91t140.5 30q103 0 156 -50t53 -142v-193q0 -75 41.5 -115.5t124.5 -40.5
q62 0 113.5 29.5t92.5 91.5v405h28v-535h-28v92q-41 -55 -96 -81t-110 -26q-94 0 -144 47z" />
    <glyph glyph-name="uni0E14" unicode="&#xe14;" horiz-adv-x="645" 
d="M124.5 56q-64.5 71 -64.5 202q0 137 70.5 214.5t196.5 77.5q128 0 183 -60.5t55 -148.5v-341h-28v342q0 86 -50.5 135t-159.5 49q-114 0 -177.5 -70t-63.5 -198q0 -121 57.5 -185t158.5 -64q17 0 38 2t34 5v-23q-12 -3 -33.5 -5.5t-38.5 -2.5q-113 0 -177.5 71z" />
    <glyph glyph-name="uni0E15" unicode="&#xe15;" horiz-adv-x="645" 
d="M124.5 56q-64.5 71 -64.5 202q0 90 21 156t59.5 101t89.5 35q42 0 66.5 -18.5t37.5 -54.5h1q11 34 42 53.5t71 19.5q61 0 89 -38.5t28 -105.5v-406h-28v405q0 60 -20.5 90.5t-68.5 30.5q-80 0 -100 -77h-28q-11 41 -31.5 59t-58.5 18q-40 0 -73 -32t-52 -92.5t-19 -143.5
q0 -121 57.5 -185t158.5 -64q17 0 38 2t34 5v-23q-12 -3 -33.5 -5.5t-38.5 -2.5q-113 0 -177.5 71z" />
    <glyph glyph-name="uni0E16" unicode="&#xe16;" horiz-adv-x="613" 
d="M131.5 22q-21.5 22 -21.5 62v270l-50 75q47 60 106.5 90.5t147.5 30.5q107 0 163 -50t56 -142v-358h-28v354q0 88 -48 130t-143 42q-74 0 -126 -22.5t-97 -74.5l47 -71v-276q0 -32 15 -45t48 -13h51v-24h-59q-40 0 -61.5 22z" />
    <glyph glyph-name="uni0E17" unicode="&#xe17;" horiz-adv-x="608" 
d="M80 535h28v-89q40 54 100.5 79t121.5 25q94 0 146 -48.5t52 -127.5v-374h-28v373q0 72 -43 112.5t-127 40.5q-143 0 -222 -118v-408h-28v535z" />
    <glyph glyph-name="uni0E18" unicode="&#xe18;" horiz-adv-x="540" 
d="M124 26q-62 41 -62 116v70h28v-75q0 -60 54 -94t133 -34q83 0 130 30t47 90q0 44 -17.5 70t-55.5 42.5t-112 35.5q-79 21 -117 34t-65 40t-27 73q0 68 55.5 97t151.5 29q46 0 101.5 -12t80.5 -29v-25q-33 20 -83.5 31t-98.5 11q-88 0 -134.5 -22t-46.5 -80
q0 -37 21 -58.5t58.5 -35t115.5 -33.5q74 -19 113.5 -36t62.5 -48t23 -84q0 -68 -52 -106t-151 -38q-91 0 -153 41z" />
    <glyph glyph-name="uni0E19" unicode="&#xe19;" horiz-adv-x="608" 
d="M133 32q-53 47 -53 132v371h28v-370q0 -75 44.5 -115.5t131.5 -40.5q135 0 216 121v405h28v-535h-28v92q-41 -55 -99 -81t-117 -26q-98 0 -151 47z" />
    <glyph glyph-name="uni0E1A" unicode="&#xe1a;" horiz-adv-x="622" 
d="M142 41.5q-62 56.5 -62 150.5v343h28v-349q0 -80 53.5 -128.5t149.5 -48.5t149.5 48.5t53.5 128.5v349h28v-343q0 -94 -62 -150.5t-169 -56.5t-169 56.5z" />
    <glyph glyph-name="uni0E1B" unicode="&#xe1b;" horiz-adv-x="622" 
d="M142 41.5q-62 56.5 -62 150.5v343h28v-349q0 -80 53.5 -128.5t149.5 -48.5t149.5 48.5t53.5 128.5v528h28v-522q0 -94 -62 -150.5t-169 -56.5t-169 56.5z" />
    <glyph glyph-name="uni0E1C" unicode="&#xe1c;" horiz-adv-x="623" 
d="M80 451q0 40 20 62t59 22h45v-24h-36q-31 0 -45.5 -13t-14.5 -45v-405l196 342h15l196 -342v487h28v-535h-29l-202 354l-203 -354h-29v451z" />
    <glyph glyph-name="uni0E1D" unicode="&#xe1d;" horiz-adv-x="623" 
d="M80 451q0 40 20 62t59 22h45v-24h-36q-31 0 -45.5 -13t-14.5 -45v-405l196 342h15l196 -342v666h28v-714h-29l-202 354l-203 -354h-29v451z" />
    <glyph glyph-name="uni0E1E" unicode="&#xe1e;" horiz-adv-x="751" 
d="M50 535h28l131 -488l151 488h31l151 -488l131 488h28l-148 -535h-22l-156 506l-155 -506h-22z" />
    <glyph glyph-name="uni0E1F" unicode="&#xe1f;" horiz-adv-x="746" 
d="M50 535h28l131 -488l151 488h31l151 -488l176 667h28l-193 -714h-22l-156 506l-155 -506h-22z" />
    <glyph glyph-name="uni0E20" unicode="&#xe20;" horiz-adv-x="647" 
d="M60 24h41q33 0 48 13t15 45v272l-70 75q47 60 106.5 90.5t147.5 30.5q107 0 163 -50t56 -142v-358h-28v354q0 172 -191 172q-74 0 -126.5 -22t-96.5 -74l67 -71v-275q0 -40 -21.5 -62t-61.5 -22h-49v24z" />
    <glyph glyph-name="uni0E21" unicode="&#xe21;" horiz-adv-x="608" 
d="M207 11q-58 26 -99 81v-92h-28v535h28v-405q81 -121 216 -121q87 0 131.5 40.5t44.5 115.5v370h28v-371q0 -85 -53 -132t-151 -47q-59 0 -117 26z" />
    <glyph glyph-name="uni0E22" unicode="&#xe22;" horiz-adv-x="603" 
d="M122 24.5q-62 39.5 -62 121.5q0 54 26.5 89.5t76.5 48.5q-49 15 -75.5 48t-26.5 81q0 60 38 98.5t108 38.5q17 0 38.5 -2.5t33.5 -5.5v-23q-13 3 -34 5t-38 2q-57 0 -88.5 -30.5t-31.5 -82.5q0 -51 37.5 -83.5t101.5 -32.5h53v-24h-51q-67 0 -104.5 -32t-37.5 -95
q0 -68 53 -102.5t150 -34.5q206 0 206 184v342h28v-341q0 -88 -53 -148.5t-181 -60.5q-105 0 -167 39.5z" />
    <glyph glyph-name="uni0E23" unicode="&#xe23;" horiz-adv-x="490" 
d="M143.5 0q-52.5 15 -83.5 39v25q83 -55 184 -55q83 0 121.5 27.5t38.5 82.5q0 37 -12 60.5t-46.5 42t-101.5 35.5q-65 17 -102.5 33.5t-59.5 45t-22 75.5q0 68 49 103.5t138 35.5q43 0 84 -11.5t68 -29.5v-25q-35 21 -71 31.5t-81 10.5q-161 0 -161 -115q0 -38 15.5 -61
t51 -39.5t103.5 -33.5q65 -17 102 -36t54.5 -47.5t17.5 -74.5q0 -62 -44.5 -98t-142.5 -36q-47 0 -99.5 15z" />
    <glyph glyph-name="uni0E24" unicode="&#xe24;" horiz-adv-x="613" 
d="M505 354q0 88 -48 130t-143 42q-74 0 -126 -22.5t-97 -74.5l47 -71v-276q0 -32 15 -45t48 -13h51v-24h-59q-40 0 -61.5 22t-21.5 62v270l-50 75q47 60 106.5 90.5t147.5 30.5q107 0 163 -50t56 -142v-554h-28v550z" />
    <glyph glyph-name="uni0E25" unicode="&#xe25;" horiz-adv-x="575" 
d="M108 27q-48 42 -48 123q0 80 53.5 122.5t142.5 42.5q115 0 211 -47v93q0 85 -46.5 125t-139.5 40q-46 0 -88 -7t-73 -21v25q26 12 71.5 19.5t89.5 7.5q109 0 161.5 -49.5t52.5 -141.5v-359h-28v244q-50 25 -101 36t-110 11q-81 0 -125.5 -36t-44.5 -105
q0 -70 40.5 -105.5t116.5 -35.5q17 0 38 2t34 5v-23q-12 -3 -33.5 -5.5t-38.5 -2.5q-87 0 -135 42z" />
    <glyph glyph-name="uni0E26" unicode="&#xe26;" horiz-adv-x="647" 
d="M539 354q0 172 -191 172q-74 0 -126.5 -22t-96.5 -74l67 -71v-275q0 -40 -21.5 -62t-61.5 -22h-49v24h41q33 0 48 13t15 45v272l-70 75q47 60 106.5 90.5t147.5 30.5q107 0 163 -50t56 -142v-554h-28v550z" />
    <glyph glyph-name="uni0E27" unicode="&#xe27;" horiz-adv-x="583" 
d="M60 36v29q65 -56 184 -56q118 0 185.5 66t67.5 192t-67.5 192.5t-185.5 66.5q-119 0 -184 -56v29q71 51 184 51q84 0 147 -33.5t97.5 -97t34.5 -152.5t-34.5 -152.5t-97.5 -96.5t-147 -33q-113 0 -184 51z" />
    <glyph glyph-name="uni0E28" unicode="&#xe28;" horiz-adv-x="619" 
d="M80 353q0 94 59 145.5t167 51.5q90 0 146 -36l56 61h31l-69 -75q62 -51 62 -147v-353h-28v353q0 87 -53 130t-145 43t-145 -43t-53 -130v-153q16 34 52 56t84 22h76v-24h-81q-35 0 -65 -18t-48 -46t-18 -57v-133h-28v353z" />
    <glyph glyph-name="uni0E29" unicode="&#xe29;" horiz-adv-x="644" 
d="M142 41.5q-62 56.5 -62 150.5v343h28v-349q0 -80 53.5 -128.5t149.5 -48.5t149.5 48.5t53.5 128.5v105h-157v24h157v220h28v-220h67v-24h-67v-99q0 -94 -62 -150.5t-169 -56.5t-169 56.5z" />
    <glyph glyph-name="uni0E2A" unicode="&#xe2a;" horiz-adv-x="577" 
d="M108 27q-48 42 -48 123q0 80 53.5 122.5t142.5 42.5q115 0 211 -47v93q0 85 -46.5 125t-139.5 40q-46 0 -88 -7t-73 -21v25q26 12 71.5 19.5t89.5 7.5q92 0 147 -38l58 63h31l-72 -78q50 -49 50 -138v-359h-28v244q-50 25 -101 36t-110 11q-81 0 -125.5 -36t-44.5 -105
q0 -70 40.5 -105.5t116.5 -35.5q17 0 38 2t34 5v-23q-12 -3 -33.5 -5.5t-38.5 -2.5q-87 0 -135 42z" />
    <glyph glyph-name="uni0E2B" unicode="&#xe2b;" horiz-adv-x="577" 
d="M80 535h28v-300l344 300h37l-142 -127q84 -19 117 -62t33 -116v-230h-28v230q0 70 -32 106.5t-111 52.5l-218 -187v-202h-28v535z" />
    <glyph glyph-name="uni0E2C" unicode="&#xe2c;" horiz-adv-x="623" 
d="M80 535h28v-487l196 342h15l196 -342v358q0 70 -28 104t-98 34v20l120 150h34l-120 -150q71 -11 95.5 -50t24.5 -108v-406h-29l-203 354l-202 -354h-29v535z" />
    <glyph glyph-name="uni0E2D" unicode="&#xe2d;" horiz-adv-x="586" 
d="M145 0q-49 15 -85 46v226h169v-24h-141v-194q36 -25 74.5 -35t84.5 -10q117 0 185 66t68 192t-67.5 192.5t-185.5 66.5q-119 0 -184 -56v29q69 51 184 51q84 0 147 -33.5t97.5 -97t34.5 -152.5q0 -88 -34.5 -151.5t-97.5 -97t-147 -33.5q-53 0 -102 15z" />
    <glyph glyph-name="uni0E2E" unicode="&#xe2e;" horiz-adv-x="586" 
d="M145 0q-49 15 -85 46v226h169v-24h-141v-194q36 -25 74.5 -35t84.5 -10q117 0 185 66t68 192t-67.5 192.5t-185.5 66.5q-119 0 -184 -56v29q69 51 184 51q100 0 170 -48l68 73h31l-80 -87q43 -37 66.5 -93t23.5 -128q0 -88 -34.5 -151.5t-97.5 -97t-147 -33.5
q-53 0 -102 15z" />
    <glyph glyph-name="uni0E2F" unicode="&#xe2f;" horiz-adv-x="462" 
d="M354 306q-28 -23 -68.5 -35.5t-83.5 -12.5q-71 0 -116.5 37t-45.5 108t40.5 109t105.5 38q45 0 72 -10v-23q-27 9 -72 9q-56 0 -88 -30.5t-32 -92.5q0 -61 37 -91t99 -30q45 0 81.5 12t70.5 37v204h28v-535h-28v306z" />
    <glyph glyph-name="uni0E30" unicode="&#xe30;" horiz-adv-x="302" 
d="M60 397v37h28v-32q0 -20 8.5 -27.5t31.5 -7.5h114v-24h-123q-59 0 -59 54zM60 119v37h28v-32q0 -20 8.5 -27.5t31.5 -7.5h114v-24h-123q-59 0 -59 54z" />
    <glyph glyph-name="uni0E31" unicode="&#xe31;" 
d="M-284 688v37h28v-32q0 -20 8.5 -27.5t31.5 -7.5h231v-24h-240q-59 0 -59 54z" />
    <glyph glyph-name="uni0E32" unicode="&#xe32;" horiz-adv-x="425" 
d="M317 358q0 83 -35.5 125.5t-115.5 42.5q-45 0 -75.5 -6.5t-60.5 -21.5v25q25 12 60.5 19.5t73.5 7.5q181 0 181 -193v-357h-28v358z" />
    <glyph glyph-name="uni0E33" unicode="&#xe33;" horiz-adv-x="424" 
d="M-184.5 624q-28.5 28 -28.5 67q0 40 28.5 68t67.5 28t67 -28t28 -68t-28 -67.5t-67 -27.5t-67.5 28zM-66.5 639.5q21.5 22.5 21.5 51.5q0 30 -21 51.5t-51 21.5t-51 -21.5t-21 -51.5t21 -52t51 -22q29 0 50.5 22.5zM316 358q0 83 -35.5 125.5t-115.5 42.5
q-45 0 -75.5 -6.5t-60.5 -21.5v25q25 12 60.5 19.5t73.5 7.5q181 0 181 -193v-357h-28v358z" />
    <glyph glyph-name="uni0E34" unicode="&#xe34;" 
d="M-476 658h386v-24h-386v24z" />
    <glyph glyph-name="uni0E35" unicode="&#xe35;" 
d="M-476 658h362v113h24v-137h-386v24z" />
    <glyph glyph-name="uni0E36" unicode="&#xe36;" 
d="M-476 658h268q-11 8 -17.5 23t-6.5 32q0 35 22 57t59 22q38 0 59.5 -22t21.5 -57t-22.5 -57t-62.5 -22h-321v24zM-109 671q15 16 15 42t-15 42t-42 16t-42 -16t-15 -42q0 -27 14.5 -42.5t42.5 -15.5q27 0 42 16z" />
    <glyph glyph-name="uni0E37" unicode="&#xe37;" 
d="M-476 658h227v113h24v-113h111v113h24v-137h-386v24z" />
    <glyph glyph-name="uni0E38" unicode="&#xe38;" 
d="M-108 -124q0 16 -6 22t-22 6h-39v24h48q47 0 47 -49v-125h-28v122z" />
    <glyph glyph-name="uni0E39" unicode="&#xe39;" 
d="M-244.5 -234q-25.5 22 -25.5 59v56q0 14 -4 18.5t-17 4.5h-36v24h47q21 0 29.5 -10t8.5 -33v-59q0 -58 67 -58t67 58v102h28v-103q0 -37 -25.5 -59t-69.5 -22t-69.5 22z" />
    <glyph glyph-name="uni0E3A" unicode="&#xe3a;" 
d="M-119.5 -108.5q-7.5 7.5 -7.5 18.5q0 10 7.5 18t18.5 8q10 0 18 -8t8 -18q0 -11 -8 -18.5t-18 -7.5q-11 0 -18.5 7.5z" />
    <glyph glyph-name="uni0E3F" unicode="&#xe3f;" horiz-adv-x="625" 
d="M283 0h-203v699h203v103h28v-103h57q87 0 129.5 -43.5t42.5 -134.5q0 -59 -29.5 -102t-73.5 -61q59 -12 93.5 -56.5t34.5 -117.5q0 -57 -23.5 -98.5t-64.5 -63.5t-91 -22h-75v-103h-28v103zM283 370v305h-175v-305h175zM383 370q34 0 64 18t48.5 52t18.5 81
q0 85 -37.5 119.5t-104.5 34.5h-61v-305h72zM283 24v322h-175v-322h175zM386 24q67 0 110 39t43 121t-45 122t-122 40h-61v-322h75z" />
    <glyph glyph-name="uni0E40" unicode="&#xe40;" horiz-adv-x="264" 
d="M100 22q-20 22 -20 62v451h28v-453q0 -32 14.5 -45t45.5 -13h36v-24h-45q-39 0 -59 22z" />
    <glyph glyph-name="uni0E41" unicode="&#xe41;" horiz-adv-x="487" 
d="M100 22q-20 22 -20 62v451h28v-453q0 -32 14.5 -45t45.5 -13h36v-24h-45q-39 0 -59 22zM323 22q-20 22 -20 62v451h28v-453q0 -32 14.5 -45t45.5 -13h36v-24h-45q-39 0 -59 22z" />
    <glyph glyph-name="uni0E42" unicode="&#xe42;" horiz-adv-x="299" 
d="M156 22q-20 22 -20 62v444q0 77 -29 120.5t-92 74.5v29h254v-24h-218q113 -53 113 -203v-443q0 -32 14.5 -45t45.5 -13h36v-24h-45q-39 0 -59 22z" />
    <glyph glyph-name="uni0E43" unicode="&#xe43;" horiz-adv-x="276" 
d="M119 22q-20 22 -20 62v324q0 58 19.5 92t54.5 69q24 24 35.5 41.5t11.5 40.5q0 42 -22 64.5t-73 22.5q-58 0 -115 -32v25q51 31 116 31q62 0 91 -30t29 -81q0 -29 -12.5 -49.5t-39.5 -46.5q-33 -33 -50 -62.5t-17 -79.5v-331q0 -32 14.5 -45t45.5 -13h36v-24h-45
q-39 0 -59 22z" />
    <glyph glyph-name="uni0E44" unicode="&#xe44;" horiz-adv-x="299" 
d="M140 22q-20 22 -20 62v441q0 150 113 203h-218v24h254v-29q-63 -31 -92 -74.5t-29 -120.5v-446q0 -32 14.5 -45t45.5 -13h36v-24h-45q-39 0 -59 22z" />
    <glyph glyph-name="uni0E45" unicode="&#xe45;" horiz-adv-x="425" 
d="M317 358q0 83 -35.5 125.5t-115.5 42.5q-45 0 -75.5 -6.5t-60.5 -21.5v25q25 12 60.5 19.5t73.5 7.5q181 0 181 -193v-553h-28v554z" />
    <glyph glyph-name="uni0E46" unicode="&#xe46;" horiz-adv-x="555" 
d="M447 409q0 61 -18 89t-65 28q-37 0 -58.5 -18t-32.5 -59h-28q-11 42 -29 59.5t-55 17.5q-39 0 -67 -33t-28 -113q0 -73 39.5 -105t106.5 -32q17 0 38 2t34 5v-23q-12 -3 -33.5 -5.5t-38.5 -2.5q-79 0 -125.5 39t-46.5 122q0 90 35.5 130t85.5 40q41 0 63 -18t35 -55h1
q11 35 38 54t66 19q61 0 86 -37.5t25 -106.5v-406h-28v409z" />
    <glyph glyph-name="uni0E47" unicode="&#xe47;" 
d="M-405 634.5q-26 26.5 -26 69.5q0 50 30 76.5t82 26.5h212v-24h-212q-44 0 -65 -19.5t-21 -59.5q0 -35 18.5 -54t51.5 -19q34 0 53 18.5t19 47.5h26q0 -29 17 -45.5t48 -16.5h48v-23h-47q-33 0 -54 15t-25 35q-7 -21 -30 -37.5t-55 -16.5q-44 0 -70 26.5z" />
    <glyph glyph-name="uni0E48" unicode="&#xe48;" 
d="M-104 784h24v-150h-24v150z" />
    <glyph glyph-name="uni0E49" unicode="&#xe49;" 
d="M-213 696q0 14 -5 19.5t-19 5.5h-42v24h46q26 0 37 -12.5t11 -32.5v-43h204v-23h-232v62z" />
    <glyph glyph-name="uni0E4A" unicode="&#xe4a;" 
d="M-407 671.5q-7 20.5 -7 41.5q0 50 22 74t57 24q51 0 65 -44h1q6 21 23 32.5t41 11.5q72 0 72 -80v-74h21q20 0 29.5 9t9.5 29v116h24v-116q0 -28 -15.5 -44.5t-45.5 -16.5h-47v96q0 32 -11 45t-37 13q-53 0 -53 -62v-15h-24v15q0 27 -12.5 44.5t-40.5 17.5
q-27 0 -40 -18.5t-13 -56.5q0 -41 28 -79h-27q-13 17 -20 37.5z" />
    <glyph glyph-name="uni0E4B" unicode="&#xe4b;" 
d="M-176 706h-75v24h75v72h24v-72h75v-24h-75v-72h-24v72z" />
    <glyph glyph-name="uni0E4C" unicode="&#xe4c;" 
d="M-274 671q0 54 59 54h220v-24h-211q-23 0 -31.5 -7.5t-8.5 -27.5v-32h-28v37z" />
    <glyph glyph-name="uni0E4D" unicode="&#xe4d;" 
d="M-184.5 624q-28.5 28 -28.5 67q0 40 28.5 68t67.5 28t67 -28t28 -68t-28 -67.5t-67 -27.5t-67.5 28zM-66.5 639.5q21.5 22.5 21.5 51.5q0 30 -21 51.5t-51 21.5t-51 -21.5t-21 -51.5t21 -52t51 -22q29 0 50.5 22.5z" />
    <glyph glyph-name="uni0E4E" unicode="&#xe4e;" 
d="M-259 654q-24 20 -24 55q0 37 24 57.5t62 22.5q-21 17 -21 42t20 41.5t50 16.5q31 0 50 -11v-22q-21 12 -50 12q-21 0 -33.5 -10t-12.5 -27q0 -36 48 -44v-20q-14 4 -38 4q-39 0 -57 -15t-18 -47q0 -26 16.5 -40t49.5 -14q38 0 60 17v-22q-24 -16 -61 -16q-41 0 -65 20z
" />
    <glyph glyph-name="uni0E4F" unicode="&#xe4f;" horiz-adv-x="626" 
d="M183.5 17q-57.5 32 -90.5 90t-33 133t33 133t90.5 90t129.5 32t129.5 -32t90.5 -90t33 -133t-33 -133t-90.5 -90t-129.5 -32t-129.5 32zM429.5 37.5q51.5 28.5 81 80.5t29.5 122q0 69 -29.5 121.5t-81 81t-116.5 28.5t-116.5 -28.5t-81 -81t-29.5 -121.5q0 -70 29.5 -122
t81 -80.5t116.5 -28.5t116.5 28.5zM226 89.5q-39 21.5 -61.5 61t-22.5 89.5t22.5 89.5t61.5 61t87 21.5t87 -21.5t61.5 -61t22.5 -89.5t-22.5 -89.5t-61.5 -61t-87 -21.5t-87 21.5zM417.5 132.5q40.5 40.5 40.5 107.5t-40.5 107.5t-104.5 40.5t-104.5 -40.5t-40.5 -107.5
t40.5 -107.5t104.5 -40.5t104.5 40.5z" />
    <glyph glyph-name="uni0E50" unicode="&#xe50;" horiz-adv-x="626" 
d="M183.5 17q-57.5 32 -90.5 90t-33 133t33 133t90.5 90t129.5 32t129.5 -32t90.5 -90t33 -133t-33 -133t-90.5 -90t-129.5 -32t-129.5 32zM429.5 37.5q51.5 28.5 81 80.5t29.5 122q0 69 -29.5 121.5t-81 81t-116.5 28.5t-116.5 -28.5t-81 -81t-29.5 -121.5q0 -70 29.5 -122
t81 -80.5t116.5 -28.5t116.5 28.5z" />
    <glyph glyph-name="uni0E51" unicode="&#xe51;" horiz-adv-x="642" 
d="M292 -58q264 58 264 286q0 116 -58 179.5t-179 63.5q-112 0 -172.5 -56.5t-60.5 -157.5q0 -86 50.5 -134t133.5 -48q30 0 58.5 7t45.5 20v-25q-44 -26 -105 -26q-95 0 -152 56t-57 150q0 111 68.5 174.5t190.5 63.5q133 0 198 -70t65 -197q0 -121 -72.5 -199.5
t-217.5 -111.5v25z" />
    <glyph glyph-name="uni0E52" unicode="&#xe52;" horiz-adv-x="697" 
d="M155.5 41.5q-75.5 56.5 -75.5 168.5v340h28v-349q0 -94 68.5 -143t172.5 -49q63 0 118 19t88.5 57t33.5 92v201q0 50 -19.5 71.5t-61.5 21.5q-32 0 -55 -19t-33 -58h-28q-10 40 -29 58.5t-51 18.5q-90 0 -90 -151q0 -68 34 -100t91 -32q43 0 68 8v-25q-29 -7 -68 -7
q-70 0 -110.5 41t-40.5 115q0 88 31 131.5t85 43.5q40 0 62 -18.5t32 -54.5h1q10 33 37 53t64 20q52 0 80.5 -28t28.5 -85v-196q0 -65 -36 -110.5t-96.5 -68t-135.5 -22.5q-118 0 -193.5 56.5z" />
    <glyph glyph-name="uni0E53" unicode="&#xe53;" horiz-adv-x="647" 
d="M102.5 49.5q-42.5 64.5 -42.5 179.5q0 130 44.5 198t122.5 68q76 0 105 -60q18 28 49.5 44t66.5 16q51 0 85 -31t34 -89v-375h-28v375q0 48 -25.5 72t-71.5 24q-37 0 -66.5 -22.5t-29.5 -57.5v-225h-28v225q0 37 -24.5 58.5t-63.5 21.5q-70 0 -106.5 -64.5t-36.5 -177.5
q0 -107 36 -163t95 -56q42 0 70 9v-26q-34 -8 -70 -8q-73 0 -115.5 64.5z" />
    <glyph glyph-name="uni0E54" unicode="&#xe54;" horiz-adv-x="618" 
d="M122.5 58.5q-62.5 58.5 -62.5 171.5q0 130 77.5 197.5t225.5 67.5h41q60 0 96 13t48 56h26q-12 -42 -36 -62t-63.5 -26t-111.5 -6q-139 0 -208 -61t-69 -179q0 -104 55.5 -155.5t155.5 -51.5h109q-33 13 -54 48t-21 78q0 64 36.5 104.5t102.5 40.5q53 0 82 -16v-25
q-12 8 -34 12.5t-45 4.5q-57 0 -86.5 -33.5t-29.5 -87.5q0 -62 38.5 -93.5t112.5 -31.5h70v-24h-281q-112 0 -174.5 58.5z" />
    <glyph glyph-name="uni0E55" unicode="&#xe55;" horiz-adv-x="618" 
d="M122.5 58.5q-62.5 58.5 -62.5 171.5q0 119 66.5 186t192.5 77q-12 10 -19 25t-7 32q0 34 23 57t57 23t57 -23t23 -57q0 -16 -6 -31t-18 -24q47 2 77.5 16.5t41.5 52.5h26q-12 -40 -35 -60.5t-60.5 -27t-102.5 -6.5h-13q-139 0 -208 -61t-69 -179q0 -104 55.5 -155.5
t155.5 -51.5h109q-33 13 -54 48t-21 78q0 64 36.5 104.5t102.5 40.5q53 0 82 -16v-25q-12 8 -34 12.5t-45 4.5q-57 0 -86.5 -33.5t-29.5 -87.5q0 -62 38.5 -93.5t112.5 -31.5h70v-24h-281q-112 0 -174.5 58.5zM414.5 507q16.5 17 16.5 43q0 24 -16.5 41t-41.5 17
q-24 0 -40.5 -17t-16.5 -41q0 -26 16 -43t41 -17t41.5 17z" />
    <glyph glyph-name="uni0E56" unicode="&#xe56;" horiz-adv-x="661" 
d="M221 2q-59 17 -94 47v26q90 -65 215 -65q65 0 118.5 27.5t84 79t30.5 120.5q0 104 -56 169t-163 65q-82 0 -142.5 -39t-88.5 -128h-26l-59 247h26l47 -213q25 73 89 115t154 42q79 0 134 -33.5t83 -92t28 -132.5q0 -73 -33.5 -130.5t-92.5 -89.5t-133 -32q-62 0 -121 17z
" />
    <glyph glyph-name="uni0E57" unicode="&#xe57;" horiz-adv-x="820" 
d="M102.5 49.5q-42.5 64.5 -42.5 179.5q0 130 42.5 198t119.5 68q39 0 63.5 -15.5t38.5 -44.5q18 28 48 44t65 16q50 0 82 -31t32 -89v-351q77 0 119 28t42 105v393h28v-384q0 -94 -49.5 -130t-139.5 -36h-28v375q0 96 -92 96q-36 0 -64.5 -22.5t-28.5 -57.5v-225h-28v225
q0 37 -23 58.5t-62 21.5q-69 0 -103.5 -63.5t-34.5 -178.5q0 -107 36 -163t95 -56q42 0 70 9v-26q-34 -8 -70 -8q-73 0 -115.5 64.5z" />
    <glyph glyph-name="uni0E58" unicode="&#xe58;" horiz-adv-x="650" 
d="M101.5 39.5q-41.5 54.5 -41.5 181.5q0 139 76 206.5t217 67.5q62 0 95 2.5t63 17.5t40 49h26q-12 -41 -39 -61t-69 -26t-116 -6q-126 0 -196 -59.5t-70 -190.5q0 -112 33.5 -162t104.5 -50q37 0 65 18.5t28 53.5v99h28v-100q0 -33 34 -52t68 -19q54 0 84.5 35.5
t30.5 107.5q0 60 -25.5 88t-62.5 28q-47 0 -74 -17v25q29 16 77 16q46 0 79 -35.5t33 -104.5q0 -80 -38.5 -123.5t-102.5 -43.5q-36 0 -68.5 14t-48.5 40q-16 -26 -44.5 -40t-65.5 -14q-79 0 -120.5 54.5z" />
    <glyph glyph-name="uni0E59" unicode="&#xe59;" horiz-adv-x="702" 
d="M106 48q-46 63 -46 178q0 131 41 200t118 69q39 0 62 -14t40 -43q16 28 44.5 42.5t63.5 14.5q124 0 131 -124l76 179h26l-107 -252h-26l14 33q-3 79 -31 109t-84 30q-37 0 -63.5 -17.5t-26.5 -44.5q0 -4 2 -14l112 -394h-28l-113 398q-10 37 -31 54.5t-61 17.5
q-67 0 -99.5 -65.5t-32.5 -178.5q0 -107 38.5 -162t104.5 -55q43 0 68 8v-25q-29 -7 -68 -7q-78 0 -124 63z" />
    <glyph glyph-name="uni0E5A" unicode="&#xe5a;" horiz-adv-x="781" 
d="M374 306q-28 -23 -68.5 -35.5t-83.5 -12.5q-71 0 -116.5 37t-45.5 108t40.5 109t105.5 38q45 0 72 -10v-23q-27 9 -72 9q-56 0 -88 -30.5t-32 -92.5q0 -61 37 -91t99 -30q45 0 81.5 12t70.5 37v204h28v-199q25 -29 55 -41.5t69 -12.5q44 0 78.5 11.5t68.5 37.5v204h28
v-535h-28v306q-29 -23 -66.5 -35.5t-80.5 -12.5q-35 0 -69 12.5t-55 34.5v-305h-28v306z" />
    <glyph glyph-name="uni0E5B" unicode="&#xe5b;" horiz-adv-x="1129" 
d="M129.5 49.5q-69.5 64.5 -69.5 188.5q0 74 26 132.5t76.5 91.5t119.5 33q100 0 153 -54t53 -142q0 -100 -43 -144t-109 -44q-30 0 -50 6t-43 20v25q37 -27 92 -27q54 0 90.5 36t36.5 128q-1 78 -46.5 125t-133.5 47q-93 0 -144.5 -64.5t-51.5 -168.5q0 -117 63 -173
t179 -56q124 0 188.5 72.5t64.5 211.5v101h32l71 -244h2l44 230h25l69 -206h2l39 186h24l60 -164h2l24 77h94v-22h-81l-27 -87h-22l-58 159h-2l-39 -184h-27l-68 202h-2l-43 -223h-28l-70 241h-2q4 -33 4 -73q0 -141 -70 -221t-206 -80q-129 0 -198.5 64.5z" />
    <glyph glyph-name="uni1E0C" unicode="&#x1e0c;" horiz-adv-x="696" 
d="M80 699h199q111 0 191.5 -42t123 -120t42.5 -184q0 -174 -99 -263.5t-280 -89.5h-177v699zM246 24q364 0 364 329q0 153 -88.5 237.5t-249.5 84.5h-164v-651h138zM254.5 -112.5q-8.5 8.5 -8.5 19.5t8.5 19.5t19.5 8.5t19.5 -8.5t8.5 -19.5t-8.5 -19.5t-19.5 -8.5
t-19.5 8.5z" />
    <glyph glyph-name="uni1E0D" unicode="&#x1e0d;" horiz-adv-x="648" 
d="M184 16q-57 31 -90.5 89t-33.5 134t33 134t90.5 90t126.5 32q74 0 137.5 -33.5t92.5 -96.5v374h28v-739h-28v113q-34 -62 -93 -95t-137 -33q-69 0 -126 31zM455.5 51q61.5 42 84.5 117v142q-21 75 -84 118t-146 43q-61 0 -112.5 -28.5t-81.5 -81.5t-30 -122t30 -121
t81.5 -80.5t112.5 -28.5q84 0 145.5 42zM296.5 -112.5q-8.5 8.5 -8.5 19.5t8.5 19.5t19.5 8.5t19.5 -8.5t8.5 -19.5t-8.5 -19.5t-19.5 -8.5t-19.5 8.5z" />
    <glyph glyph-name="uni1E0E" unicode="&#x1e0e;" horiz-adv-x="696" 
d="M80 699h199q111 0 191.5 -42t123 -120t42.5 -184q0 -174 -99 -263.5t-280 -89.5h-177v699zM246 24q364 0 364 329q0 153 -88.5 237.5t-249.5 84.5h-164v-651h138zM115 -86h278v-24h-278v24z" />
    <glyph glyph-name="uni1E0F" unicode="&#x1e0f;" horiz-adv-x="648" 
d="M184 16q-57 31 -90.5 89t-33.5 134t33 134t90.5 90t126.5 32q74 0 137.5 -33.5t92.5 -96.5v374h28v-739h-28v113q-34 -62 -93 -95t-137 -33q-69 0 -126 31zM455.5 51q61.5 42 84.5 117v142q-21 75 -84 118t-146 43q-61 0 -112.5 -28.5t-81.5 -81.5t-30 -122t30 -121
t81.5 -80.5t112.5 -28.5q84 0 145.5 42zM178 -86h278v-24h-278v24z" />
    <glyph glyph-name="uni1E20" unicode="&#x1e20;" horiz-adv-x="728" 
d="M293 837h278v-24h-278v24zM236.5 30.5q-82.5 45.5 -129.5 128.5t-47 190t47 190t129.5 129t184.5 46q147 0 237 -79v-30q-88 85 -237 85q-94 0 -170.5 -42t-120.5 -119.5t-44 -179.5t45 -179.5t121.5 -119t168.5 -41.5q68 0 120.5 16t98.5 52v262h-177v24h205v-291
q-87 -87 -247 -87q-102 0 -184.5 45.5z" />
    <glyph glyph-name="uni1E21" unicode="&#x1e21;" horiz-adv-x="648" 
d="M168 659h278v-24h-278v24zM227.5 -221q-45.5 9 -73.5 24v25q71 -34 168 -34q218 0 218 211v110q-30 -63 -93 -96.5t-137 -33.5q-69 0 -126.5 32t-90.5 90t-33 134t33.5 134t90.5 89t126 31q78 0 137 -33t93 -95v113h28v-469q0 -241 -246 -241q-49 0 -94.5 9zM455 52.5
q65 43.5 85 117.5v142q-23 74 -87 116.5t-143 42.5q-61 0 -112 -28.5t-81.5 -81t-30.5 -120.5q0 -69 30.5 -122t81.5 -81.5t112 -28.5q80 0 145 43.5z" />
    <glyph glyph-name="uni1E24" unicode="&#x1e24;" horiz-adv-x="672" 
d="M80 699h28v-330h456v330h28v-699h-28v345h-456v-345h-28v699zM316.5 -112.5q-8.5 8.5 -8.5 19.5t8.5 19.5t19.5 8.5t19.5 -8.5t8.5 -19.5t-8.5 -19.5t-19.5 -8.5t-19.5 8.5z" />
    <glyph glyph-name="uni1E25" unicode="&#x1e25;" horiz-adv-x="573" 
d="M80 739h28v-348q39 55 93 79.5t114 24.5q93 0 138 -47.5t45 -128.5v-319h-28v318q0 74 -36.5 113.5t-118.5 39.5q-128 0 -207 -118v-353h-28v739zM284.5 -112.5q-8.5 8.5 -8.5 19.5t8.5 19.5t19.5 8.5t19.5 -8.5t8.5 -19.5t-8.5 -19.5t-19.5 -8.5t-19.5 8.5z" />
    <glyph glyph-name="uni1E2A" unicode="&#x1e2a;" horiz-adv-x="672" 
d="M80 699h28v-330h456v330h28v-699h-28v345h-456v-345h-28v699zM258 -144q-33 31 -33 77h24q0 -37 25.5 -61t68.5 -24t68.5 24t25.5 61h24q0 -46 -33 -77t-85 -31t-85 31z" />
    <glyph glyph-name="uni1E2B" unicode="&#x1e2b;" horiz-adv-x="573" 
d="M80 739h28v-348q39 55 93 79.5t114 24.5q93 0 138 -47.5t45 -128.5v-319h-28v318q0 74 -36.5 113.5t-118.5 39.5q-128 0 -207 -118v-353h-28v739zM228 -144q-33 31 -33 77h24q0 -37 25.5 -61t68.5 -24t68.5 24t25.5 61h24q0 -46 -33 -77t-85 -31t-85 31z" />
    <glyph glyph-name="uni1E36" unicode="&#x1e36;" horiz-adv-x="547" 
d="M80 699h28v-675h399v-24h-427v699zM269.5 -112.5q-8.5 8.5 -8.5 19.5t8.5 19.5t19.5 8.5t19.5 -8.5t8.5 -19.5t-8.5 -19.5t-19.5 -8.5t-19.5 8.5z" />
    <glyph glyph-name="uni1E37" unicode="&#x1e37;" horiz-adv-x="188" 
d="M80 739h28v-739h-28v739zM73.5 -112.5q-8.5 8.5 -8.5 19.5t8.5 19.5t19.5 8.5t19.5 -8.5t8.5 -19.5t-8.5 -19.5t-19.5 -8.5t-19.5 8.5z" />
    <glyph glyph-name="uni1E38" unicode="&#x1e38;" horiz-adv-x="547" 
d="M-44 827h278v-24h-278v24zM80 699h28v-675h399v-24h-427v699zM272.5 -112.5q-8.5 8.5 -8.5 19.5t8.5 19.5t19.5 8.5t19.5 -8.5t8.5 -19.5t-8.5 -19.5t-19.5 -8.5t-19.5 8.5z" />
    <glyph glyph-name="uni1E39" unicode="&#x1e39;" horiz-adv-x="188" 
d="M-45 837h278v-24h-278v24zM80 739h28v-739h-28v739zM74.5 -112.5q-8.5 8.5 -8.5 19.5t8.5 19.5t19.5 8.5t19.5 -8.5t8.5 -19.5t-8.5 -19.5t-19.5 -8.5t-19.5 8.5z" />
    <glyph glyph-name="uni1E3A" unicode="&#x1e3a;" horiz-adv-x="547" 
d="M80 699h28v-675h399v-24h-427v699zM163 -86h278v-24h-278v24z" />
    <glyph glyph-name="uni1E3B" unicode="&#x1e3b;" horiz-adv-x="188" 
d="M80 739h28v-739h-28v739zM-45 -86h278v-24h-278v24z" />
    <glyph glyph-name="uni1E42" unicode="&#x1e42;" horiz-adv-x="819" 
d="M80 699h32l298 -653l297 653h32v-699h-28v642l-292 -642h-19l-292 642v-642h-28v699zM390.5 -112.5q-8.5 8.5 -8.5 19.5t8.5 19.5t19.5 8.5t19.5 -8.5t8.5 -19.5t-8.5 -19.5t-19.5 -8.5t-19.5 8.5z" />
    <glyph glyph-name="uni1E43" unicode="&#x1e43;" horiz-adv-x="849" 
d="M80 480h28v-86q40 56 83.5 78.5t97.5 22.5q66 0 100.5 -23t46.5 -70q62 93 182 93q87 0 121.5 -41.5t34.5 -129.5v-324h-28v323q0 79 -27 113.5t-101 34.5q-52 0 -95.5 -22t-80.5 -77q4 -21 4 -53v-319h-28v318q0 55 -11 87.5t-39 49t-79 16.5q-56 0 -97.5 -26t-83.5 -89
v-356h-28v480zM414.5 -112.5q-8.5 8.5 -8.5 19.5t8.5 19.5t19.5 8.5t19.5 -8.5t8.5 -19.5t-8.5 -19.5t-19.5 -8.5t-19.5 8.5z" />
    <glyph glyph-name="uni1E44" unicode="&#x1e44;" horiz-adv-x="663" 
d="M331.5 798.5q-8.5 8.5 -8.5 19.5t8.5 19.5t19.5 8.5t19.5 -8.5t8.5 -19.5t-8.5 -19.5t-19.5 -8.5t-19.5 8.5zM80 699h25l450 -647v647h28v-699h-24l-451 649v-649h-28v699z" />
    <glyph glyph-name="uni1E45" unicode="&#x1e45;" horiz-adv-x="573" 
d="M283.5 580.5q-8.5 8.5 -8.5 19.5t8.5 19.5t19.5 8.5t19.5 -8.5t8.5 -19.5t-8.5 -19.5t-19.5 -8.5t-19.5 8.5zM80 480h28v-89q39 55 93 79.5t114 24.5q93 0 138 -47.5t45 -128.5v-319h-28v318q0 74 -36.5 113.5t-118.5 39.5q-128 0 -207 -118v-353h-28v480z" />
    <glyph glyph-name="uni1E46" unicode="&#x1e46;" horiz-adv-x="663" 
d="M80 699h25l450 -647v647h28v-699h-24l-451 649v-649h-28v699zM321.5 -112.5q-8.5 8.5 -8.5 19.5t8.5 19.5t19.5 8.5t19.5 -8.5t8.5 -19.5t-8.5 -19.5t-19.5 -8.5t-19.5 8.5z" />
    <glyph glyph-name="uni1E47" unicode="&#x1e47;" horiz-adv-x="573" 
d="M80 480h28v-89q39 55 93 79.5t114 24.5q93 0 138 -47.5t45 -128.5v-319h-28v318q0 74 -36.5 113.5t-118.5 39.5q-128 0 -207 -118v-353h-28v480zM275.5 -112.5q-8.5 8.5 -8.5 19.5t8.5 19.5t19.5 8.5t19.5 -8.5t8.5 -19.5t-8.5 -19.5t-19.5 -8.5t-19.5 8.5z" />
    <glyph glyph-name="uni1E48" unicode="&#x1e48;" horiz-adv-x="663" 
d="M80 699h25l450 -647v647h28v-699h-24l-451 649v-649h-28v699zM211 -86h278v-24h-278v24z" />
    <glyph glyph-name="uni1E49" unicode="&#x1e49;" horiz-adv-x="573" 
d="M80 480h28v-89q39 55 93 79.5t114 24.5q93 0 138 -47.5t45 -128.5v-319h-28v318q0 74 -36.5 113.5t-118.5 39.5q-128 0 -207 -118v-353h-28v480zM160 -86h278v-24h-278v24z" />
    <glyph glyph-name="uni1E5A" unicode="&#x1e5a;" horiz-adv-x="591" 
d="M80 699h248q103 0 152.5 -45t49.5 -136q0 -77 -49.5 -126.5t-144.5 -51.5l195 -340h-29l-195 340h-199v-340h-28v699zM331 364q81 0 127 39.5t46 114.5q0 85 -45 121t-127 36h-224v-311h223zM268.5 -112.5q-8.5 8.5 -8.5 19.5t8.5 19.5t19.5 8.5t19.5 -8.5t8.5 -19.5
t-8.5 -19.5t-19.5 -8.5t-19.5 8.5z" />
    <glyph glyph-name="uni1E5B" unicode="&#x1e5b;" horiz-adv-x="382" 
d="M84 480h28v-110q32 59 90 84.5t140 25.5v-24q-184 0 -230 -141v-315h-28v480zM88.5 -112.5q-8.5 8.5 -8.5 19.5t8.5 19.5t19.5 8.5t19.5 -8.5t8.5 -19.5t-8.5 -19.5t-19.5 -8.5t-19.5 8.5z" />
    <glyph glyph-name="uni1E5C" unicode="&#x1e5c;" horiz-adv-x="591" 
d="M128 837h278v-24h-278v24zM80 699h248q103 0 152.5 -45t49.5 -136q0 -77 -49.5 -126.5t-144.5 -51.5l195 -340h-29l-195 340h-199v-340h-28v699zM331 364q81 0 127 39.5t46 114.5q0 85 -45 121t-127 36h-224v-311h223zM244.5 -112.5q-8.5 8.5 -8.5 19.5t8.5 19.5
t19.5 8.5t19.5 -8.5t8.5 -19.5t-8.5 -19.5t-19.5 -8.5t-19.5 8.5z" />
    <glyph glyph-name="uni1E5D" unicode="&#x1e5d;" horiz-adv-x="398" 
d="M80 659h278v-24h-278v24zM89 480h28v-110q32 59 90 84.5t140 25.5v-24q-184 0 -230 -141v-315h-28v480zM83.5 -112.5q-8.5 8.5 -8.5 19.5t8.5 19.5t19.5 8.5t19.5 -8.5t8.5 -19.5t-8.5 -19.5t-19.5 -8.5t-19.5 8.5z" />
    <glyph glyph-name="uni1E5E" unicode="&#x1e5e;" horiz-adv-x="591" 
d="M80 699h248q103 0 152.5 -45t49.5 -136q0 -77 -49.5 -126.5t-144.5 -51.5l195 -340h-29l-195 340h-199v-340h-28v699zM331 364q81 0 127 39.5t46 114.5q0 85 -45 121t-127 36h-224v-311h223zM133 -86h278v-24h-278v24z" />
    <glyph glyph-name="uni1E5F" unicode="&#x1e5f;" horiz-adv-x="398" 
d="M98 480h28v-110q32 59 90 84.5t140 25.5v-24q-184 0 -230 -141v-315h-28v480zM80 -86h278v-24h-278v24z" />
    <glyph glyph-name="uni1E60" unicode="&#x1e60;" horiz-adv-x="544" 
d="M274.5 798.5q-8.5 8.5 -8.5 19.5t8.5 19.5t19.5 8.5t19.5 -8.5t8.5 -19.5t-8.5 -19.5t-19.5 -8.5t-19.5 8.5zM145.5 -6q-51.5 9 -85.5 23v25q85 -33 191 -33q207 0 207 152q0 50 -20.5 82t-61 54.5t-118.5 50.5q-101 37 -145 81.5t-44 117.5q0 76 57.5 121.5t153.5 45.5
q51 0 92.5 -7.5t82.5 -24.5v-25q-42 17 -84 25t-91 8q-87 0 -136 -40t-49 -103q0 -44 17 -74.5t56 -56t110 -51.5q77 -29 117 -50t64.5 -57.5t24.5 -96.5q0 -85 -59.5 -130.5t-173.5 -45.5q-54 0 -105.5 9z" />
    <glyph glyph-name="uni1E61" unicode="&#x1e61;" horiz-adv-x="460" 
d="M214.5 580.5q-8.5 8.5 -8.5 19.5t8.5 19.5t19.5 8.5t19.5 -8.5t8.5 -19.5t-8.5 -19.5t-19.5 -8.5t-19.5 8.5zM135.5 -1.5q-49.5 13.5 -75.5 33.5v25q37 -23 80.5 -35.5t87.5 -12.5q146 0 146 98q0 32 -12 53.5t-44.5 38.5t-95.5 34q-59 16 -92.5 31t-51.5 40t-18 67
q0 61 47.5 92.5t125.5 31.5q87 0 139 -28v-25q-55 29 -139 29q-69 0 -108 -25t-39 -75q0 -34 13.5 -54t45 -34t95.5 -31q87 -23 123.5 -56t36.5 -89t-43.5 -89t-129.5 -33q-42 0 -91.5 13.5z" />
    <glyph glyph-name="uni1E62" unicode="&#x1e62;" horiz-adv-x="544" 
d="M145.5 -6q-51.5 9 -85.5 23v25q85 -33 191 -33q207 0 207 152q0 50 -20.5 82t-61 54.5t-118.5 50.5q-101 37 -145 81.5t-44 117.5q0 76 57.5 121.5t153.5 45.5q51 0 92.5 -7.5t82.5 -24.5v-25q-42 17 -84 25t-91 8q-87 0 -136 -40t-49 -103q0 -44 17 -74.5t56 -56
t110 -51.5q77 -29 117 -50t64.5 -57.5t24.5 -96.5q0 -85 -59.5 -130.5t-173.5 -45.5q-54 0 -105.5 9zM252.5 -112.5q-8.5 8.5 -8.5 19.5t8.5 19.5t19.5 8.5t19.5 -8.5t8.5 -19.5t-8.5 -19.5t-19.5 -8.5t-19.5 8.5z" />
    <glyph glyph-name="uni1E63" unicode="&#x1e63;" horiz-adv-x="460" 
d="M135.5 -1.5q-49.5 13.5 -75.5 33.5v25q37 -23 80.5 -35.5t87.5 -12.5q146 0 146 98q0 32 -12 53.5t-44.5 38.5t-95.5 34q-59 16 -92.5 31t-51.5 40t-18 67q0 61 47.5 92.5t125.5 31.5q87 0 139 -28v-25q-55 29 -139 29q-69 0 -108 -25t-39 -75q0 -34 13.5 -54t45 -34
t95.5 -31q87 -23 123.5 -56t36.5 -89t-43.5 -89t-129.5 -33q-42 0 -91.5 13.5zM210.5 -112.5q-8.5 8.5 -8.5 19.5t8.5 19.5t19.5 8.5t19.5 -8.5t8.5 -19.5t-8.5 -19.5t-19.5 -8.5t-19.5 8.5z" />
    <glyph glyph-name="uni1E6C" unicode="&#x1e6c;" horiz-adv-x="584" 
d="M278 675h-238v24h504v-24h-238v-675h-28v675zM272.5 -112.5q-8.5 8.5 -8.5 19.5t8.5 19.5t19.5 8.5t19.5 -8.5t8.5 -19.5t-8.5 -19.5t-19.5 -8.5t-19.5 8.5z" />
    <glyph glyph-name="uni1E6D" unicode="&#x1e6d;" horiz-adv-x="343" 
d="M152 18q-33 33 -33 102v336h-79v24h79v144h28v-144h127v-24h-127v-338q0 -56 25.5 -82.5t80.5 -26.5q28 0 50 7v-25q-27 -6 -59 -6q-59 0 -92 33zM214.5 -112.5q-8.5 8.5 -8.5 19.5t8.5 19.5t19.5 8.5t19.5 -8.5t8.5 -19.5t-8.5 -19.5t-19.5 -8.5t-19.5 8.5z" />
    <glyph glyph-name="uni1E6E" unicode="&#x1e6e;" horiz-adv-x="584" 
d="M278 675h-238v24h504v-24h-238v-675h-28v675zM153 -86h278v-24h-278v24z" />
    <glyph glyph-name="uni1E6F" unicode="&#x1e6f;" horiz-adv-x="358" 
d="M159 18q-33 33 -33 102v336h-79v24h79v144h28v-144h127v-24h-127v-338q0 -56 25.5 -82.5t80.5 -26.5q28 0 50 7v-25q-27 -6 -59 -6q-59 0 -92 33zM40 -86h278v-24h-278v24z" />
    <glyph glyph-name="Wgrave" unicode="&#x1e80;" horiz-adv-x="1013" 
d="M415 950h28l71 -167h-22zM60 699h28l202 -652l202 652h29l202 -652l202 652h28l-219 -699h-22l-206 665l-205 -665h-22z" />
    <glyph glyph-name="wgrave" unicode="&#x1e81;" horiz-adv-x="766" 
d="M287 729h28l71 -167h-22zM60 480h27l139 -449l139 449h36l139 -449l139 449h27l-150 -480h-31l-142 461l-142 -461h-31z" />
    <glyph glyph-name="Wacute" unicode="&#x1e82;" horiz-adv-x="1013" 
d="M563 950h28l-77 -167h-22zM60 699h28l202 -652l202 652h29l202 -652l202 652h28l-219 -699h-22l-206 665l-205 -665h-22z" />
    <glyph glyph-name="wacute" unicode="&#x1e83;" horiz-adv-x="766" 
d="M447 729h28l-77 -167h-22zM60 480h27l139 -449l139 449h36l139 -449l139 449h27l-150 -480h-31l-142 461l-142 -461h-31z" />
    <glyph glyph-name="Wdieresis" unicode="&#x1e84;" horiz-adv-x="1013" 
d="M387.5 798.5q-8.5 8.5 -8.5 19.5t8.5 19.5t19.5 8.5t19.5 -8.5t8.5 -19.5t-8.5 -19.5t-19.5 -8.5t-19.5 8.5zM585.5 798.5q-8.5 8.5 -8.5 19.5t8.5 19.5t19.5 8.5t19.5 -8.5t8.5 -19.5t-8.5 -19.5t-19.5 -8.5t-19.5 8.5zM60 699h28l202 -652l202 652h29l202 -652l202 652
h28l-219 -699h-22l-206 665l-205 -665h-22z" />
    <glyph glyph-name="wdieresis" unicode="&#x1e85;" horiz-adv-x="766" 
d="M264.5 580.5q-8.5 8.5 -8.5 19.5t8.5 19.5t19.5 8.5t19.5 -8.5t8.5 -19.5t-8.5 -19.5t-19.5 -8.5t-19.5 8.5zM462.5 580.5q-8.5 8.5 -8.5 19.5t8.5 19.5t19.5 8.5t19.5 -8.5t8.5 -19.5t-8.5 -19.5t-19.5 -8.5t-19.5 8.5zM60 480h27l139 -449l139 449h36l139 -449l139 449
h27l-150 -480h-31l-142 461l-142 -461h-31z" />
    <glyph glyph-name="uni1E8E" unicode="&#x1e8e;" horiz-adv-x="658" 
d="M309.5 798.5q-8.5 8.5 -8.5 19.5t8.5 19.5t19.5 8.5t19.5 -8.5t8.5 -19.5t-8.5 -19.5t-19.5 -8.5t-19.5 8.5zM315 265l-255 434h28l241 -410l241 410h28l-255 -434v-265h-28v265z" />
    <glyph glyph-name="uni1E8F" unicode="&#x1e8f;" horiz-adv-x="531" 
d="M259.5 580.5q-8.5 8.5 -8.5 19.5t8.5 19.5t19.5 8.5t19.5 -8.5t8.5 -19.5t-8.5 -19.5t-19.5 -8.5t-19.5 8.5zM70 -192v25q22 -7 53 -7q43 0 66 22.5t43 72.5l33 85l-205 474h28l191 -438l184 438h28l-234 -565q-24 -59 -53 -86t-75 -27q-32 0 -59 6z" />
    <glyph glyph-name="uni1E92" unicode="&#x1e92;" horiz-adv-x="615" 
d="M60 26l452 649h-440v24h472v-26l-452 -649h463v-24h-495v26zM296.5 -112.5q-8.5 8.5 -8.5 19.5t8.5 19.5t19.5 8.5t19.5 -8.5t8.5 -19.5t-8.5 -19.5t-19.5 -8.5t-19.5 8.5z" />
    <glyph glyph-name="uni1E93" unicode="&#x1e93;" horiz-adv-x="466" 
d="M60 25l308 431h-300v24h330v-25l-308 -431h316v-24h-346v25zM220.5 -112.5q-8.5 8.5 -8.5 19.5t8.5 19.5t19.5 8.5t19.5 -8.5t8.5 -19.5t-8.5 -19.5t-19.5 -8.5t-19.5 8.5z" />
    <glyph glyph-name="uni1E97" unicode="&#x1e97;" horiz-adv-x="377" 
d="M48.5 695.5q-8.5 8.5 -8.5 19.5t8.5 19.5t19.5 8.5t19.5 -8.5t8.5 -19.5t-8.5 -19.5t-19.5 -8.5t-19.5 8.5zM246.5 695.5q-8.5 8.5 -8.5 19.5t8.5 19.5t19.5 8.5t19.5 -8.5t8.5 -19.5t-8.5 -19.5t-19.5 -8.5t-19.5 8.5zM186 18q-33 33 -33 102v336h-79v24h79v144h28v-144
h127v-24h-127v-338q0 -56 25.5 -82.5t80.5 -26.5q28 0 50 7v-25q-27 -6 -59 -6q-59 0 -92 33z" />
    <glyph glyph-name="uni1E9E" unicode="&#x1e9e;" horiz-adv-x="590" 
d="M182 6v24q32 -12 63 -17t76 -5q86 0 134.5 47.5t48.5 135.5q0 93 -58 133t-149 40h-36v24l167 159q0 66 -45.5 105t-116.5 39t-117 -42.5t-46 -143.5v-505h-28v502q0 114 52.5 163t138.5 49q60 0 102.5 -23.5t64 -63t21.5 -87.5l-161 -153q115 0 176 -50t61 -146
q0 -92 -53 -149t-156 -57q-89 0 -139 21z" />
    <glyph glyph-name="uni1EA0" unicode="&#x1ea0;" horiz-adv-x="700" 
d="M339 699h22l279 -699h-28l-86 215h-352l-86 -215h-28zM516 239l-166 418l-166 -418h332zM330.5 -112.5q-8.5 8.5 -8.5 19.5t8.5 19.5t19.5 8.5t19.5 -8.5t8.5 -19.5t-8.5 -19.5t-19.5 -8.5t-19.5 8.5z" />
    <glyph glyph-name="uni1EA1" unicode="&#x1ea1;" horiz-adv-x="554" 
d="M110.5 23.5q-50.5 38.5 -50.5 110.5q0 151 190 151q118 0 201 -49v81q0 78 -41.5 116t-133.5 38q-78 0 -150 -29v25q29 12 70 20t80 8q203 0 203 -179v-316h-25v77q-65 -92 -208 -92q-85 0 -135.5 38.5zM373.5 36q52.5 27 77.5 75v101q-48 26 -94 37.5t-107 11.5
q-88 0 -126 -31.5t-38 -95.5q0 -60 41.5 -92.5t126.5 -32.5q67 0 119.5 27zM254.5 -112.5q-8.5 8.5 -8.5 19.5t8.5 19.5t19.5 8.5t19.5 -8.5t8.5 -19.5t-8.5 -19.5t-19.5 -8.5t-19.5 8.5z" />
    <glyph glyph-name="uni1EA2" unicode="&#x1ea2;" horiz-adv-x="700" 
d="M339 807q52 0 73 16.5t21 50.5q0 63 -77 63q-14 0 -30 -2t-25 -6v24q9 3 25 5.5t30 2.5q50 0 76.5 -23.5t26.5 -62.5q0 -38 -25 -61.5t-72 -25.5v-44h-23v63zM339 699h22l279 -699h-28l-86 215h-352l-86 -215h-28zM516 239l-166 418l-166 -418h332z" />
    <glyph glyph-name="uni1EA3" unicode="&#x1ea3;" horiz-adv-x="554" 
d="M283 625q52 0 73 16.5t21 50.5q0 63 -77 63q-14 0 -30 -2t-25 -6v24q9 3 25 5.5t30 2.5q50 0 76.5 -23.5t26.5 -62.5q0 -38 -25 -61.5t-72 -25.5v-44h-23v63zM110.5 23.5q-50.5 38.5 -50.5 110.5q0 151 190 151q118 0 201 -49v81q0 78 -41.5 116t-133.5 38
q-78 0 -150 -29v25q29 12 70 20t80 8q203 0 203 -179v-316h-25v77q-65 -92 -208 -92q-85 0 -135.5 38.5zM373.5 36q52.5 27 77.5 75v101q-48 26 -94 37.5t-107 11.5q-88 0 -126 -31.5t-38 -95.5q0 -60 41.5 -92.5t126.5 -32.5q67 0 119.5 27z" />
    <glyph glyph-name="uni1EA4" unicode="&#x1ea4;" horiz-adv-x="700" 
d="M497 938h28l-71 -108h-22zM339 868h22l128 -121h-31l-108 102l-108 -102h-31zM339 699h22l279 -699h-28l-86 215h-352l-86 -215h-28zM516 239l-166 418l-166 -418h332z" />
    <glyph glyph-name="uni1EA5" unicode="&#x1ea5;" horiz-adv-x="554" 
d="M431 749h28l-71 -108h-22zM273 679h22l128 -121h-31l-108 102l-108 -102h-31zM110.5 23.5q-50.5 38.5 -50.5 110.5q0 151 190 151q118 0 201 -49v81q0 78 -41.5 116t-133.5 38q-78 0 -150 -29v25q29 12 70 20t80 8q203 0 203 -179v-316h-25v77q-65 -92 -208 -92
q-85 0 -135.5 38.5zM373.5 36q52.5 27 77.5 75v101q-48 26 -94 37.5t-107 11.5q-88 0 -126 -31.5t-38 -95.5q0 -60 41.5 -92.5t126.5 -32.5q67 0 119.5 27z" />
    <glyph glyph-name="uni1EA6" unicode="&#x1ea6;" horiz-adv-x="700" 
d="M176 938h28l65 -108h-22zM340 868h22l128 -121h-31l-108 102l-108 -102h-31zM339 699h22l279 -699h-28l-86 215h-352l-86 -215h-28zM516 239l-166 418l-166 -418h332z" />
    <glyph glyph-name="uni1EA7" unicode="&#x1ea7;" horiz-adv-x="554" 
d="M116 749h28l65 -108h-22zM280 679h22l128 -121h-31l-108 102l-108 -102h-31zM110.5 23.5q-50.5 38.5 -50.5 110.5q0 151 190 151q118 0 201 -49v81q0 78 -41.5 116t-133.5 38q-78 0 -150 -29v25q29 12 70 20t80 8q203 0 203 -179v-316h-25v77q-65 -92 -208 -92
q-85 0 -135.5 38.5zM373.5 36q52.5 27 77.5 75v101q-48 26 -94 37.5t-107 11.5q-88 0 -126 -31.5t-38 -95.5q0 -60 41.5 -92.5t126.5 -32.5q67 0 119.5 27z" />
    <glyph glyph-name="uni1EA8" unicode="&#x1ea8;" horiz-adv-x="700" 
d="M436 865q36 0 51.5 9.5t15.5 32.5q0 22 -11.5 31t-34.5 9q-13 0 -27 -2.5t-22 -6.5v23q22 8 49 8q35 0 52.5 -16.5t17.5 -45.5q0 -26 -18.5 -42.5t-51.5 -17.5v-27h-21v45zM341 868h22l128 -121h-31l-108 102l-108 -102h-31zM339 699h22l279 -699h-28l-86 215h-352
l-86 -215h-28zM516 239l-166 418l-166 -418h332z" />
    <glyph glyph-name="uni1EA9" unicode="&#x1ea9;" horiz-adv-x="554" 
d="M373 676q36 0 51.5 9.5t15.5 32.5q0 22 -11.5 31t-34.5 9q-13 0 -27 -2.5t-22 -6.5v23q22 8 49 8q35 0 52.5 -16.5t17.5 -45.5q0 -26 -18.5 -42.5t-51.5 -17.5v-27h-21v45zM278 679h22l128 -121h-31l-108 102l-108 -102h-31zM110.5 23.5q-50.5 38.5 -50.5 110.5
q0 151 190 151q118 0 201 -49v81q0 78 -41.5 116t-133.5 38q-78 0 -150 -29v25q29 12 70 20t80 8q203 0 203 -179v-316h-25v77q-65 -92 -208 -92q-85 0 -135.5 38.5zM373.5 36q52.5 27 77.5 75v101q-48 26 -94 37.5t-107 11.5q-88 0 -126 -31.5t-38 -95.5q0 -60 41.5 -92.5
t126.5 -32.5q67 0 119.5 27z" />
    <glyph glyph-name="uni1EAA" unicode="&#x1eaa;" horiz-adv-x="700" 
d="M387 887q-17 6 -43 19q-22 10 -37 15.5t-28 5.5q-23 0 -38.5 -9.5t-30.5 -35.5v30q10 19 26.5 28t42.5 9q15 0 31.5 -6t41.5 -18q27 -12 41 -17t28 -5q23 0 39 10t30 35v-30q-10 -19 -26.5 -28t-42.5 -9q-17 0 -34 6zM339 868h22l128 -121h-31l-108 102l-108 -102h-31z
M339 699h22l279 -699h-28l-86 215h-352l-86 -215h-28zM516 239l-166 418l-166 -418h332z" />
    <glyph glyph-name="uni1EAB" unicode="&#x1eab;" horiz-adv-x="554" 
d="M324 698q-17 6 -43 19q-22 10 -37 15.5t-28 5.5q-23 0 -38.5 -9.5t-30.5 -35.5v30q10 19 26.5 28t42.5 9q15 0 31.5 -6t41.5 -18q27 -12 41 -17t28 -5q23 0 39 10t30 35v-30q-10 -19 -26.5 -28t-42.5 -9q-17 0 -34 6zM276 679h22l128 -121h-31l-108 102l-108 -102h-31z
M110.5 23.5q-50.5 38.5 -50.5 110.5q0 151 190 151q118 0 201 -49v81q0 78 -41.5 116t-133.5 38q-78 0 -150 -29v25q29 12 70 20t80 8q203 0 203 -179v-316h-25v77q-65 -92 -208 -92q-85 0 -135.5 38.5zM373.5 36q52.5 27 77.5 75v101q-48 26 -94 37.5t-107 11.5
q-88 0 -126 -31.5t-38 -95.5q0 -60 41.5 -92.5t126.5 -32.5q67 0 119.5 27z" />
    <glyph glyph-name="uni1EAC" unicode="&#x1eac;" horiz-adv-x="700" 
d="M339 935h22l128 -151h-31l-108 129l-108 -129h-31zM339 699h22l279 -699h-28l-86 215h-352l-86 -215h-28zM516 239l-166 418l-166 -418h332zM330.5 -112.5q-8.5 8.5 -8.5 19.5t8.5 19.5t19.5 8.5t19.5 -8.5t8.5 -19.5t-8.5 -19.5t-19.5 -8.5t-19.5 8.5z" />
    <glyph glyph-name="uni1EAD" unicode="&#x1ead;" horiz-adv-x="554" 
d="M274 719h22l128 -151h-31l-108 129l-108 -129h-31zM110.5 23.5q-50.5 38.5 -50.5 110.5q0 151 190 151q118 0 201 -49v81q0 78 -41.5 116t-133.5 38q-78 0 -150 -29v25q29 12 70 20t80 8q203 0 203 -179v-316h-25v77q-65 -92 -208 -92q-85 0 -135.5 38.5zM373.5 36
q52.5 27 77.5 75v101q-48 26 -94 37.5t-107 11.5q-88 0 -126 -31.5t-38 -95.5q0 -60 41.5 -92.5t126.5 -32.5q67 0 119.5 27zM266.5 -112.5q-8.5 8.5 -8.5 19.5t8.5 19.5t19.5 8.5t19.5 -8.5t8.5 -19.5t-8.5 -19.5t-19.5 -8.5t-19.5 8.5z" />
    <glyph glyph-name="uni1EAE" unicode="&#x1eae;" horiz-adv-x="700" 
d="M377 945h28l-60 -120h-22zM265 782q-33 31 -33 77h24q0 -37 25.5 -61t68.5 -24t68.5 24t25.5 61h24q0 -46 -33 -77t-85 -31t-85 31zM339 699h22l279 -699h-28l-86 215h-352l-86 -215h-28zM516 239l-166 418l-166 -418h332z" />
    <glyph glyph-name="uni1EAF" unicode="&#x1eaf;" horiz-adv-x="554" 
d="M316 759h28l-60 -120h-22zM204 596q-33 31 -33 77h24q0 -37 25.5 -61t68.5 -24t68.5 24t25.5 61h24q0 -46 -33 -77t-85 -31t-85 31zM110.5 23.5q-50.5 38.5 -50.5 110.5q0 151 190 151q118 0 201 -49v81q0 78 -41.5 116t-133.5 38q-78 0 -150 -29v25q29 12 70 20t80 8
q203 0 203 -179v-316h-25v77q-65 -92 -208 -92q-85 0 -135.5 38.5zM373.5 36q52.5 27 77.5 75v101q-48 26 -94 37.5t-107 11.5q-88 0 -126 -31.5t-38 -95.5q0 -60 41.5 -92.5t126.5 -32.5q67 0 119.5 27z" />
    <glyph glyph-name="uni1EB0" unicode="&#x1eb0;" horiz-adv-x="700" 
d="M295 945h28l54 -120h-22zM265 782q-33 31 -33 77h24q0 -37 25.5 -61t68.5 -24t68.5 24t25.5 61h24q0 -46 -33 -77t-85 -31t-85 31zM339 699h22l279 -699h-28l-86 215h-352l-86 -215h-28zM516 239l-166 418l-166 -418h332z" />
    <glyph glyph-name="uni1EB1" unicode="&#x1eb1;" horiz-adv-x="554" 
d="M233 759h28l54 -120h-22zM203 596q-33 31 -33 77h24q0 -37 25.5 -61t68.5 -24t68.5 24t25.5 61h24q0 -46 -33 -77t-85 -31t-85 31zM110.5 23.5q-50.5 38.5 -50.5 110.5q0 151 190 151q118 0 201 -49v81q0 78 -41.5 116t-133.5 38q-78 0 -150 -29v25q29 12 70 20t80 8
q203 0 203 -179v-316h-25v77q-65 -92 -208 -92q-85 0 -135.5 38.5zM373.5 36q52.5 27 77.5 75v101q-48 26 -94 37.5t-107 11.5q-88 0 -126 -31.5t-38 -95.5q0 -60 41.5 -92.5t126.5 -32.5q67 0 119.5 27z" />
    <glyph glyph-name="uni1EB2" unicode="&#x1eb2;" horiz-adv-x="700" 
d="M332 859q36 0 51.5 9.5t15.5 32.5q0 22 -11.5 31t-34.5 9q-13 0 -27 -2.5t-22 -6.5v23q22 8 49 8q35 0 52.5 -16.5t17.5 -45.5q0 -26 -18.5 -42.5t-51.5 -17.5v-32h-21v50zM265 781q-33 31 -33 77h24q0 -37 25.5 -61t68.5 -24t68.5 24t25.5 61h24q0 -46 -33 -77t-85 -31
t-85 31zM339 699h22l279 -699h-28l-86 215h-352l-86 -215h-28zM516 239l-166 418l-166 -418h332z" />
    <glyph glyph-name="uni1EB3" unicode="&#x1eb3;" horiz-adv-x="554" 
d="M273 674q36 0 51.5 9.5t15.5 32.5q0 22 -11.5 31t-34.5 9q-13 0 -27 -2.5t-22 -6.5v23q22 8 49 8q35 0 52.5 -16.5t17.5 -45.5q0 -26 -18.5 -42.5t-51.5 -17.5v-32h-21v50zM206 596q-33 31 -33 77h24q0 -37 25.5 -61t68.5 -24t68.5 24t25.5 61h24q0 -46 -33 -77t-85 -31
t-85 31zM110.5 23.5q-50.5 38.5 -50.5 110.5q0 151 190 151q118 0 201 -49v81q0 78 -41.5 116t-133.5 38q-78 0 -150 -29v25q29 12 70 20t80 8q203 0 203 -179v-316h-25v77q-65 -92 -208 -92q-85 0 -135.5 38.5zM373.5 36q52.5 27 77.5 75v101q-48 26 -94 37.5t-107 11.5
q-88 0 -126 -31.5t-38 -95.5q0 -60 41.5 -92.5t126.5 -32.5q67 0 119.5 27z" />
    <glyph glyph-name="uni1EB4" unicode="&#x1eb4;" horiz-adv-x="700" 
d="M387 892q-17 6 -43 19q-22 10 -37 15.5t-28 5.5q-23 0 -38.5 -9.5t-30.5 -35.5v30q10 19 26.5 28t42.5 9q15 0 31.5 -6t41.5 -18q27 -12 41 -17t28 -5q23 0 39 10t30 35v-30q-10 -19 -26.5 -28t-42.5 -9q-17 0 -34 6zM265 781q-33 31 -33 77h24q0 -37 25.5 -61t68.5 -24
t68.5 24t25.5 61h24q0 -46 -33 -77t-85 -31t-85 31zM339 699h22l279 -699h-28l-86 215h-352l-86 -215h-28zM516 239l-166 418l-166 -418h332z" />
    <glyph glyph-name="uni1EB5" unicode="&#x1eb5;" horiz-adv-x="554" 
d="M333 707q-17 6 -43 19q-22 10 -37 15.5t-28 5.5q-23 0 -38.5 -9.5t-30.5 -35.5v30q10 19 26.5 28t42.5 9q15 0 31.5 -6t41.5 -18q27 -12 41 -17t28 -5q23 0 39 10t30 35v-30q-10 -19 -26.5 -28t-42.5 -9q-17 0 -34 6zM211 596q-33 31 -33 77h24q0 -37 25.5 -61t68.5 -24
t68.5 24t25.5 61h24q0 -46 -33 -77t-85 -31t-85 31zM110.5 23.5q-50.5 38.5 -50.5 110.5q0 151 190 151q118 0 201 -49v81q0 78 -41.5 116t-133.5 38q-78 0 -150 -29v25q29 12 70 20t80 8q203 0 203 -179v-316h-25v77q-65 -92 -208 -92q-85 0 -135.5 38.5zM373.5 36
q52.5 27 77.5 75v101q-48 26 -94 37.5t-107 11.5q-88 0 -126 -31.5t-38 -95.5q0 -60 41.5 -92.5t126.5 -32.5q67 0 119.5 27z" />
    <glyph glyph-name="uni1EB6" unicode="&#x1eb6;" horiz-adv-x="700" 
d="M265 814q-33 31 -33 77h24q0 -37 25.5 -61t68.5 -24t68.5 24t25.5 61h24q0 -46 -33 -77t-85 -31t-85 31zM339 699h22l279 -699h-28l-86 215h-352l-86 -215h-28zM516 239l-166 418l-166 -418h332zM330.5 -112.5q-8.5 8.5 -8.5 19.5t8.5 19.5t19.5 8.5t19.5 -8.5t8.5 -19.5
t-8.5 -19.5t-19.5 -8.5t-19.5 8.5z" />
    <glyph glyph-name="uni1EB7" unicode="&#x1eb7;" horiz-adv-x="554" 
d="M200 591q-33 31 -33 77h24q0 -37 25.5 -61t68.5 -24t68.5 24t25.5 61h24q0 -46 -33 -77t-85 -31t-85 31zM110.5 23.5q-50.5 38.5 -50.5 110.5q0 151 190 151q118 0 201 -49v81q0 78 -41.5 116t-133.5 38q-78 0 -150 -29v25q29 12 70 20t80 8q203 0 203 -179v-316h-25v77
q-65 -92 -208 -92q-85 0 -135.5 38.5zM373.5 36q52.5 27 77.5 75v101q-48 26 -94 37.5t-107 11.5q-88 0 -126 -31.5t-38 -95.5q0 -60 41.5 -92.5t126.5 -32.5q67 0 119.5 27zM265.5 -112.5q-8.5 8.5 -8.5 19.5t8.5 19.5t19.5 8.5t19.5 -8.5t8.5 -19.5t-8.5 -19.5t-19.5 -8.5
t-19.5 8.5z" />
    <glyph glyph-name="uni1EB8" unicode="&#x1eb8;" horiz-adv-x="567" 
d="M80 699h427v-24h-399v-313h303v-24h-303v-314h399v-24h-427v699zM246.5 -112.5q-8.5 8.5 -8.5 19.5t8.5 19.5t19.5 8.5t19.5 -8.5t8.5 -19.5t-8.5 -19.5t-19.5 -8.5t-19.5 8.5z" />
    <glyph glyph-name="uni1EB9" unicode="&#x1eb9;" horiz-adv-x="607" 
d="M129.5 52q-69.5 67 -69.5 188q0 118 63.5 186.5t179.5 68.5q79 0 134 -31t82.5 -85t27.5 -124v-25h-462q0 -108 65 -165t177 -57q46 0 90.5 8.5t78.5 21.5v-24q-28 -12 -76.5 -20.5t-92.5 -8.5q-128 0 -197.5 67zM522 253q0 99 -54.5 159t-164.5 60q-109 0 -163.5 -62
t-54.5 -157h437zM282.5 -112.5q-8.5 8.5 -8.5 19.5t8.5 19.5t19.5 8.5t19.5 -8.5t8.5 -19.5t-8.5 -19.5t-19.5 -8.5t-19.5 8.5z" />
    <glyph glyph-name="uni1EBA" unicode="&#x1eba;" horiz-adv-x="567" 
d="M254 847q52 0 73 16.5t21 50.5q0 63 -77 63q-14 0 -30 -2t-25 -6v24q9 3 25 5.5t30 2.5q50 0 76.5 -23.5t26.5 -62.5q0 -38 -25 -61.5t-72 -25.5v-44h-23v63zM80 699h427v-24h-399v-313h303v-24h-303v-314h399v-24h-427v699z" />
    <glyph glyph-name="uni1EBB" unicode="&#x1ebb;" horiz-adv-x="607" 
d="M297 629q52 0 73 16.5t21 50.5q0 63 -77 63q-14 0 -30 -2t-25 -6v24q9 3 25 5.5t30 2.5q50 0 76.5 -23.5t26.5 -62.5q0 -38 -25 -61.5t-72 -25.5v-44h-23v63zM129.5 52q-69.5 67 -69.5 188q0 118 63.5 186.5t179.5 68.5q79 0 134 -31t82.5 -85t27.5 -124v-25h-462
q0 -108 65 -165t177 -57q46 0 90.5 8.5t78.5 21.5v-24q-28 -12 -76.5 -20.5t-92.5 -8.5q-128 0 -197.5 67zM522 253q0 99 -54.5 159t-164.5 60q-109 0 -163.5 -62t-54.5 -157h437z" />
    <glyph glyph-name="uni1EBC" unicode="&#x1ebc;" horiz-adv-x="567" 
d="M96 817q27 45 90 45q22 0 41.5 -6t47.5 -19q26 -12 45 -18.5t40 -6.5q27 0 49.5 12t40.5 42v-33q-27 -45 -90 -45q-25 0 -46 6.5t-47 19.5q-25 12 -42.5 18t-38.5 6q-27 0 -48.5 -12t-41.5 -42v33zM80 699h427v-24h-399v-313h303v-24h-303v-314h399v-24h-427v699z" />
    <glyph glyph-name="uni1EBD" unicode="&#x1ebd;" horiz-adv-x="607" 
d="M129 613q27 45 90 45q22 0 41.5 -6t47.5 -19q26 -12 45 -18.5t40 -6.5q27 0 49.5 12t40.5 42v-33q-27 -45 -90 -45q-25 0 -46 6.5t-47 19.5q-25 12 -42.5 18t-38.5 6q-27 0 -48.5 -12t-41.5 -42v33zM129.5 52q-69.5 67 -69.5 188q0 118 63.5 186.5t179.5 68.5
q79 0 134 -31t82.5 -85t27.5 -124v-25h-462q0 -108 65 -165t177 -57q46 0 90.5 8.5t78.5 21.5v-24q-28 -12 -76.5 -20.5t-92.5 -8.5q-128 0 -197.5 67zM522 253q0 99 -54.5 159t-164.5 60q-109 0 -163.5 -62t-54.5 -157h437z" />
    <glyph glyph-name="uni1EBE" unicode="&#x1ebe;" horiz-adv-x="567" 
d="M422 948h28l-71 -108h-22zM264 878h22l128 -121h-31l-108 102l-108 -102h-31zM80 699h427v-24h-399v-313h303v-24h-303v-314h399v-24h-427v699z" />
    <glyph glyph-name="uni1EBF" unicode="&#x1ebf;" horiz-adv-x="607" 
d="M462 749h28l-71 -108h-22zM304 679h22l128 -121h-31l-108 102l-108 -102h-31zM129.5 52q-69.5 67 -69.5 188q0 118 63.5 186.5t179.5 68.5q79 0 134 -31t82.5 -85t27.5 -124v-25h-462q0 -108 65 -165t177 -57q46 0 90.5 8.5t78.5 21.5v-24q-28 -12 -76.5 -20.5
t-92.5 -8.5q-128 0 -197.5 67zM522 253q0 99 -54.5 159t-164.5 60q-109 0 -163.5 -62t-54.5 -157h437z" />
    <glyph glyph-name="uni1EC0" unicode="&#x1ec0;" horiz-adv-x="567" 
d="M119 948h28l65 -108h-22zM283 878h22l128 -121h-31l-108 102l-108 -102h-31zM80 699h427v-24h-399v-313h303v-24h-303v-314h399v-24h-427v699z" />
    <glyph glyph-name="uni1EC1" unicode="&#x1ec1;" horiz-adv-x="607" 
d="M139 749h28l65 -108h-22zM303 679h22l128 -121h-31l-108 102l-108 -102h-31zM129.5 52q-69.5 67 -69.5 188q0 118 63.5 186.5t179.5 68.5q79 0 134 -31t82.5 -85t27.5 -124v-25h-462q0 -108 65 -165t177 -57q46 0 90.5 8.5t78.5 21.5v-24q-28 -12 -76.5 -20.5t-92.5 -8.5
q-128 0 -197.5 67zM522 253q0 99 -54.5 159t-164.5 60q-109 0 -163.5 -62t-54.5 -157h437z" />
    <glyph glyph-name="uni1EC2" unicode="&#x1ec2;" horiz-adv-x="567" 
d="M370 875q36 0 51.5 9.5t15.5 32.5q0 22 -11.5 31t-34.5 9q-13 0 -27 -2.5t-22 -6.5v23q22 8 49 8q35 0 52.5 -16.5t17.5 -45.5q0 -26 -18.5 -42.5t-51.5 -17.5v-27h-21v45zM275 878h22l128 -121h-31l-108 102l-108 -102h-31zM80 699h427v-24h-399v-313h303v-24h-303v-314
h399v-24h-427v699z" />
    <glyph glyph-name="uni1EC3" unicode="&#x1ec3;" horiz-adv-x="607" 
d="M401 676q36 0 51.5 9.5t15.5 32.5q0 22 -11.5 31t-34.5 9q-13 0 -27 -2.5t-22 -6.5v23q22 8 49 8q35 0 52.5 -16.5t17.5 -45.5q0 -26 -18.5 -42.5t-51.5 -17.5v-27h-21v45zM306 679h22l128 -121h-31l-108 102l-108 -102h-31zM129.5 52q-69.5 67 -69.5 188
q0 118 63.5 186.5t179.5 68.5q79 0 134 -31t82.5 -85t27.5 -124v-25h-462q0 -108 65 -165t177 -57q46 0 90.5 8.5t78.5 21.5v-24q-28 -12 -76.5 -20.5t-92.5 -8.5q-128 0 -197.5 67zM522 253q0 99 -54.5 159t-164.5 60q-109 0 -163.5 -62t-54.5 -157h437z" />
    <glyph glyph-name="uni1EC4" unicode="&#x1ec4;" horiz-adv-x="567" 
d="M324 897q-17 6 -43 19q-22 10 -37 15.5t-28 5.5q-23 0 -38.5 -9.5t-30.5 -35.5v30q10 19 26.5 28t42.5 9q15 0 31.5 -6t41.5 -18q27 -12 41 -17t28 -5q23 0 39 10t30 35v-30q-10 -19 -26.5 -28t-42.5 -9q-17 0 -34 6zM276 878h22l128 -121h-31l-108 102l-108 -102h-31z
M80 699h427v-24h-399v-313h303v-24h-303v-314h399v-24h-427v699z" />
    <glyph glyph-name="uni1EC5" unicode="&#x1ec5;" horiz-adv-x="607" 
d="M345 698q-17 6 -43 19q-22 10 -37 15.5t-28 5.5q-23 0 -38.5 -9.5t-30.5 -35.5v30q10 19 26.5 28t42.5 9q15 0 31.5 -6t41.5 -18q27 -12 41 -17t28 -5q23 0 39 10t30 35v-30q-10 -19 -26.5 -28t-42.5 -9q-17 0 -34 6zM297 679h22l128 -121h-31l-108 102l-108 -102h-31z
M129.5 52q-69.5 67 -69.5 188q0 118 63.5 186.5t179.5 68.5q79 0 134 -31t82.5 -85t27.5 -124v-25h-462q0 -108 65 -165t177 -57q46 0 90.5 8.5t78.5 21.5v-24q-28 -12 -76.5 -20.5t-92.5 -8.5q-128 0 -197.5 67zM522 253q0 99 -54.5 159t-164.5 60q-109 0 -163.5 -62
t-54.5 -157h437z" />
    <glyph glyph-name="uni1EC6" unicode="&#x1ec6;" horiz-adv-x="567" 
d="M272 935h22l128 -151h-31l-108 129l-108 -129h-31zM80 699h427v-24h-399v-313h303v-24h-303v-314h399v-24h-427v699zM263.5 -112.5q-8.5 8.5 -8.5 19.5t8.5 19.5t19.5 8.5t19.5 -8.5t8.5 -19.5t-8.5 -19.5t-19.5 -8.5t-19.5 8.5z" />
    <glyph glyph-name="uni1EC7" unicode="&#x1ec7;" horiz-adv-x="607" 
d="M295 699h22l128 -151h-31l-108 129l-108 -129h-31zM129.5 52q-69.5 67 -69.5 188q0 118 63.5 186.5t179.5 68.5q79 0 134 -31t82.5 -85t27.5 -124v-25h-462q0 -108 65 -165t177 -57q46 0 90.5 8.5t78.5 21.5v-24q-28 -12 -76.5 -20.5t-92.5 -8.5q-128 0 -197.5 67z
M522 253q0 99 -54.5 159t-164.5 60q-109 0 -163.5 -62t-54.5 -157h437zM286.5 -112.5q-8.5 8.5 -8.5 19.5t8.5 19.5t19.5 8.5t19.5 -8.5t8.5 -19.5t-8.5 -19.5t-19.5 -8.5t-19.5 8.5z" />
    <glyph glyph-name="uni1EC8" unicode="&#x1ec8;" horiz-adv-x="188" 
d="M83 847q52 0 73 16.5t21 50.5q0 63 -77 63q-14 0 -30 -2t-25 -6v24q9 3 25 5.5t30 2.5q50 0 76.5 -23.5t26.5 -62.5q0 -38 -25 -61.5t-72 -25.5v-44h-23v63zM80 699h28v-699h-28v699z" />
    <glyph glyph-name="uni1EC9" unicode="&#x1ec9;" horiz-adv-x="188" 
d="M82 626q52 0 73 16.5t21 50.5q0 63 -77 63q-14 0 -30 -2t-25 -6v24q9 3 25 5.5t30 2.5q50 0 76.5 -23.5t26.5 -62.5q0 -38 -25 -61.5t-72 -25.5v-44h-23v63zM80 480h28v-480h-28v480z" />
    <glyph glyph-name="uni1ECA" unicode="&#x1eca;" horiz-adv-x="188" 
d="M80 699h28v-699h-28v699zM74.5 -112.5q-8.5 8.5 -8.5 19.5t8.5 19.5t19.5 8.5t19.5 -8.5t8.5 -19.5t-8.5 -19.5t-19.5 -8.5t-19.5 8.5z" />
    <glyph glyph-name="uni1ECB" unicode="&#x1ecb;" horiz-adv-x="212" 
d="M88 612q-8 8 -8 18q0 11 8 18.5t18 7.5q11 0 18.5 -7.5t7.5 -18.5q0 -10 -7.5 -18t-18.5 -8q-10 0 -18 8zM92 480h28v-480h-28v480zM86.5 -112.5q-8.5 8.5 -8.5 19.5t8.5 19.5t19.5 8.5t19.5 -8.5t8.5 -19.5t-8.5 -19.5t-19.5 -8.5t-19.5 8.5z" />
    <glyph glyph-name="uni1ECC" unicode="&#x1ecc;" horiz-adv-x="842" 
d="M236.5 30.5q-82.5 45.5 -129.5 128.5t-47 190t47 190t129.5 129t184.5 46t184.5 -46t129.5 -129t47 -190t-47 -190t-129.5 -128.5t-184.5 -45.5t-184.5 45.5zM589.5 50.5q76.5 41.5 121.5 119t45 179.5t-44 179.5t-120.5 119.5t-170.5 42t-170.5 -42t-120.5 -119.5
t-44 -179.5t45 -179.5t121.5 -119t168.5 -41.5t168.5 41.5zM401.5 -112.5q-8.5 8.5 -8.5 19.5t8.5 19.5t19.5 8.5t19.5 -8.5t8.5 -19.5t-8.5 -19.5t-19.5 -8.5t-19.5 8.5z" />
    <glyph glyph-name="uni1ECD" unicode="&#x1ecd;" horiz-adv-x="622" 
d="M182 17q-57 32 -89.5 90t-32.5 133t32.5 133t89.5 90t129 32t129 -32t89.5 -90t32.5 -133t-32.5 -133t-89.5 -90t-129 -32t-129 32zM427 37.5q51 28.5 80 80.5t29 122q0 69 -29 121.5t-80 81t-116 28.5t-116 -28.5t-80 -81t-29 -121.5q0 -70 29 -122t80 -80.5t116 -28.5
t116 28.5zM291.5 -112.5q-8.5 8.5 -8.5 19.5t8.5 19.5t19.5 8.5t19.5 -8.5t8.5 -19.5t-8.5 -19.5t-19.5 -8.5t-19.5 8.5z" />
    <glyph glyph-name="uni1ECE" unicode="&#x1ece;" horiz-adv-x="842" 
d="M399 847q52 0 73 16.5t21 50.5q0 63 -77 63q-14 0 -30 -2t-25 -6v24q9 3 25 5.5t30 2.5q50 0 76.5 -23.5t26.5 -62.5q0 -38 -25 -61.5t-72 -25.5v-44h-23v63zM236.5 30.5q-82.5 45.5 -129.5 128.5t-47 190t47 190t129.5 129t184.5 46t184.5 -46t129.5 -129t47 -190
t-47 -190t-129.5 -128.5t-184.5 -45.5t-184.5 45.5zM589.5 50.5q76.5 41.5 121.5 119t45 179.5t-44 179.5t-120.5 119.5t-170.5 42t-170.5 -42t-120.5 -119.5t-44 -179.5t45 -179.5t121.5 -119t168.5 -41.5t168.5 41.5z" />
    <glyph glyph-name="uni1ECF" unicode="&#x1ecf;" horiz-adv-x="622" 
d="M294 626q52 0 73 16.5t21 50.5q0 63 -77 63q-14 0 -30 -2t-25 -6v24q9 3 25 5.5t30 2.5q50 0 76.5 -23.5t26.5 -62.5q0 -38 -25 -61.5t-72 -25.5v-44h-23v63zM182 17q-57 32 -89.5 90t-32.5 133t32.5 133t89.5 90t129 32t129 -32t89.5 -90t32.5 -133t-32.5 -133
t-89.5 -90t-129 -32t-129 32zM427 37.5q51 28.5 80 80.5t29 122q0 69 -29 121.5t-80 81t-116 28.5t-116 -28.5t-80 -81t-29 -121.5q0 -70 29 -122t80 -80.5t116 -28.5t116 28.5z" />
    <glyph glyph-name="uni1ED0" unicode="&#x1ed0;" horiz-adv-x="842" 
d="M568 948h28l-71 -108h-22zM410 878h22l128 -121h-31l-108 102l-108 -102h-31zM236.5 30.5q-82.5 45.5 -129.5 128.5t-47 190t47 190t129.5 129t184.5 46t184.5 -46t129.5 -129t47 -190t-47 -190t-129.5 -128.5t-184.5 -45.5t-184.5 45.5zM589.5 50.5q76.5 41.5 121.5 119
t45 179.5t-44 179.5t-120.5 119.5t-170.5 42t-170.5 -42t-120.5 -119.5t-44 -179.5t45 -179.5t121.5 -119t168.5 -41.5t168.5 41.5z" />
    <glyph glyph-name="uni1ED1" unicode="&#x1ed1;" horiz-adv-x="622" 
d="M465 753h28l-71 -108h-22zM307 683h22l128 -121h-31l-108 102l-108 -102h-31zM182 17q-57 32 -89.5 90t-32.5 133t32.5 133t89.5 90t129 32t129 -32t89.5 -90t32.5 -133t-32.5 -133t-89.5 -90t-129 -32t-129 32zM427 37.5q51 28.5 80 80.5t29 122q0 69 -29 121.5t-80 81
t-116 28.5t-116 -28.5t-80 -81t-29 -121.5q0 -70 29 -122t80 -80.5t116 -28.5t116 28.5z" />
    <glyph glyph-name="uni1ED2" unicode="&#x1ed2;" horiz-adv-x="842" 
d="M232 948h28l65 -108h-22zM396 878h22l128 -121h-31l-108 102l-108 -102h-31zM236.5 30.5q-82.5 45.5 -129.5 128.5t-47 190t47 190t129.5 129t184.5 46t184.5 -46t129.5 -129t47 -190t-47 -190t-129.5 -128.5t-184.5 -45.5t-184.5 45.5zM589.5 50.5q76.5 41.5 121.5 119
t45 179.5t-44 179.5t-120.5 119.5t-170.5 42t-170.5 -42t-120.5 -119.5t-44 -179.5t45 -179.5t121.5 -119t168.5 -41.5t168.5 41.5z" />
    <glyph glyph-name="uni1ED3" unicode="&#x1ed3;" horiz-adv-x="622" 
d="M131 753h28l65 -108h-22zM295 683h22l128 -121h-31l-108 102l-108 -102h-31zM182 17q-57 32 -89.5 90t-32.5 133t32.5 133t89.5 90t129 32t129 -32t89.5 -90t32.5 -133t-32.5 -133t-89.5 -90t-129 -32t-129 32zM427 37.5q51 28.5 80 80.5t29 122q0 69 -29 121.5t-80 81
t-116 28.5t-116 -28.5t-80 -81t-29 -121.5q0 -70 29 -122t80 -80.5t116 -28.5t116 28.5z" />
    <glyph glyph-name="uni1ED4" unicode="&#x1ed4;" horiz-adv-x="842" 
d="M501 875q36 0 51.5 9.5t15.5 32.5q0 22 -11.5 31t-34.5 9q-13 0 -27 -2.5t-22 -6.5v23q22 8 49 8q35 0 52.5 -16.5t17.5 -45.5q0 -26 -18.5 -42.5t-51.5 -17.5v-27h-21v45zM406 878h22l128 -121h-31l-108 102l-108 -102h-31zM236.5 30.5q-82.5 45.5 -129.5 128.5t-47 190
t47 190t129.5 129t184.5 46t184.5 -46t129.5 -129t47 -190t-47 -190t-129.5 -128.5t-184.5 -45.5t-184.5 45.5zM589.5 50.5q76.5 41.5 121.5 119t45 179.5t-44 179.5t-120.5 119.5t-170.5 42t-170.5 -42t-120.5 -119.5t-44 -179.5t45 -179.5t121.5 -119t168.5 -41.5
t168.5 41.5z" />
    <glyph glyph-name="uni1ED5" unicode="&#x1ed5;" horiz-adv-x="622" 
d="M395 680q36 0 51.5 9.5t15.5 32.5q0 22 -11.5 31t-34.5 9q-13 0 -27 -2.5t-22 -6.5v23q22 8 49 8q35 0 52.5 -16.5t17.5 -45.5q0 -26 -18.5 -42.5t-51.5 -17.5v-27h-21v45zM300 683h22l128 -121h-31l-108 102l-108 -102h-31zM182 17q-57 32 -89.5 90t-32.5 133t32.5 133
t89.5 90t129 32t129 -32t89.5 -90t32.5 -133t-32.5 -133t-89.5 -90t-129 -32t-129 32zM427 37.5q51 28.5 80 80.5t29 122q0 69 -29 121.5t-80 81t-116 28.5t-116 -28.5t-80 -81t-29 -121.5q0 -70 29 -122t80 -80.5t116 -28.5t116 28.5z" />
    <glyph glyph-name="uni1ED6" unicode="&#x1ed6;" horiz-adv-x="842" 
d="M458 902q-17 6 -43 19q-22 10 -37 15.5t-28 5.5q-23 0 -38.5 -9.5t-30.5 -35.5v30q10 19 26.5 28t42.5 9q15 0 31.5 -6t41.5 -18q27 -12 41 -17t28 -5q23 0 39 10t30 35v-30q-10 -19 -26.5 -28t-42.5 -9q-17 0 -34 6zM336 791q-33 31 -33 77h24q0 -37 25.5 -61t68.5 -24
t68.5 24t25.5 61h24q0 -46 -33 -77t-85 -31t-85 31zM236.5 30.5q-82.5 45.5 -129.5 128.5t-47 190t47 190t129.5 129t184.5 46t184.5 -46t129.5 -129t47 -190t-47 -190t-129.5 -128.5t-184.5 -45.5t-184.5 45.5zM589.5 50.5q76.5 41.5 121.5 119t45 179.5t-44 179.5
t-120.5 119.5t-170.5 42t-170.5 -42t-120.5 -119.5t-44 -179.5t45 -179.5t121.5 -119t168.5 -41.5t168.5 41.5z" />
    <glyph glyph-name="uni1ED7" unicode="&#x1ed7;" horiz-adv-x="622" 
d="M349 704q-17 6 -43 19q-22 10 -37 15.5t-28 5.5q-23 0 -38.5 -9.5t-30.5 -35.5v30q10 19 26.5 28t42.5 9q15 0 31.5 -6t41.5 -18q27 -12 41 -17t28 -5q23 0 39 10t30 35v-30q-10 -19 -26.5 -28t-42.5 -9q-17 0 -34 6zM227 593q-33 31 -33 77h24q0 -37 25.5 -61t68.5 -24
t68.5 24t25.5 61h24q0 -46 -33 -77t-85 -31t-85 31zM182 17q-57 32 -89.5 90t-32.5 133t32.5 133t89.5 90t129 32t129 -32t89.5 -90t32.5 -133t-32.5 -133t-89.5 -90t-129 -32t-129 32zM427 37.5q51 28.5 80 80.5t29 122q0 69 -29 121.5t-80 81t-116 28.5t-116 -28.5
t-80 -81t-29 -121.5q0 -70 29 -122t80 -80.5t116 -28.5t116 28.5z" />
    <glyph glyph-name="uni1ED8" unicode="&#x1ed8;" horiz-adv-x="842" 
d="M410 935h22l128 -151h-31l-108 129l-108 -129h-31zM236.5 30.5q-82.5 45.5 -129.5 128.5t-47 190t47 190t129.5 129t184.5 46t184.5 -46t129.5 -129t47 -190t-47 -190t-129.5 -128.5t-184.5 -45.5t-184.5 45.5zM589.5 50.5q76.5 41.5 121.5 119t45 179.5t-44 179.5
t-120.5 119.5t-170.5 42t-170.5 -42t-120.5 -119.5t-44 -179.5t45 -179.5t121.5 -119t168.5 -41.5t168.5 41.5zM401.5 -112.5q-8.5 8.5 -8.5 19.5t8.5 19.5t19.5 8.5t19.5 -8.5t8.5 -19.5t-8.5 -19.5t-19.5 -8.5t-19.5 8.5z" />
    <glyph glyph-name="uni1ED9" unicode="&#x1ed9;" horiz-adv-x="622" 
d="M300 713h22l128 -151h-31l-108 129l-108 -129h-31zM182 17q-57 32 -89.5 90t-32.5 133t32.5 133t89.5 90t129 32t129 -32t89.5 -90t32.5 -133t-32.5 -133t-89.5 -90t-129 -32t-129 32zM427 37.5q51 28.5 80 80.5t29 122q0 69 -29 121.5t-80 81t-116 28.5t-116 -28.5
t-80 -81t-29 -121.5q0 -70 29 -122t80 -80.5t116 -28.5t116 28.5zM291.5 -112.5q-8.5 8.5 -8.5 19.5t8.5 19.5t19.5 8.5t19.5 -8.5t8.5 -19.5t-8.5 -19.5t-19.5 -8.5t-19.5 8.5z" />
    <glyph glyph-name="uni1EDA" unicode="&#x1eda;" horiz-adv-x="834" 
d="M490 950h28l-77 -167h-22zM236.5 30.5q-82.5 45.5 -129.5 128.5t-47 190t47 190t129.5 129t184.5 46q74 0 138 -24.5t112 -69.5q42 1 70.5 27.5t28.5 62.5v37h24v-37q0 -40 -29 -71.5t-73 -39.5q43 -48 66.5 -112t23.5 -138q0 -107 -47 -190t-129.5 -128.5t-184.5 -45.5
t-184.5 45.5zM589.5 50.5q76.5 41.5 121.5 119t45 179.5t-44 179.5t-120.5 119.5t-170.5 42t-170.5 -42t-120.5 -119.5t-44 -179.5t45 -179.5t121.5 -119t168.5 -41.5t168.5 41.5z" />
    <glyph glyph-name="uni1EDB" unicode="&#x1edb;" horiz-adv-x="641" 
d="M362 729h28l-77 -167h-22zM182.5 17q-57.5 32 -90 90t-32.5 133t32.5 133t90 90t128.5 32q51 0 95 -16.5t77 -47.5q40 4 67 30t27 60v37h24v-37q0 -39 -28 -69.5t-71 -40.5q29 -33 44.5 -76.5t15.5 -94.5q0 -75 -32.5 -133t-90 -90t-128.5 -32t-128.5 32zM427 37.5
q51 28.5 80 80.5t29 122q0 69 -29 121.5t-80 81t-116 28.5t-116 -28.5t-80 -81t-29 -121.5q0 -70 29 -122t80 -80.5t116 -28.5t116 28.5z" />
    <glyph glyph-name="uni1EDC" unicode="&#x1edc;" horiz-adv-x="834" 
d="M350 950h28l71 -167h-22zM236.5 30.5q-82.5 45.5 -129.5 128.5t-47 190t47 190t129.5 129t184.5 46q74 0 138 -24.5t112 -69.5q42 1 70.5 27.5t28.5 62.5v37h24v-37q0 -40 -29 -71.5t-73 -39.5q43 -48 66.5 -112t23.5 -138q0 -107 -47 -190t-129.5 -128.5t-184.5 -45.5
t-184.5 45.5zM589.5 50.5q76.5 41.5 121.5 119t45 179.5t-44 179.5t-120.5 119.5t-170.5 42t-170.5 -42t-120.5 -119.5t-44 -179.5t45 -179.5t121.5 -119t168.5 -41.5t168.5 41.5z" />
    <glyph glyph-name="uni1EDD" unicode="&#x1edd;" horiz-adv-x="641" 
d="M235 729h28l71 -167h-22zM182.5 17q-57.5 32 -90 90t-32.5 133t32.5 133t90 90t128.5 32q51 0 95 -16.5t77 -47.5q40 4 67 30t27 60v37h24v-37q0 -39 -28 -69.5t-71 -40.5q29 -33 44.5 -76.5t15.5 -94.5q0 -75 -32.5 -133t-90 -90t-128.5 -32t-128.5 32zM427 37.5
q51 28.5 80 80.5t29 122q0 69 -29 121.5t-80 81t-116 28.5t-116 -28.5t-80 -81t-29 -121.5q0 -70 29 -122t80 -80.5t116 -28.5t116 28.5z" />
    <glyph glyph-name="uni1EDE" unicode="&#x1ede;" horiz-adv-x="834" 
d="M417 847q52 0 73 16.5t21 50.5q0 63 -77 63q-14 0 -30 -2t-25 -6v24q9 3 25 5.5t30 2.5q50 0 76.5 -23.5t26.5 -62.5q0 -38 -25 -61.5t-72 -25.5v-44h-23v63zM236.5 30.5q-82.5 45.5 -129.5 128.5t-47 190t47 190t129.5 129t184.5 46q74 0 138 -24.5t112 -69.5
q42 1 70.5 27.5t28.5 62.5v37h24v-37q0 -40 -29 -71.5t-73 -39.5q43 -48 66.5 -112t23.5 -138q0 -107 -47 -190t-129.5 -128.5t-184.5 -45.5t-184.5 45.5zM589.5 50.5q76.5 41.5 121.5 119t45 179.5t-44 179.5t-120.5 119.5t-170.5 42t-170.5 -42t-120.5 -119.5t-44 -179.5
t45 -179.5t121.5 -119t168.5 -41.5t168.5 41.5z" />
    <glyph glyph-name="uni1EDF" unicode="&#x1edf;" horiz-adv-x="641" 
d="M307 626q52 0 73 16.5t21 50.5q0 63 -77 63q-14 0 -30 -2t-25 -6v24q9 3 25 5.5t30 2.5q50 0 76.5 -23.5t26.5 -62.5q0 -38 -25 -61.5t-72 -25.5v-44h-23v63zM182.5 17q-57.5 32 -90 90t-32.5 133t32.5 133t90 90t128.5 32q51 0 95 -16.5t77 -47.5q40 4 67 30t27 60v37
h24v-37q0 -39 -28 -69.5t-71 -40.5q29 -33 44.5 -76.5t15.5 -94.5q0 -75 -32.5 -133t-90 -90t-128.5 -32t-128.5 32zM427 37.5q51 28.5 80 80.5t29 122q0 69 -29 121.5t-80 81t-116 28.5t-116 -28.5t-80 -81t-29 -121.5q0 -70 29 -122t80 -80.5t116 -28.5t116 28.5z" />
    <glyph glyph-name="uni1EE0" unicode="&#x1ee0;" horiz-adv-x="834" 
d="M256 817q27 45 90 45q22 0 41.5 -6t47.5 -19q26 -12 44.5 -18.5t40.5 -6.5q27 0 49.5 12t40.5 42v-33q-27 -45 -90 -45q-25 0 -46 6.5t-47 19.5q-25 12 -42.5 18t-38.5 6q-27 0 -48.5 -12t-41.5 -42v33zM236.5 30.5q-82.5 45.5 -129.5 128.5t-47 190t47 190t129.5 129
t184.5 46q74 0 138 -24.5t112 -69.5q42 1 70.5 27.5t28.5 62.5v37h24v-37q0 -40 -29 -71.5t-73 -39.5q43 -48 66.5 -112t23.5 -138q0 -107 -47 -190t-129.5 -128.5t-184.5 -45.5t-184.5 45.5zM589.5 50.5q76.5 41.5 121.5 119t45 179.5t-44 179.5t-120.5 119.5t-170.5 42
t-170.5 -42t-120.5 -119.5t-44 -179.5t45 -179.5t121.5 -119t168.5 -41.5t168.5 41.5z" />
    <glyph glyph-name="uni1EE1" unicode="&#x1ee1;" horiz-adv-x="641" 
d="M141 595q27 45 90 45q22 0 41.5 -6t47.5 -19q26 -12 45 -18.5t40 -6.5q27 0 49.5 12t40.5 42v-33q-27 -45 -90 -45q-25 0 -46 6.5t-47 19.5q-25 12 -42.5 18t-38.5 6q-27 0 -48.5 -12t-41.5 -42v33zM182.5 17q-57.5 32 -90 90t-32.5 133t32.5 133t90 90t128.5 32
q51 0 95 -16.5t77 -47.5q40 4 67 30t27 60v37h24v-37q0 -39 -28 -69.5t-71 -40.5q29 -33 44.5 -76.5t15.5 -94.5q0 -75 -32.5 -133t-90 -90t-128.5 -32t-128.5 32zM427 37.5q51 28.5 80 80.5t29 122q0 69 -29 121.5t-80 81t-116 28.5t-116 -28.5t-80 -81t-29 -121.5
q0 -70 29 -122t80 -80.5t116 -28.5t116 28.5z" />
    <glyph glyph-name="uni1EE2" unicode="&#x1ee2;" horiz-adv-x="834" 
d="M236.5 30.5q-82.5 45.5 -129.5 128.5t-47 190t47 190t129.5 129t184.5 46q74 0 138 -24.5t112 -69.5q42 1 70.5 27.5t28.5 62.5v37h24v-37q0 -40 -29 -71.5t-73 -39.5q43 -48 66.5 -112t23.5 -138q0 -107 -47 -190t-129.5 -128.5t-184.5 -45.5t-184.5 45.5zM589.5 50.5
q76.5 41.5 121.5 119t45 179.5t-44 179.5t-120.5 119.5t-170.5 42t-170.5 -42t-120.5 -119.5t-44 -179.5t45 -179.5t121.5 -119t168.5 -41.5t168.5 41.5zM409.5 -112.5q-8.5 8.5 -8.5 19.5t8.5 19.5t19.5 8.5t19.5 -8.5t8.5 -19.5t-8.5 -19.5t-19.5 -8.5t-19.5 8.5z" />
    <glyph glyph-name="uni1EE3" unicode="&#x1ee3;" horiz-adv-x="641" 
d="M182.5 17q-57.5 32 -90 90t-32.5 133t32.5 133t90 90t128.5 32q51 0 95 -16.5t77 -47.5q40 4 67 30t27 60v37h24v-37q0 -39 -28 -69.5t-71 -40.5q29 -33 44.5 -76.5t15.5 -94.5q0 -75 -32.5 -133t-90 -90t-128.5 -32t-128.5 32zM427 37.5q51 28.5 80 80.5t29 122
q0 69 -29 121.5t-80 81t-116 28.5t-116 -28.5t-80 -81t-29 -121.5q0 -70 29 -122t80 -80.5t116 -28.5t116 28.5zM287.5 -112.5q-8.5 8.5 -8.5 19.5t8.5 19.5t19.5 8.5t19.5 -8.5t8.5 -19.5t-8.5 -19.5t-19.5 -8.5t-19.5 8.5z" />
    <glyph glyph-name="uni1EE4" unicode="&#x1ee4;" horiz-adv-x="670" 
d="M141 48.5q-66 63.5 -66 180.5v470h28v-480q0 -107 63 -158.5t169 -51.5t169 51.5t63 158.5v480h28v-470q0 -117 -66 -180.5t-194 -63.5t-194 63.5zM315.5 -112.5q-8.5 8.5 -8.5 19.5t8.5 19.5t19.5 8.5t19.5 -8.5t8.5 -19.5t-8.5 -19.5t-19.5 -8.5t-19.5 8.5z" />
    <glyph glyph-name="uni1EE5" unicode="&#x1ee5;" horiz-adv-x="573" 
d="M123.5 34.5q-48.5 49.5 -48.5 131.5v314h28v-312q0 -74 40 -116.5t125 -42.5q63 0 110.5 28t86.5 90v353h28v-480h-28v89q-70 -104 -197 -104q-96 0 -144.5 49.5zM271.5 -112.5q-8.5 8.5 -8.5 19.5t8.5 19.5t19.5 8.5t19.5 -8.5t8.5 -19.5t-8.5 -19.5t-19.5 -8.5
t-19.5 8.5z" />
    <glyph glyph-name="uni1EE6" unicode="&#x1ee6;" horiz-adv-x="670" 
d="M315 807q52 0 73 16.5t21 50.5q0 63 -77 63q-14 0 -30 -2t-25 -6v24q9 3 25 5.5t30 2.5q50 0 76.5 -23.5t26.5 -62.5q0 -38 -25 -61.5t-72 -25.5v-44h-23v63zM141 48.5q-66 63.5 -66 180.5v470h28v-480q0 -107 63 -158.5t169 -51.5t169 51.5t63 158.5v480h28v-470
q0 -117 -66 -180.5t-194 -63.5t-194 63.5z" />
    <glyph glyph-name="uni1EE7" unicode="&#x1ee7;" horiz-adv-x="573" 
d="M262 609q52 0 73 16.5t21 50.5q0 63 -77 63q-14 0 -30 -2t-25 -6v24q9 3 25 5.5t30 2.5q50 0 76.5 -23.5t26.5 -62.5q0 -38 -25 -61.5t-72 -25.5v-44h-23v63zM123.5 34.5q-48.5 49.5 -48.5 131.5v314h28v-312q0 -74 40 -116.5t125 -42.5q63 0 110.5 28t86.5 90v353h28
v-480h-28v89q-70 -104 -197 -104q-96 0 -144.5 49.5z" />
    <glyph glyph-name="uni1EE8" unicode="&#x1ee8;" horiz-adv-x="763" 
d="M385 951h28l-77 -167h-22zM141 48.5q-66 63.5 -66 180.5v470h28v-480q0 -107 63 -158.5t169 -51.5t169 51.5t63 158.5v480h28v-79q44 0 74 26.5t30 63.5v37h24v-37q0 -30 -17.5 -56t-47 -41.5t-63.5 -15.5v-368q0 -117 -66 -180.5t-194 -63.5t-194 63.5z" />
    <glyph glyph-name="uni1EE9" unicode="&#x1ee9;" horiz-adv-x="661" 
d="M338 729h28l-77 -167h-22zM123.5 34.5q-48.5 49.5 -48.5 131.5v314h28v-312q0 -74 40 -116.5t125 -42.5q63 0 110.5 28t86.5 90v353h28v-49q44 0 74 26.5t30 63.5v37h24v-37q0 -30 -17.5 -56t-47 -41.5t-63.5 -15.5v-408h-28v89q-70 -104 -197 -104q-96 0 -144.5 49.5z
" />
    <glyph glyph-name="uni1EEA" unicode="&#x1eea;" horiz-adv-x="763" 
d="M275 951h28l71 -167h-22zM141 48.5q-66 63.5 -66 180.5v470h28v-480q0 -107 63 -158.5t169 -51.5t169 51.5t63 158.5v480h28v-79q44 0 74 26.5t30 63.5v37h24v-37q0 -30 -17.5 -56t-47 -41.5t-63.5 -15.5v-368q0 -117 -66 -180.5t-194 -63.5t-194 63.5z" />
    <glyph glyph-name="uni1EEB" unicode="&#x1eeb;" horiz-adv-x="661" 
d="M205 729h28l71 -167h-22zM123.5 34.5q-48.5 49.5 -48.5 131.5v314h28v-312q0 -74 40 -116.5t125 -42.5q63 0 110.5 28t86.5 90v353h28v-49q44 0 74 26.5t30 63.5v37h24v-37q0 -30 -17.5 -56t-47 -41.5t-63.5 -15.5v-408h-28v89q-70 -104 -197 -104q-96 0 -144.5 49.5z
" />
    <glyph glyph-name="uni1EEC" unicode="&#x1eec;" horiz-adv-x="763" 
d="M323 847q52 0 73 16.5t21 50.5q0 63 -77 63q-14 0 -30 -2t-25 -6v24q9 3 25 5.5t30 2.5q50 0 76.5 -23.5t26.5 -62.5q0 -38 -25 -61.5t-72 -25.5v-44h-23v63zM141 48.5q-66 63.5 -66 180.5v470h28v-480q0 -107 63 -158.5t169 -51.5t169 51.5t63 158.5v480h28v-79
q44 0 74 26.5t30 63.5v37h24v-37q0 -30 -17.5 -56t-47 -41.5t-63.5 -15.5v-368q0 -117 -66 -180.5t-194 -63.5t-194 63.5z" />
    <glyph glyph-name="uni1EED" unicode="&#x1eed;" horiz-adv-x="661" 
d="M270 626q52 0 73 16.5t21 50.5q0 63 -77 63q-14 0 -30 -2t-25 -6v24q9 3 25 5.5t30 2.5q50 0 76.5 -23.5t26.5 -62.5q0 -38 -25 -61.5t-72 -25.5v-44h-23v63zM123.5 34.5q-48.5 49.5 -48.5 131.5v314h28v-312q0 -74 40 -116.5t125 -42.5q63 0 110.5 28t86.5 90v353h28
v-49q44 0 74 26.5t30 63.5v37h24v-37q0 -30 -17.5 -56t-47 -41.5t-63.5 -15.5v-408h-28v89q-70 -104 -197 -104q-96 0 -144.5 49.5z" />
    <glyph glyph-name="uni1EEE" unicode="&#x1eee;" horiz-adv-x="763" 
d="M163 817q27 45 90 45q22 0 41.5 -6t47.5 -19q26 -12 44.5 -18.5t40.5 -6.5q27 0 49.5 12t40.5 42v-33q-27 -45 -90 -45q-25 0 -46 6.5t-47 19.5q-25 12 -42.5 18t-38.5 6q-27 0 -48.5 -12t-41.5 -42v33zM141 48.5q-66 63.5 -66 180.5v470h28v-480q0 -107 63 -158.5
t169 -51.5t169 51.5t63 158.5v480h28v-79q44 0 74 26.5t30 63.5v37h24v-37q0 -30 -17.5 -56t-47 -41.5t-63.5 -15.5v-368q0 -117 -66 -180.5t-194 -63.5t-194 63.5z" />
    <glyph glyph-name="uni1EEF" unicode="&#x1eef;" horiz-adv-x="661" 
d="M105 595q27 45 90 45q22 0 41.5 -6t47.5 -19q26 -12 45 -18.5t40 -6.5q27 0 49.5 12t40.5 42v-33q-27 -45 -90 -45q-25 0 -46 6.5t-47 19.5q-25 12 -42.5 18t-38.5 6q-27 0 -48.5 -12t-41.5 -42v33zM123.5 34.5q-48.5 49.5 -48.5 131.5v314h28v-312q0 -74 40 -116.5
t125 -42.5q63 0 110.5 28t86.5 90v353h28v-49q44 0 74 26.5t30 63.5v37h24v-37q0 -30 -17.5 -56t-47 -41.5t-63.5 -15.5v-408h-28v89q-70 -104 -197 -104q-96 0 -144.5 49.5z" />
    <glyph glyph-name="uni1EF0" unicode="&#x1ef0;" horiz-adv-x="763" 
d="M141 48.5q-66 63.5 -66 180.5v470h28v-480q0 -107 63 -158.5t169 -51.5t169 51.5t63 158.5v480h28v-79q44 0 74 26.5t30 63.5v37h24v-37q0 -30 -17.5 -56t-47 -41.5t-63.5 -15.5v-368q0 -117 -66 -180.5t-194 -63.5t-194 63.5zM319.5 -112.5q-8.5 8.5 -8.5 19.5t8.5 19.5
t19.5 8.5t19.5 -8.5t8.5 -19.5t-8.5 -19.5t-19.5 -8.5t-19.5 8.5z" />
    <glyph glyph-name="uni1EF1" unicode="&#x1ef1;" horiz-adv-x="661" 
d="M123.5 34.5q-48.5 49.5 -48.5 131.5v314h28v-312q0 -74 40 -116.5t125 -42.5q63 0 110.5 28t86.5 90v353h28v-49q44 0 74 26.5t30 63.5v37h24v-37q0 -30 -17.5 -56t-47 -41.5t-63.5 -15.5v-408h-28v89q-70 -104 -197 -104q-96 0 -144.5 49.5zM263.5 -112.5
q-8.5 8.5 -8.5 19.5t8.5 19.5t19.5 8.5t19.5 -8.5t8.5 -19.5t-8.5 -19.5t-19.5 -8.5t-19.5 8.5z" />
    <glyph glyph-name="Ygrave" unicode="&#x1ef2;" horiz-adv-x="658" 
d="M250 951h28l71 -167h-22zM315 265l-255 434h28l241 -410l241 410h28l-255 -434v-265h-28v265z" />
    <glyph glyph-name="ygrave" unicode="&#x1ef3;" horiz-adv-x="531" 
d="M201 729h28l71 -167h-22zM70 -192v25q22 -7 53 -7q43 0 66 22.5t43 72.5l33 85l-205 474h28l191 -438l184 438h28l-234 -565q-24 -59 -53 -86t-75 -27q-32 0 -59 6z" />
    <glyph glyph-name="uni1EF4" unicode="&#x1ef4;" horiz-adv-x="658" 
d="M315 265l-255 434h28l241 -410l241 410h28l-255 -434v-265h-28v265zM309.5 -112.5q-8.5 8.5 -8.5 19.5t8.5 19.5t19.5 8.5t19.5 -8.5t8.5 -19.5t-8.5 -19.5t-19.5 -8.5t-19.5 8.5z" />
    <glyph glyph-name="uni1EF5" unicode="&#x1ef5;" horiz-adv-x="531" 
d="M70 -192v25q22 -7 53 -7q43 0 66 22.5t43 72.5l33 85l-205 474h28l191 -438l184 438h28l-234 -565q-24 -59 -53 -86t-75 -27q-32 0 -59 6zM352.5 -112.5q-8.5 8.5 -8.5 19.5t8.5 19.5t19.5 8.5t19.5 -8.5t8.5 -19.5t-8.5 -19.5t-19.5 -8.5t-19.5 8.5z" />
    <glyph glyph-name="uni1EF6" unicode="&#x1ef6;" horiz-adv-x="658" 
d="M305 847q52 0 73 16.5t21 50.5q0 63 -77 63q-14 0 -30 -2t-25 -6v24q9 3 25 5.5t30 2.5q50 0 76.5 -23.5t26.5 -62.5q0 -38 -25 -61.5t-72 -25.5v-44h-23v63zM315 265l-255 434h28l241 -410l241 410h28l-255 -434v-265h-28v265z" />
    <glyph glyph-name="uni1EF7" unicode="&#x1ef7;" horiz-adv-x="531" 
d="M260 625q52 0 73 16.5t21 50.5q0 63 -77 63q-14 0 -30 -2t-25 -6v24q9 3 25 5.5t30 2.5q50 0 76.5 -23.5t26.5 -62.5q0 -38 -25 -61.5t-72 -25.5v-44h-23v63zM70 -192v25q22 -7 53 -7q43 0 66 22.5t43 72.5l33 85l-205 474h28l191 -438l184 438h28l-234 -565
q-24 -59 -53 -86t-75 -27q-32 0 -59 6z" />
    <glyph glyph-name="uni1EF8" unicode="&#x1ef8;" horiz-adv-x="658" 
d="M152 817q27 45 90 45q22 0 41.5 -6t47.5 -19q26 -12 45 -18.5t40 -6.5q27 0 49.5 12t40.5 42v-33q-27 -45 -90 -45q-25 0 -46 6.5t-47 19.5q-25 12 -42.5 18t-38.5 6q-27 0 -48.5 -12t-41.5 -42v33zM315 265l-255 434h28l241 -410l241 410h28l-255 -434v-265h-28v265z
" />
    <glyph glyph-name="uni1EF9" unicode="&#x1ef9;" horiz-adv-x="531" 
d="M102 595q27 45 90 45q22 0 41.5 -6t47.5 -19q26 -12 45 -18.5t40 -6.5q27 0 49.5 12t40.5 42v-33q-27 -45 -90 -45q-25 0 -46 6.5t-47 19.5q-25 12 -42.5 18t-38.5 6q-27 0 -48.5 -12t-41.5 -42v33zM70 -192v25q22 -7 53 -7q43 0 66 22.5t43 72.5l33 85l-205 474h28
l191 -438l184 438h28l-234 -565q-24 -59 -53 -86t-75 -27q-32 0 -59 6z" />
    <glyph glyph-name="uni2007" unicode="&#x2007;" 
 />
    <glyph glyph-name="uni2010" unicode="&#x2010;" horiz-adv-x="443" 
d="M60 305h323v-24h-323v24z" />
    <glyph glyph-name="figuredash" unicode="&#x2012;" horiz-adv-x="662" 
d="M60 305h542v-24h-542v24z" />
    <glyph glyph-name="endash" unicode="&#x2013;" horiz-adv-x="623" 
d="M60 305h503v-24h-503v24z" />
    <glyph glyph-name="emdash" unicode="&#x2014;" horiz-adv-x="779" 
d="M60 305h659v-24h-659v24z" />
    <glyph glyph-name="uni2015" unicode="&#x2015;" horiz-adv-x="1040" 
d="M60 305h920v-24h-920v24z" />
    <glyph glyph-name="quoteleft" unicode="&#x2018;" horiz-adv-x="220" 
d="M135 714h25l-69 -189h-31z" />
    <glyph glyph-name="quoteright" unicode="&#x2019;" horiz-adv-x="220" 
d="M129 714h31l-75 -189h-25z" />
    <glyph glyph-name="quotesinglbase" unicode="&#x201a;" horiz-adv-x="220" 
d="M129 71h31l-75 -189h-25z" />
    <glyph glyph-name="quotedblleft" unicode="&#x201c;" horiz-adv-x="342" 
d="M135 714h25l-69 -189h-31zM257 714h25l-69 -189h-31z" />
    <glyph glyph-name="quotedblright" unicode="&#x201d;" horiz-adv-x="342" 
d="M129 714h31l-75 -189h-25zM251 714h31l-75 -189h-25z" />
    <glyph glyph-name="quotedblbase" unicode="&#x201e;" horiz-adv-x="342" 
d="M129 71h31l-75 -189h-25zM251 71h31l-75 -189h-25z" />
    <glyph glyph-name="dagger" unicode="&#x2020;" horiz-adv-x="524" 
d="M248 483h-188v24h188v192h28v-192h188v-24h-188v-553h-28v553z" />
    <glyph glyph-name="daggerdbl" unicode="&#x2021;" horiz-adv-x="524" 
d="M248 192h-188v24h188v267h-188v24h188v192h28v-192h188v-24h-188v-267h188v-24h-188v-192h-28v192z" />
    <glyph glyph-name="bullet" unicode="&#x2022;" horiz-adv-x="264" 
d="M81 247q-21 21 -21 51t21 51t51 21t51 -21t21 -51t-21 -51t-51 -21t-51 21z" />
    <glyph glyph-name="ellipsis" unicode="&#x2026;" horiz-adv-x="572" 
d="M68 8q-8 8 -8 18q0 11 8 18.5t18 7.5q11 0 18.5 -7.5t7.5 -18.5q0 -10 -7.5 -18t-18.5 -8q-10 0 -18 8zM268 8q-8 8 -8 18q0 11 8 18.5t18 7.5q11 0 18.5 -7.5t7.5 -18.5q0 -10 -7.5 -18t-18.5 -8q-10 0 -18 8zM468 8q-8 8 -8 18q0 11 8 18.5t18 7.5q11 0 18.5 -7.5
t7.5 -18.5q0 -10 -7.5 -18t-18.5 -8q-10 0 -18 8z" />
    <glyph glyph-name="perthousand" unicode="&#x2030;" horiz-adv-x="1280" 
d="M151 371.5q-42 24.5 -66.5 66.5t-24.5 92t24.5 92.5t66.5 67t92 24.5t92.5 -24.5t67 -67t24.5 -92.5t-24.5 -92t-67 -66.5t-92.5 -24.5t-92 24.5zM613 699h28l-387 -699h-28zM323.5 392q36.5 21 58 57.5t21.5 80.5t-21.5 80.5t-58 58t-80.5 21.5t-80.5 -21.5t-57.5 -58
t-21 -80.5t21 -80.5t57.5 -57.5t80.5 -21t80.5 21zM532 9.5q-42 24.5 -66.5 66.5t-24.5 92t24.5 92.5t66.5 67t92 24.5t92.5 -24.5t67 -67t24.5 -92.5t-24.5 -92t-67 -66.5t-92.5 -24.5t-92 24.5zM944 9.5q-42 24.5 -66.5 66.5t-24.5 92t24.5 92.5t66.5 67t92 24.5
t92.5 -24.5t67 -67t24.5 -92.5t-24.5 -92t-67 -66.5t-92.5 -24.5t-92 24.5zM704.5 30q36.5 21 58 57.5t21.5 80.5t-21.5 80.5t-58 58t-80.5 21.5t-80.5 -21.5t-57.5 -58t-21 -80.5t21 -80.5t57.5 -57.5t80.5 -21t80.5 21zM1116.5 30q36.5 21 58 57.5t21.5 80.5t-21.5 80.5
t-58 58t-80.5 21.5t-80.5 -21.5t-57.5 -58t-21 -80.5t21 -80.5t57.5 -57.5t80.5 -21t80.5 21z" />
    <glyph glyph-name="minute" unicode="&#x2032;" horiz-adv-x="148" 
d="M60 699h28v-169h-28v169z" />
    <glyph glyph-name="second" unicode="&#x2033;" horiz-adv-x="306" 
d="M60 699h28v-169h-28v169zM218 699h28v-169h-28v169z" />
    <glyph glyph-name="guilsinglleft" unicode="&#x2039;" horiz-adv-x="350" 
d="M60 311v22l217 171l13 -18l-208 -164l208 -164l-13 -18z" />
    <glyph glyph-name="guilsinglright" unicode="&#x203a;" horiz-adv-x="350" 
d="M60 158l208 164l-208 164l13 18l217 -171v-22l-217 -171z" />
    <glyph glyph-name="fraction" unicode="&#x2044;" horiz-adv-x="173" 
d="M265 714h28l-385 -729h-28z" />
    <glyph glyph-name="uni2070" unicode="&#x2070;" horiz-adv-x="379" 
d="M95 407.5q-35 47.5 -35 126.5q0 80 34.5 127.5t94.5 47.5t95 -47.5t35 -127.5q0 -79 -35 -126.5t-95 -47.5q-59 0 -94 47.5zM265.5 424.5q28.5 40.5 28.5 109.5q0 70 -28 110.5t-77 40.5q-48 0 -76 -40.5t-28 -110.5q0 -69 28 -109.5t76 -40.5t76.5 40.5z" />
    <glyph glyph-name="uni2074" unicode="&#x2074;" horiz-adv-x="328" 
d="M211 458h-171v22l165 219h32v-219h51v-22h-51v-88h-26v88zM211 480v189l-144 -189h144z" />
    <glyph glyph-name="uni2075" unicode="&#x2075;" horiz-adv-x="337" 
d="M100 365q-25 5 -40 13v26q17 -9 42 -14.5t47 -5.5q54 0 78.5 20t24.5 66q0 43 -23 64.5t-77 21.5q-40 0 -72 -12l-11 6l12 149h170v-24h-149l-8 -105q27 8 59 8q66 0 95 -29.5t29 -78.5q0 -53 -31.5 -81.5t-96.5 -28.5q-24 0 -49 5z" />
    <glyph glyph-name="uni2076" unicode="&#x2076;" horiz-adv-x="360" 
d="M93.5 397q-33.5 37 -33.5 107q0 101 41.5 153t110.5 52q22 0 42 -4v-25q-17 5 -41 5q-54 0 -86.5 -35.5t-41.5 -113.5q13 31 39.5 47t61.5 16q60 0 87 -33t27 -88q0 -52 -31 -85t-88 -33q-54 0 -87.5 37zM251.5 409q23.5 25 23.5 69q0 48 -20.5 72.5t-68.5 24.5
q-44 0 -70.5 -26.5t-26.5 -70.5q0 -41 24 -67.5t68 -26.5q47 0 70.5 25z" />
    <glyph glyph-name="uni2077" unicode="&#x2077;" horiz-adv-x="315" 
d="M239 675h-189v24h215v-24l-139 -305h-27z" />
    <glyph glyph-name="uni2078" unicode="&#x2078;" horiz-adv-x="339" 
d="M89.5 384.5q-29.5 24.5 -29.5 69.5q0 36 21 60t54 29q-28 7 -45.5 28.5t-17.5 51.5q0 39 27.5 62.5t70.5 23.5t70 -23.5t27 -62.5q0 -30 -17.5 -51.5t-45.5 -28.5q33 -5 54 -29t21 -60q0 -45 -29.5 -69.5t-79.5 -24.5q-51 0 -80.5 24.5zM223.5 576q18.5 18 18.5 47
t-20 46t-52 17q-33 0 -53 -17t-20 -46t19 -47t54 -18t53.5 18zM232.5 401q22.5 18 22.5 53t-22.5 54.5t-62.5 19.5q-41 0 -63 -19.5t-22 -54.5t22.5 -53t62.5 -18t62.5 18z" />
    <glyph glyph-name="uni2079" unicode="&#x2079;" horiz-adv-x="360" 
d="M106 364v25q17 -5 41 -5q54 0 86.5 35.5t41.5 113.5q-13 -31 -39.5 -47t-61.5 -16q-60 0 -87 33t-27 88q0 52 31 85t88 33q54 0 87.5 -37t33.5 -107q0 -101 -41.5 -153t-110.5 -52q-22 0 -42 4zM244.5 520.5q26.5 26.5 26.5 70.5q0 41 -24 67.5t-68 26.5q-47 0 -70.5 -25
t-23.5 -69q0 -48 20.5 -72.5t68.5 -24.5q44 0 70.5 26.5z" />
    <glyph glyph-name="uni207D" unicode="&#x207d;" horiz-adv-x="202" 
d="M75 438.5q-15 46.5 -15 95.5q0 50 15 96.5t41 78.5h26q-27 -35 -42 -81t-15 -94q0 -47 15 -93t42 -81h-26q-26 32 -41 78.5z" />
    <glyph glyph-name="uni207E" unicode="&#x207e;" horiz-adv-x="202" 
d="M102 441q15 46 15 93q0 48 -15 94t-42 81h26q26 -32 41 -78.5t15 -96.5q0 -49 -15 -95.5t-41 -78.5h-26q27 35 42 81z" />
    <glyph glyph-name="uni207F" unicode="&#x207f;" horiz-adv-x="440" 
d="M65 699h28v-60q28 40 66.5 57.5t81.5 17.5q68 0 103.5 -34.5t35.5 -91.5v-228h-28v220q0 53 -26 81.5t-85 28.5q-92 0 -148 -84v-246h-28v339z" />
    <glyph glyph-name="uni2080" unicode="&#x2080;" horiz-adv-x="379" 
d="M95 -122.5q-35 47.5 -35 126.5q0 80 34.5 127.5t94.5 47.5t95 -47.5t35 -127.5q0 -79 -35 -126.5t-95 -47.5q-59 0 -94 47.5zM265.5 -105.5q28.5 40.5 28.5 109.5q0 70 -28 110.5t-77 40.5q-48 0 -76 -40.5t-28 -110.5q0 -69 28 -109.5t76 -40.5t76.5 40.5z" />
    <glyph glyph-name="uni2081" unicode="&#x2081;" horiz-adv-x="225" 
d="M158 137l-98 -72v32l98 72h27v-329h-27v297z" />
    <glyph glyph-name="uni2082" unicode="&#x2082;" horiz-adv-x="341" 
d="M60 -136l97 88q6 6 39.5 35.5t45 52.5t11.5 48q0 32 -20.5 49.5t-60.5 17.5q-56 0 -93 -26v26q17 12 43.5 18t49.5 6q49 0 77.5 -24.5t28.5 -66.5q0 -29 -11.5 -52t-29 -40.5t-57.5 -54.5l-85 -77h186v-24h-221v24z" />
    <glyph glyph-name="uni2083" unicode="&#x2083;" horiz-adv-x="340" 
d="M60 -154v27q38 -19 99 -19q45 0 70.5 17.5t25.5 51.5q0 40 -22.5 56t-76.5 16h-36v24h36q43 0 66 19t23 53t-20 49t-62 15q-53 0 -94 -27v25q39 26 94 26q52 0 79.5 -23t27.5 -65q0 -33 -16.5 -53.5t-54.5 -29.5q40 -3 60.5 -25.5t20.5 -59.5q0 -43 -32 -68t-89 -25
q-58 0 -99 16z" />
    <glyph glyph-name="uni2084" unicode="&#x2084;" horiz-adv-x="328" 
d="M211 -73h-171v23l165 219h33v-219h50v-23h-50v-87h-27v87zM211 -50v188l-143 -188h143z" />
    </font>
</defs>
</svg>
